<svg xmlns="http://www.w3.org/2000/svg" viewBox="0 0 650 400" xmlns:v="https://vecta.io/nano"><style><![CDATA[.B{fill:#0a0d33}.C{fill:#96544a}.D{fill:#162052}.E{fill:#fff}.F{fill:#2b1011}.G{fill:#f7ac70}.H{fill:#f29b8a}.I{fill:#222d63}.J{fill:#8f5b31}.K{fill:#c26d60}.L{fill:#c9722a}.M{fill:#ebb094}.N{fill:#fff6f0}.O{fill:#9c6346}.P{fill:#fff6e3}.Q{fill:#2e3587}.R{fill:#fab93a}.S{fill:#ffe7d4}.T{fill:#cc8b76}.U{fill:#161c52}.V{fill:#875e40}.W{fill:#d19219}.X{fill:#de9254}.Y{fill:#693730}]]></style><g class="E"><path d="M0 0h650v400H0z"/><path d="M0 0h650v400H0z" opacity="0"/></g><g fill="#dadcf2"><path d="M612.733 302.576c-5.569-35.654-34.375-57.337-66.869-66.191-6.599-1.798-17.099-4.195-20.321-10.974-3.923-8.255-.655-17.703 3.35-25.281 4.405-8.336 9.591-16.103 13.907-24.538 22.634-44.242 15.049-87.729-2.34-106.575-43.3-46.927-147.393-49.59-223.786 16.339-16.876 14.564-42.979 48.835-83.474 45.156-35.413-3.218-56.175-18.17-85.384-22.977-29.766-4.899-57.174 7.73-74.254 35.197-13.895 22.345-16.524 61.639 16.95 105.389 6.024 7.873 11.635 16.835 15.13 26.154 4.57 12.196-4.93 18.736-15.63 21.828-14.627 4.227-27.509 9.616-37.458 21.757-9.52 11.617-12.615 26.831-1.523 38.601 14.54 15.429 42.355 17.25 62.185 17.234l449.474.281c36.389-7.11 54.627-42.058 50.043-71.4zM66.91 246.999c8.858 16.441 18.248 28.324 13.848 32.17s-22.356-3.83-34.647-17.891-12.502-27.816-9.862-33.028c5.039-9.947 16.455-7.619 30.661 18.749zm260-204.725c2.986 14.835-41.364 42.043-75.564 59.286-34.527 16.741-65.636 12.649-77.691-4.601-11.651-16.505 5.542-46.804 52.598-61.679 46.756-14.652 97.295-8.153 100.657 6.994z"/><ellipse cx="125.853" cy="76.625" rx="13.941" ry="7.05"/><path d="M175.875 33.243c-3.389 2.968-7.973 3.277-10.239.69s-1.357-7.091 2.032-10.059 7.973-3.277 10.239-.69 1.357 7.091-2.032 10.059zm415.224 160.146c-5.535 19.796-21.631 29.555-31.804 24.47-10.358-5.103-7.702-18.328 3.932-36.951 10.917-17.475 16.347-34.704 23.09-30.622 6.522 3.872 10.509 23.661 4.782 43.103z"/></g><path d="M137.97 351.308l10.187.746-1.179 16.101-10.187-.746zm52.835 16.121l-10.187.746-1.179-16.101 10.187-.746z" fill="#a68a7d"/><path d="M147.594 359.959c.061 6.377-.454 13.774-.454 13.774h-36.487c.404-1.15 1.887-2.402 3.158-2.593 0 0 12.381-3.845 14.107-4.813 2.967-1.675 5.873-2.634 7.225-6.145h.01s.545-1.171 2.27-.928c1.715.232 2.482 3.259 4.803 3.552 2.311.292 4.52-1.252 5.368-2.847h0z" fill="#4f392f"/><path d="M134.657 366.628c-.024 0-.048-.005-.072-.015s-2.201-.87-5.187-.784c-.11 0-.196-.084-.199-.19s.082-.196.188-.199c2.462-.049 4.569.503 5.342.814.099.039.148.152.108.252-.03.075-.104.122-.18.122zm2.632-1.995c-.024 0-.048-.005-.072-.015-.611-.243-3.467-.789-4.661-.543-.105.023-.208-.045-.23-.149s.046-.208.15-.23c1.308-.275 4.273.318 4.883.563.1.039.148.152.108.252a.19.19 0 0 1-.178.122z" class="E"/><path d="M180.003 359.959c-.061 6.377.454 13.774.454 13.774h36.487c-.404-1.15-1.887-2.402-3.158-2.593 0 0-12.381-3.845-14.107-4.813-2.967-1.675-5.873-2.634-7.225-6.145h-.01s-.545-1.171-2.27-.928c-1.715.232-2.482 3.259-4.803 3.552-2.311.292-4.521-1.252-5.368-2.847h0z" fill="#4f392f"/><path d="M192.94 366.628c-.077 0-.15-.047-.18-.122-.04-.1.009-.213.108-.252.093-.038 2.326-.896 5.343-.836.107.003.191.093.188.199s-.089.189-.194.189c-2.343-.071-4.425.501-5.193.807-.024.01-.048.015-.072.015zm-2.633-1.995c-.077 0-.15-.047-.18-.122-.04-.1.009-.213.108-.253.585-.233 3.766-.915 5.078-.64.104.021.172.124.15.229a.19.19 0 0 1-.23.149c-1.217-.255-4.309.404-4.854.622-.023.01-.048.015-.072.015z" class="E"/><g fill="#edbb86"><path d="M165.454 242.788l-1.463 9.859v.01l-11.321 76.708-1.998 13.501-2.21 14.954c-.091.676-3.895.747-8.506.161-4.45-.575-8.012-1.544-8.173-2.22h-.01v-.03c0-.01-.01-.03 0-.04 0-.01.01-.02.01-.03l1.433-14.49 1.019-10.191 9.021-90.926 20.746 2.553h.01l1.442.181z"/><path d="M196.19 355.762c.01.02.02.03.02.05.081.676-3.582 1.685-8.194 2.25-4.601.575-8.405.484-8.486-.192 0-.02.01-.04.01-.051h-.02l-2.27-15.368-1.877-12.734-11.382-77.062v-.01l-1.453-9.859 1.463-.182h.01l20.726-2.553 9.152 92.319.737 7.366 1.584 16.024h-.02z"/></g><path d="M134.234 330.979c5.126-.797 11.443-1.372 18.436-1.615l-1.998 13.501c-6.66-.293-12.633-.888-17.457-1.695l1.019-10.191zm60.392 8.759c-4.087 1.181-10.141 2.129-17.376 2.714l-1.877-12.734c7.629.535 14.087 1.463 18.516 2.654l.737 7.366z" fill="#d49655"/><path d="M164.254 330.112l-7.044-.051-2.18.01c3.945-26.336 8.961-72.802 8.961-72.802l.263 72.843z" class="B"/><path d="M219.05 211.87c-.89 2.37-2.62 4.08-6.26 4.43a9.03 9.03 0 0 1-1.04.03c-1.88-.06-3.81-.76-5.61-1.99-1.47-1-3.27-1.23-5.01-.92-2.77.49-5.72-.67-7.35-3.22l-1.12-1.76.78 10.84.37 4.87.91 10.32v.02c3.46 41.37 3.73 74.98 3.6 90.75l-.01 1.34-.02 1.82-.06 3.45c0 .27-.02.53-.02.76v.15l-.02.55v.01c0 .18 0 .34-.01.49.01.03 0 .06 0 .09 0 .11 0 .21-.01.31v.08l-.03 1.32c-3 1.27-7.53 2.32-12.96 3.13-6.48.98-14.26 1.64-22.27 1.93l.16-10.45.75-69.36s-4.64 42.98-8.58 69.32l-1.75 10.67c-15.34.02-30.1-1.3-37.01-4.19l1.54-7.33 7.34-34.52c.02-.07.03-.14.05-.21l5.53-26.09 3.87-18.56c2.14-10.43 3.2-21.12 3.16-31.87v-.45l.02-2.37-.03-2.65-.01-.74-.12.83-2.442 17.489-9.878-3.479-16.63-5.25c3.23-9.48 7.41-17.77 12.01-26.33 3.31-6.07 6.76-12.06 10.37-17.97a19.14 19.14 0 0 1 11.48-8.53c1.01-.28 2.02-.52 3.03-.75 10.77-2.47 21.86-2.99 32.7-1.45a4.69 4.69 0 0 1 .37.05l.61.09c6.65.99 12.69 4.39 16.99 9.54l1.85 2.22 2.79 3.32c.03-.03.05-.06.08-.09 1.32-1.52 2.95-2.59 4.83-3.05.32-.07.63-.16.95-.21 6.26-.92 12.65 6.85 14.27 17.35 1.07 7-2.16 16.22-2.16 16.22z" class="I"/><path d="M185.119 133.026l-20.178 7.995-19.908-7.723 20.179-13.716z" class="B"/><g class="L"><path d="M160.531 154.552c-.689 2.126-2.329 3.498-3.662 3.066s-1.855-2.506-1.166-4.631 2.329-3.498 3.662-3.066 1.856 2.506 1.166 4.631z"/><path d="M160.635 133.102s-3.67-3.259-6.022 3.732-2.33 13.22-2.33 13.22 17.542 4.124 17.677 3.716 7.342-10.807 7.342-10.807-.613-8.177-6.333-11.723c-6.516-4.039-10.334 1.862-10.334 1.862z"/></g><g fill="#b06221"><path d="M176.628 146.969c.662 5.216-1.588 9.08-2.618 8.5-1.081-.556-1.153-4.151-1.857-7.77-.597-3.62-1.553-7.027-.491-8.038 1.006-1.02 4.301 2.077 4.966 7.308z"/><path d="M177.569 143.511c1.114 4.775-.186 8.46-1.051 7.981-.902-.454-1.372-3.766-2.335-7.065-.88-3.306-2.014-6.396-1.307-7.387.663-.995 3.575 1.683 4.693 6.471z"/></g><path d="M160.904 149.31c-1.804 4.486-5.407 7.456-7.249 6.715s-1.938-5.672-.462-10.007c1.948-5.722 5.154-6.978 6.996-6.237s2.52 5.043.715 9.529z" class="L"/><path d="M169.819 162.277c-.582.334-2.716 1.637-5.757 1.637-3.205 0-6.246-1.327-6.657-1.684l.016-.202.993-11.879 11.072.303.178 6.292.093 3.344.054 1.909.008.28z" class="M"/><path d="M169.757 160.089c-4.399-.621-5.928-2.979-5.982-3.01l5.757-.38.132.046.093 3.344z" class="T"/><path d="M171.767 167.607l-15.991-.279 1.857-7.837c.673 3.356 6.336 3.779 6.336 3.779s1.979.279 3.854-.781c1.272-.72 1.822-1.724 1.934-2.4l2.01 7.518z" class="P"/><path d="M168.313 158.111l-.669.011c-3.691.062-6.777-2.619-7.05-6.125l-1.184-15.195 14.953-1.165.557 15.852c.125 3.57-2.859 6.56-6.607 6.622z" class="M"/><g class="L"><path d="M161.536 142.283s-.832-2.816 0-4.342c.98-1.796 7.66 3.437 11.507 5.7s4.765-8.052-1.411-10.013-10.684 2.187-10.88 2.008-3.347.893-3.347.893l2.382 5.113 1.749.641z"/><path d="M175.727 138.366c1.58 2.367 1.954 5.393 1.199 5.84-.759.473-2.471-1.64-4.13-3.78-1.646-2.163-2.501-3.707-1.664-4.406.825-.677 3.019-.046 4.595 2.346z"/></g><path d="M161.544 146.004c1.51 1.595 1.635 3.928.281 5.209s-3.676 1.027-5.186-.568-1.635-3.928-.281-5.209 3.677-1.028 5.186.568z" class="M"/><path d="M173.904 138.737c2.398 2.411 3.553 5.903 2.782 6.619-.769.748-3.26-1.329-5.695-3.451-2.426-2.152-3.786-3.769-2.981-4.806.797-1.007 3.494-.805 5.894 1.638z" class="L"/><path d="M162.352 142.419c.088-1.5 1.658-2.459 3.027-2.622.587-.022 1.832-.304 1.82.576a.51.51 0 0 1-.441.431c-1.661.081-3.174.499-4.406 1.615h0z" fill="#8a440d"/><path d="M162.017 144.795c.321 2.941-.86 5.335-1.737 5.311s-.43-3.085-2.027-5.576c-2.291-3.573-1.478-5.651-.725-6.101 1.233-.736 3.889.878 4.489 6.366z" class="L"/><path d="M171.77 177.62c-.5 1.44-1.2 3.03-1.91 4.5-.05.07-.08.14-.12.21l-2.62 4.96c-.01.01-.01.02-.01.02-.05-.03-.1-.05-.15-.09-.56-.44-2.67-2.33-5.37-4.78-.57-.52-6.264-6.193-7.55-11.06-1.06-4.012.08-5.01.08-5.01 5.73-.77 11.5-.99 17.24-.65 3.18 2.01 1.73 8.11.41 11.9z" class="P"/><path d="M162.818 273.109c-.008 0-.016-.001-.024-.002-.106-.013-.182-.11-.168-.216 4.186-33.747 5.535-62.564 4.009-85.654-.007-.107.074-.199.181-.206.118-.024.199.074.206.181 1.528 23.113.178 51.956-4.011 85.726-.013.099-.096.171-.193.171z" class="B"/><path d="M167.79 171.43l-1.85-2.68-1.83-2.64-1.3 2.43-1.78 3.32c-4.94-2.94-4.94-5.77-4.94-5.77.11.48 1.81 3.92 4.65 4.29.12 0 .73-1.31 1.4-2.8l1.01-2.29v-.01l.82-1.92 1.04 1.87 1.47 2.64 1.55 2.79s2.75-1.92 3.15-4.95c0 0 .17 3.48-3.39 5.72z" class="J"/><path d="M156.583 148.786c-.096 0-.179-.071-.192-.168-.1-.753.048-1.388.438-1.888.659-.843 1.769-.977 1.78-.978.115-.004.203.065.214.171s-.065.202-.171.214c-.009.001-.966.126-1.518.831-.324.414-.445.952-.359 1.598.014.106-.061.204-.167.218l-.025.002zm13.155.133c-.107 0-.205-.068-.24-.174-.043-.132.029-.275.162-.318l.784-.255c.228-.075.402-.248.476-.476a.74.74 0 0 0-.104-.665l-1.432-1.985c-.082-.113-.056-.271.057-.352s.271-.056.352.057l1.432 1.985a1.23 1.23 0 0 1 .174 1.116c-.125.383-.416.674-.799.799l-.784.255c-.026.009-.052.013-.078.013z" class="C"/><path d="M137.927 214.988s-1.872 8.383-2.396 14.034l-.136-1.279c.615-12.926-6.811-20.07-12.855-20.645 1.513-.02 4.299.091 7.457-1.372 5.419-2.502 7.608-10.545 7.013-14.308.826 5.771 1.381 13.682.917 23.57z" class="D"/><path d="M170.079 150.028c.038.169-.116.538-.399.884-.416.512-1.118 1.005-2.023.853-.727-.118-1.251-.585-1.602-1.039-.405-.494-.584-.987-.584-.987l4.608.289z" class="E"/><path d="M137.856 216.686c-.119-.007-.2-.099-.194-.206l.066-1.376.005-.124c.501-10.677-.222-18.692-.916-23.536l-.008-.042c-.901-6.292-2.132-10.011-2.697-10.879-.059-.09-.033-.21.057-.268s.21-.033.269.057c.583.896 1.846 4.682 2.754 11.027l.008.042c.699 4.87 1.424 12.911.922 23.617l-.005.123-.065 1.384c-.008.101-.093.181-.196.181z" class="B"/><path d="M176.605 151.484c-.101 0-.2-.025-.296-.074-.722-.369-1.073-2.119-1.111-2.317-.02-.105.049-.207.154-.227s.206.049.227.154c.129.677.489 1.831.907 2.044.08.04.154.042.241.001.095-.044.211-.005.258.094s.003.212-.094.258-.191.067-.286.067zm-22.179 4.653c-.111 0-.224-.008-.336-.025-.106-.017-.178-.116-.162-.222a.19.19 0 0 1 .222-.162c1.703.273 3.477-2.052 3.495-2.076.065-.085.186-.102.272-.038s.102.186.038.271c-.074.099-1.723 2.252-3.529 2.252z" fill="#7d4312"/><path d="M174.707 128.795v6.307c0-.303-1.019-.585-2.684-.777-1.756-.222-4.218-.353-6.942-.353-5.328 0-9.636.515-9.636 1.13v-6.307c0-.615 4.309-1.13 9.636-1.13 5.318 0 9.626.514 9.626 1.13z" class="Q"/><path d="M135.384 228.25c-.125-.011-.204-.105-.194-.212s.01-.2.01-.295c.629-13.218-7.037-19.915-12.68-20.452-.436-.051-.846-.06-1.259-.03-.023.012-.061.009-.086.01a5.45 5.45 0 0 0-.701.079c-3.895.695-6.965 3.382-8.643 7.565l-.027.067c-.04.101-.155.146-.252.107s-.148-.153-.107-.252l.027-.067c1.73-4.313 4.903-7.084 8.936-7.804a6.03 6.03 0 0 1 .725-.082c.043-.012.084-.012.116-.012a7.18 7.18 0 0 1 1.313.032c5.793.551 13.668 7.384 13.027 20.847 0 .098 0 .204-.011.321-.01.102-.095.178-.194.178z" class="B"/><path d="M174.707 128.795v6.307c0-.303-1.019-.585-2.684-.777-.817-2.563-2.688-5.248-6.942-5.459-5.671-.281-8.903 1.176-9.636 6.236v-6.307c0-.615 4.309-1.13 9.636-1.13 5.318 0 9.626.514 9.626 1.13z" class="U"/><g class="B"><ellipse transform="matrix(.9373 -.3485 .3485 .9373 -71.8555 56.6638)" cx="121.574" cy="228.06" rx="13.642" ry="15.229"/><path d="M138.102 215.907c-.11-.002-.196-.09-.194-.196.11-9.572-2.687-16.435-8.313-20.396-.359-.253-.48-.337-.515-.46-.029-.103.03-.21.133-.24.093-.027.188.018.228.102.044.046.213.165.377.281 5.737 4.039 8.59 11.01 8.478 20.717-.002.106-.088.192-.194.192zm79.894-3.139c-4.208 2.331-10.958-5.731-12.805-13.864a7.09 7.09 0 0 1-.101-.444c-.141-.666-.262-1.332-.363-1.988-1.12-6.801-.706-13.118.141-15.822.202-.666.474-1.16.777-1.524.464-.585.999-.858 1.463-.928a6.58 6.58 0 0 1 .989-.071c4.278 0 8.496 4.117 10.999 10.302.868 2.149 1.534 4.551 1.917 7.114 1.049 7.004-1.201 16.216-3.017 17.225z"/></g><path d="M164.587 200.327s-1.584 6.63-8.476 12.432c-6.882 5.812-9.879 11.834-12.115 27.488-1.542 10.794-4.808 28.162-13.262 28.162l3.865-18.567c2.139-10.423 3.209-21.119 3.169-31.866v-.454l.02-2.361-.03-2.654 9.899-6.508 16.93-5.672z" class="D"/><g class="M"><path d="M159.087 203.99l-32.138 23.037c-1.604 1.16-4.319 1.625-6.186 1.493l-.353-.04c-3.269-.424-6.619-2.452-5.943-9.001l.797-5.267 12.987-6.125c.02-.01.03-.02.03-.02l25.832-12.189 4.974 8.112zm69.928-50.635l-2.24 7.931-9.132 32.28c-.363 1.271-.959 2.432-1.786 3.31l-.01.01a5.13 5.13 0 0 1-1.705 1.211c-2.563 1.1-6.256.858-8.95.807l-.101-.444-.363-1.988c-1.08-6.559-.737-12.664.05-15.519l.081-.252c.01-.03.01-.05.01-.05l.777-1.524 14.187-29.01.051-.091 1.342-2.755 4.652 3.633 3.137 2.451z"/><path d="M152.365 199.605c-1.533-3.255.65-6.656 2.985-8.857l-.118.143a25.89 25.89 0 0 0 3.137-3.719c.255-.419 1.381.097.939 2.23-.178.861-1.338 3.62-1.428 3.667-1.258 1.924-2.075 4.154-2.794 6.32-.371 1.217-2.171 1.341-2.721.216h0z"/><path d="M156.32 205.998l7.252-4.087c2.201-1.24 2.433-3.91 1.601-6.211l-1.266-3.544c-.599-1.676-2.537-2.549-4.122-1.74-.162.083-.325.179-.486.288l-5.071 3.646c-.158.358-2.068 9.173-2.068 9.173l4.16 2.475z"/></g><path d="M162.533 193.592c-.058 0-.116-.02-.164-.061a.25.25 0 0 1-.028-.355c.332-.389.479-.79.437-1.192-.077-.735-.756-1.265-.763-1.27-.11-.085-.131-.243-.047-.353a.25.25 0 0 1 .353-.048c.035.026.856.661.958 1.614.059.546-.128 1.077-.555 1.576a.25.25 0 0 1-.191.089zm1.329 2.08c-.091 0-.179-.05-.224-.137-.064-.124-.015-.276.108-.34.609-.314.205-1.717.015-2.183-.052-.129.01-.276.139-.329s.276.01.329.139c.092.228.873 2.242-.251 2.822-.038.019-.077.028-.116.028zm.613 3.161c-.082 0-.164-.041-.212-.116-.076-.117-.042-.273.075-.349 1.126-.727.443-2.323.413-2.391-.056-.127.002-.276.129-.332s.276.001.332.128c.313.708.59 2.249-.601 3.018-.042.029-.089.042-.136.042z" class="C"/><path d="M229.015 153.355l.039.186a7.29 7.29 0 0 1-.783 5.091l-1.497 2.655c.064-.227.756-4.532-4.814-10.957-.01-.071-2.138-.314-2.138-.314l.061.01 5.994.878 3.138 2.451z" class="T"/><path d="M224.639 156.862c-.023 0-.046-.004-.069-.013-.1-.038-.15-.15-.112-.25 1.248-3.262-.585-6.29-1.431-7.44l-.059-.082c-.059-.089-.035-.209.054-.269s.208-.035.269.054l.048.067c.884 1.202 2.797 4.368 1.48 7.809-.028.077-.102.124-.18.124zm-69.811 37.225a.25.25 0 0 1-.208-.111c-.079-.115-.048-.272.067-.35l4.06-2.756a.25.25 0 0 1 .35.067c.079.115.048.272-.067.35l-4.06 2.756a.25.25 0 0 1-.142.044z" class="C"/><path d="M255.815 162.265c-.686 2.603-2.139 4.48-3.249 4.188-.071-.02-.141-.051-.202-.081-14.722-3.865-24.742-12.684-35.115-19.101h-.01c-1.614-1.009-3.229-1.947-4.884-2.805a46.78 46.78 0 0 0-2.946-1.413l5.883-9.081c9.203 5.086 23.35 18.678 39.737 23.057.03.01.05.02.081.03 1.048.383 1.361 2.673.705 5.206z" class="N"/><path d="M217.249 147.271h-.01l-4.884-2.805c1.382-1.362 3.33-3.764 3.622-6.68l1.272 9.485z" fill="#debb9e"/><path d="M215.525 134.375c.009.149 1.9 10.493-3.743 13.26 0 0 3.901-.263 7.75 1.991l17.314 10.321c-.254-.142-21.338-25.827-21.321-25.572zm39.584 22.673v.01l-.081-.03c.03.01.051.01.081.02z" class="N"/><path d="M163.91 144.851c-.03 0-.061-.005-.09-.017-.13-.05-.195-.195-.146-.325.021-.055.525-1.348 1.859-1.428 1.119-.067 1.607.778 1.718 1.234.033.135-.05.271-.186.305s-.271-.05-.305-.186c-.009-.036-.254-.913-1.198-.849-1.004.06-1.401 1.061-1.417 1.103-.038.101-.134.163-.235.163zm6.615-.326a.23.23 0 0 1-.089-.017c-.13-.049-.196-.195-.146-.325.017-.047.45-1.156 1.597-1.226.944-.049 1.389.673 1.484 1.067.033.135-.05.272-.186.305s-.272-.051-.305-.186c-.019-.074-.224-.731-.964-.683-.825.049-1.152.892-1.156.9-.037.103-.132.165-.235.165z" class="B"/><path d="M211.699 216.139l-.161.091c-1.877-.061-3.804-.767-5.61-1.998-1.463-.999-3.269-1.221-5.005-.918-2.775.494-5.721-.666-7.356-3.219l-1.019-1.594-.394-8.597c0 4.415 2.143 8.206 5.472 8.967 9.483 2.166 7.222 6.612 14.073 7.268zM201.08 181.65c-1.473 2.028-3.124 5.549-3.608 12.098-1.594.378-2.201-2.202-1.736-5.18.568-3.632 3.781-7.341 2.384-10.44l2.805 3.338.155.184z" class="D"/><path d="M192.934 215.273c-.074 0-.145-.04-.179-.11-.028-.06-.028-.12-.028-.153l-.374-6.501-.101-2.433-.292-6.161-.736-9.388c-1.508-16.251 1.491-17.956 1.62-18.021.097-.047.213-.009.261.086s.01.212-.086.261c-.025.014-2.876 1.82-1.408 17.639l.737 9.4.292 6.169.102 2.432.373 6.504c.046.097.001.213-.096.259-.028.011-.057.017-.085.017zm4.437-19.656c-.117-.006-.199-.097-.194-.204l.102-1.68c.505-6.829 1.857-9.536 3.243-11.444 1.585-2.174 3.78-3.241 3.873-3.285s.212-.005.258.091.005.212-.091.258c-.022.011-2.203 1.071-3.727 3.163-1.352 1.861-2.672 4.512-3.17 11.245-.041.534-.07 1.098-.101 1.671-.005.105-.091.185-.193.185z" class="B"/><path d="M213.481 139.404c-1.729 2.494-3.723 4.105-4.453 3.599s.08-2.938 1.809-5.432 3.723-4.105 4.453-3.598-.08 2.937-1.809 5.431z" class="V"/><path d="M121.167 207.067h.081c-.03 0-.061 0-.081.01v-.01z" fill="#212952"/><path d="M198.107 325.137l-.01 1.342-.02 1.816-.061 3.451-.01.757v.151l-.02.555v.01l-.01.484c.01.03 0 .061 0 .091l-.01.313v.081l-.03 1.322c-3.007 1.261-7.538 2.311-12.966 3.128 3.017-6.387 6.983-23.572 7.961-39.424 1.12-18.113 1.645-63.399 1.584-64.832 3.461 41.372 3.723 74.983 3.592 90.755z" class="D"/><path d="M143.619 148.057c-.066 0-.13-.034-.167-.094-.055-.092-.025-.211.067-.266 4.73-2.822 4.551-8.8 4.408-13.604-.084-2.812-.157-5.24.746-6.539.928-1.336 2.265-1.771 3.669-1.192 1.347.555 2.419 1.938 2.249 2.903-.019.105-.115.177-.225.157s-.176-.119-.157-.225c.122-.696-.749-1.956-2.016-2.478-.716-.295-2.086-.551-3.203 1.055-.83 1.194-.758 3.563-.676 6.306.147 4.905.33 11.01-4.596 13.949-.03.019-.065.028-.099.028z" class="B"/><path d="M143.618 154.092c-.051.05-.303-.182-.666-.555l.414-1.13-.716.817-1.171-1.312 1.12-1.968c-.323.293-1.332.565-2.18.737l-.626-.737c2.946-1.312 5.903-4.157 5.903-4.157s.183 6.004-2.078 8.305z" class="R"/><path d="M117.353 222.607c-.414 3.935 1.453 5.419 3.411 5.913l-.353-.04c-3.269-.424-6.619-2.452-5.943-9.001l.797-5.267 12.987-6.125c-.597.403-10.112 6.922-10.899 14.52zm98.493-25.721a5.13 5.13 0 0 1-1.705 1.211c-2.563 1.1-6.256.858-8.95.807l-.101-.444-.363-1.988c-1.08-6.559-.737-12.664.05-15.519l.081-.252c-.091.898-1.978 12.752 4.551 16.375 2.472 1.362 5.075.849 6.437-.19z" class="T"/><g class="B"><path d="M166.48 167.87c-.14.32-.33.61-.54.88-.57.75-1.25 1.26-1.25 1.26s-1.08-.61-1.88-1.47c-.28-.29-.53-.62-.67-.96l1.01-2.29v-.01c.35-.07.75-.07 1.19-.07l.67.02 1.47 2.64z"/><path d="M169.743 182.325c-1.134 3.204-2.801 6.629-2.801 6.73-.121 0-1.943-2.016-5.352-6.619.262-6.135 2.311-14.51 2.311-14.51h.787c2.381 2.442 4.076 9.374 5.055 14.399z"/></g><g class="M"><path d="M229.46 143.6l-.02 1-.214 3.451c-.02.55-1.851.198-1.846-1.011l.07-3.16-2.811-3.727s1.955-1.517 2.989-.269l.672 1.266 1.01 1.9c.1.17.15.36.15.55z"/><path d="M232 145.67v.01l-.27 4.18c-.11 1.3-1.99.27-1.93-1.05l.19-3.03-.55-1.18.02-1c0-.19-.05-.38-.15-.55l-1.01-1.9c.354-.457 2.1-.772 2.53.528.03.12.24.762.56 1.792l.61 2.2z"/><path d="M234.91 147.31l-.08.33-.532 1.578-.404 1.193-.202.619c-.045.142-.288.696-.798.359a1.15 1.15 0 0 1-.472-.65c-.133-.459-.063-.965.043-1.422l.464-2.087-.93-1.56c.05-.08-.602-1.471-.942-2.541.45-.78 1.795-.476 2.334.496l.817 1.435.63 1.59.03.08a1.04 1.04 0 0 1 .042.58z"/><path d="M236.53 149.93c-.192.54-.621 1.028-.952 1.487a.47.47 0 0 1-.096.108c-.155.115-.468.028-.596-.092-.252-.235-.227-.664-.19-.973.019-.154.046-.31.085-.461.261-1.02.38-1.61.05-2.36l.08-.33a1.06 1.06 0 0 0-.04-.58l-.03-.08-.63-1.59c.5-.47 1.44-.51 1.78.41.549 1.391 1.099 2.971.539 4.461zm-18.364-1.921l3.059-3.684c1.692-.002.499 3.233.499 3.233l-.934 2.518.577 4.354-2.359 2.239-1.318-2.616c-.493-.977-.657-2.087-.47-3.166-.001 0 .523-1.838.946-2.878z"/></g><path d="M229.44 144.794c-.106 0-.192-.085-.194-.191l-.005-.394c-.007-.546-.161-1.083-.444-1.552l-1.089-1.804c-.055-.091-.026-.211.066-.266s.21-.026.266.066l1.089 1.804a3.47 3.47 0 0 1 .499 1.747l.005.394c.001.107-.084.195-.191.196zm2.402 1.414c-.106 0-.192-.085-.194-.191l-.005-.394c.004-.527-.698-2.333-.969-2.984-.041-.099.006-.212.105-.253s.212.006.253.105c.103.247 1.004 2.435.998 3.132l.005.39c.002.107-.084.195-.191.196zm2.863 1.517c-.106 0-.192-.085-.194-.191l-.005-.394c.004-.519-.692-1.944-.961-2.449-.05-.094-.014-.212.081-.262s.211-.014.262.081c.104.195 1.012 1.924 1.006 2.63l.005.39c.001.107-.084.195-.191.196z" class="C"/><path d="M176.748 143.934c-.093 0-.175-.067-.191-.162-.68-4.011-4.123-6.054-4.807-6.423l.169-.35-.093.17.108-.162c.711.384 4.295 2.511 5.005 6.7.017.106-.053.206-.159.224-.011.002-.022.003-.032.003z" fill="#7d4312"/><g class="B"><path d="M262.5 288.851l13.945 14.217c-1.463 7.185-2.956 12.704-3.965 16.074-6.317-6.942-12.179-14.813-21.574-18.022-14.783-5.045-20.554 2.492-20.817 2.856.01-.04.061-.141.161-.323 1.503-2.301 3.895-3.723 4.339-3.754l27.911-11.048z"/><path d="M305.425 332.604l-2.977.383c-2.482.232-4.924.202-7.356-.02-8.012-.706-15.893-3.481-24.48-6.276-5.792-1.877-11.897-3.764-18.577-5.025-16.498-3.108-21.775-7.487-22.916-12.805-.424-1.937.141-3.663 1.059-5.086-.05.111-.081.171-.091.202.262-.363 6.034-7.901 20.817-2.856 9.394 3.209 15.257 11.079 21.574 18.022 1.009-3.37 2.502-8.89 3.965-16.074 1.16-5.701 2.301-12.452 3.148-19.999 2.694-23.975 2.321-73.631 2.321-73.631s9.394 58.505 9.092 93.711c-.05 5.943.283 11.13.858 15.63l13.563 13.824z"/></g><path d="M289.24 289.598l-.02.464-.353 8.294-1.665 38.445-.04.837c-1.019.232-2.846.384-4.924.384-2.129 0-3.986-.161-4.985-.404l-.04-.807-.242-30.938-.121-15.045-.01-1.14-.01-1.594 2.159.262 7.638.928 2.613.314z" class="G"/><g class="O"><path d="M282.227 290.708l-5.257 15.166-.131-16.185 5.388 1.019z"/><path d="M289.22 290.062l-2.593-.777-3.935-1.191-3.098-.444-.605.706-2.139 2.472.121 15.045s2.593-7.134 6.912-8.093c2.452-.545 4.056 0 4.985.575l.352-8.293z"/></g><path d="M296.3 154.512l-18.79 6.774-18.008-6.199 18.134-10.762z" class="B"/><path d="M277.252 337.622l.978 22.555.427 8.799.233 4.865h2.483l.21-3.74.078-1.435.892 1.808 1.668 3.367h14.688a2.2 2.2 0 0 0-.481-1.373 2.14 2.14 0 0 0-1.241-.76l-5.361-1.303c0-.279-4.857-9.497-5.61-10.94l.947-21.826c-1.016.233-2.84.388-4.927.388-2.129-.001-3.983-.157-4.984-.405z" fill="#3c4dba"/><path d="M278.998 289.679l-5.832 16.347a8.76 8.76 0 0 1-2.371 3.552 8.87 8.87 0 0 1-3.178 1.867l-9.949 3.269-10.989 3.602-.777.252c-.575-.858-1.382-2.523-2.129-4.49-.737-1.968-1.241-3.744-1.372-4.773l.757-.333 9.899-4.228 1.635-.696 5.964-2.563.414-1.675 4.5-18.062 13.428 7.931z" class="G"/><path d="M270.794 309.577a8.87 8.87 0 0 1-3.178 1.867l-9.949 3.269c-.323-5.005-1.857-8.627-2.977-10.666l5.964-2.563.414-1.675 4.177 2.331 5.549 7.437z" class="O"/><path d="M298.735 303.16c-1.806-2.694-9.404-6.468-18.95-9.213-5.449-1.564-10.545-2.502-14.46-2.775l-10.403-4.662 3.764-24.5 9.747-55.316 24.298-9.536 6.004 106.002z" class="W"/><path d="M298.907 306.207l-1.08-.484c.454-.172.797-.393 1.019-.646l.061 1.13z" fill="#64bde8"/><path d="M242.399 309.305l-33.33 14.216.954 2.526 4.936-1.556-3.93 4.221 5.187 13.741h0c.963-.363 1.541-1.345 1.387-2.362l-.673-5.479c.196-.008 8.385-9.269 8.385-9.269l20.584-6.767c-.574-.861-1.379-2.532-2.121-4.499s-1.248-3.744-1.379-4.772z" fill="#3c4dba"/><path d="M321.076 185.282l.01 2.513c-.051 0-.676.212-.717.222-.605.283-1.1.767-1.483 1.312-1.18 1.685-1.322 3.834-1.513 5.822l-.212 1.413v.03c-.565 2.906-1.968 5.61-4.177 7.618l-.313.272c-1.806 1.564-4.046 2.613-6.387 3.037-2.412.444-4.813.716-6.418 2.846-1.12 1.483-1.524 3.35-1.554 5.187l.131 1.503 5.994 68.858c1.453 17.568 5.409 43.43 5.409 43.43s-.444 2.321-4.42 3.259c-.827.202-1.806.343-2.977.383-1.968.081-4.45-.111-7.598-.727-1.221-3.612-2.291-8.052-2.987-13.481-.575-4.5-.908-9.687-.858-15.63.303-35.206-9.092-93.711-9.092-93.711s.353 47.385-2.139 71.926c-.01.04-.01.091-.02.161l-.081.807c-.04.454-.101.989-.182 1.604-.837 7.205-1.927 13.652-3.047 19.132-1.463 7.185-2.956 12.704-3.965 16.074-3.36-3.693-6.599-7.659-10.313-11.039-3.249-2.957-6.862-5.479-11.261-6.983-14.783-5.045-20.554 2.492-20.817 2.856.01-.04.061-.141.161-.323.989-1.958 6.751-12.815 24.803-37.88.192-.252.373-.515.565-.777 0 0-1.58-7.615-2.72-18.089-1.078.042-2.194-.134-3.203-.356-2.402-.515-4.45-1.847-5.651-3.915-1.493-2.603-1.312-5.792.192-8.617.767-1.453.666-3.158-.182-4.561-.958-1.594-1.241-3.391-.817-5.166.323-1.332.868-2.654 1.645-3.804 1.665-2.492 2.856-5.287 3.31-8.254.797-5.267 1.867-10.02 3.32-15.308.918-3.34 3.118-6.206 6.135-7.901 1.826-1.029 4.228-2.069 7.346-2.886 2.866-.747 6.327-1.312 10.494-1.514 4.47-.222 7.972-.232 10.696-.121 1.463.061 2.704.151 3.764.262 2.059-1.837 8.062-7.265 13.794-13.622l2.048-2.331c2.654-3.098 5.136-6.337 6.993-9.424l9.071 17.154-3.592 3.966 2.815 1.675c0 0 0 1.604 0 3.098z" class="I"/><path d="M271.39 222.809c.061 2.129-.373 3.895-1.049 5.338-.817-1.362-4.975-8.688-6.286-18.758-.081-.626-.202-1.191-.353-1.705 2.572 2.784 7.496 8.858 7.688 15.125z" class="D"/><path d="M286.599 184.523c.161 5.913-6.824 15.662-6.824 15.662-5.802-1.292-14.783-14.036-14.783-14.036v-.01c2.866-.747 6.327-1.312 10.494-1.514 4.47-.222 7.972-.232 10.696-.121l.417.019z" class="W"/><g class="F"><path d="M288.901 165.357c-1.214 1.809-5.381.051-7.279-1.74s-1.327-4.009-.388-5.004 3.132-.229 5.137 1.442c2.418 2.015 3.293 4.166 2.53 5.302z"/><path d="M291.642 177.438c.023-.209-.06-.422-.234-.633-.48-.751-6.588-6.674-4.957-13.197l1.758-.707c2.359.191 2.149-2.996-.532-4.26-2.894-1.365-7.335-2.567-9.89-2.567-.111 0-1.196-.338-3.197 0-3.24.548-6.601 3.054-6.593 7.187.005 2.718.292 5.003.292 6.522 0 3.209-3.589 8.048-3.546 8.049-.052.111-.079.222-.068.331.108 1.004 2.415 1.581 5.841 1.213 2.159-.232 8.145-.662 12.943.069 3.397.517 6.257.679 6.556-.45.038-.144.031-.296-.017-.453.977-.242 1.589-.621 1.644-1.104z"/></g><path d="M289.835 179.188a.19.19 0 0 1-.077-.016c-.098-.042-.143-.157-.101-.255.05-.159-.013-1.484-1.782-2.538-3.004-1.79-2.617-3.07-2.6-3.124.034-.101.14-.155.244-.122s.156.143.125.245c-.004.01-.248 1.072 2.43 2.668 1.938 1.155 2.076 2.711 1.939 3.025-.032.073-.104.117-.178.117z" class="J"/><path d="M281.627 171.145v13.68c0 .032-.008.053-.015.084-.217.506-2.436.906-5.152.906-2.848 0-5.16-.443-5.16-.991v-13.68h10.327z" class="G"/><path d="M281.627 176.321v3.701c0 .023-.008.039-.015.062-4.718-.504-6.13-2.956-6.13-2.956l4.05-.97 2.095.163z" class="O"/><path d="M286.399 166.307c1.369 5.826-.804 11.174-5.15 12.196s-8.979-2.873-10.349-8.699 1.044-11.376 5.39-12.398 8.74 3.075 10.109 8.901z" class="G"/><path d="M262.682 251.557c-4.134 3.871-4.48 8.436-4.379 11.392-1.009.656-2.109 1.554-3.209 2.765.182-.232.343-.474.525-.716 0 0-1.594-7.75-2.735-18.224l.383-5.277 18.128-6.59c-.076 7.432-3.847 12.092-8.713 16.65zm2.709-35.491s-6.288-2.027-8.274 2.73-.428 9.762-4.744 11.376l16.534-3.93-3.516-10.176z" class="D"/><path d="M270.688 168.726c-.05-.259 8.248-4.548 9.074-11.476l-5.686-.338-2.684 3.226-1.814 2.249-.161 6.007 1.271.332z" class="F"/><path d="M271.141 167.948c-.079 0-.152-.048-.182-.125-.667-1.771 1.652-4.464 1.868-4.636.083-.066.205-.053.273.031s.053.206-.03.272c-.175.148-2.31 2.702-1.747 4.196.038.1-.013.212-.113.25-.023.008-.046.012-.069.012z" class="J"/><path d="M270.897 227.779c2.887 4.027.09 10.974-6.247 15.518s-13.815 4.963-16.702.937.161-11.311 6.498-15.855 13.564-4.626 16.451-.6z" class="B"/><path d="M271.368 167.126c1.645.95 2.292 2.909 1.446 4.375s-2.867 1.886-4.512.936-2.292-2.909-1.445-4.375 2.866-1.885 4.511-.936z" class="G"/><g class="B"><path d="M270.482 228.573c-.064 0-.128-.033-.165-.092l-.143-.235c-.823-1.372-4.996-8.727-6.313-18.833a10.89 10.89 0 0 0-.337-1.642c-.008-.015-.015-.029-.02-.045h0c-1.133-3.954-4.022-4.783-4.052-4.791-.103-.028-.164-.135-.136-.238s.137-.159.237-.137c.127.034 3.108.879 4.313 5.021.009.014.016.03.021.047.16.545.281 1.129.359 1.735 1.307 10.029 5.444 17.323 6.261 18.684l.14.229c.056.091.028.211-.063.268a.19.19 0 0 1-.102.029z"/><path d="M270.715 228.665c-.086 0-.165-.058-.188-.145-2.448-9.207-10.778-8.486-15.525-7.233-.244.064-.309.081-.361.081-.107 0-.194-.087-.194-.194s.081-.188.184-.193c.04-.006.133-.032.273-.068 4.888-1.288 13.465-2.023 15.999 7.509.027.104-.034.21-.138.237-.017.004-.033.006-.05.006z"/></g><path d="M268.693 171.559c-.021 0-.041-.003-.061-.01-.356-.119-.971-.701-1.151-1.444-.136-.563.013-1.086.431-1.513 1.151-1.174 2.856-.211 2.873-.201.093.054.124.172.071.265s-.173.124-.265.071c-.06-.034-1.465-.824-2.402.137-.324.331-.436.718-.331 1.15.148.611.67 1.092.897 1.167.102.034.156.144.123.246a.2.2 0 0 1-.185.132zm14.258-1.531c-.078 0-.152-.046-.182-.122-.039-.098.006-.208.103-.249.019-.008.055-.023.777-.231a.78.78 0 0 0 .488-1.093l-.841-1.613c-.062-.043-.095-.121-.079-.199.022-.104.127-.167.23-.149.12.026.187.04 1.038 1.792a1.17 1.17 0 0 1-.729 1.635l-.738.217c-.022.008-.045.012-.067.012z" class="C"/><path d="M280.049 170.271s1.555.642 4.361.406c0 0-.372 2.536-2.333 2.299s-2.028-2.705-2.028-2.705z" class="E"/><path d="M276.031 163.708c.962-1.735 3.079-2.411 4.988-2.239.83.12.744 1.371-.088 1.381-1.404.03-3.114.473-4.231 1.251-.298.324-.838.023-.669-.393h0zm9.845.234c-.618-.489-.855-1.001-1.601-1.161-.202-.061-.455-.094-.69-.157-.373-.094-.6-.472-.506-.845a.7.7 0 0 1 .637-.526c1.24-.153 2.649.881 2.752 2.186.141.372-.252.737-.592.503h0z" fill="#0f0606"/><path d="M280.441 166.593c-.024.518-.348.924-.723.907s-.66-.452-.636-.97.348-.924.723-.907.66.452.636.97zm5.66-.351c-.024.518-.348.924-.723.907s-.66-.452-.636-.97.348-.924.723-.907.66.452.636.97zm-69.223 169.964c-.1 0-.185-.077-.193-.179l-.307-3.719c-.012-.107.064-.203.171-.215s.202.063.215.17l.308 3.732c.009.106-.071.2-.178.209zm-1.974-11.693c-.046 0-.093-.017-.13-.051-.079-.072-.085-.194-.013-.273l4.333-4.894c.031-.078.106-.119.2-.121.106.012.184.107.173.214-.008.081-.022.218-4.418 5.061a.2.2 0 0 1-.145.064zm66.755 44.347c-.07 0-.137-.038-.172-.105l-3.132-5.99c-.05-.095-.013-.212.082-.262s.211-.013.262.082l3.132 5.99c.05.095.013.212-.082.262-.029.016-.06.023-.09.023zm11.592 2.366c-.019 0-.039-.003-.058-.009l-2.918-.912c-.102-.032-.159-.142-.127-.243s.138-.16.243-.128l2.918.912c.102.032.159.142.127.243-.026.083-.102.137-.185.137zm-6.93-11.062c-.07 0-.137-.038-.172-.104-.493-.941-2.022-.933-2.888-.843l-.088.008c-.107 0-.194-.087-.194-.194s.084-.191.189-.194l.053-.005c1.667-.171 2.827.2 3.272 1.049.05.095.013.212-.082.262-.029.013-.06.021-.09.021zm-61.179-34.572c-.049 0-.098-.019-.136-.056-.076-.075-.077-.198-.002-.274 1.089-1.108-.9-3.828-.92-3.855-.064-.086-.046-.207.041-.272a.19.19 0 0 1 .271.041c.091.122 2.206 3.015.885 4.357-.039.039-.089.059-.139.059zm54.45 26.299c-.107 0-.194-.087-.194-.194v-13.671c0-.107.087-.194.194-.194s.194.087.194.194v13.671c0 .107-.087.194-.194.194z" class="F"/><g class="W"><path d="M276.529 185.12h.08l-3.27 6.71-5.86-6.17 3.82-5.61v.04c0 2.78 2.34 5.03 5.23 5.03z"/><path d="M285.73 186.7l-6.32 5.13-2.801-6.71c2.77-.13 5.021-2.33 5.021-5.03v-.07l4.1 6.68z"/></g><path d="M270.483 153.083v4.884c0-.234.789-.453 2.078-.602 1.36-.172 3.266-.273 5.376-.273 4.126 0 7.462.398 7.462.875v-4.884c0-.477-3.337-.875-7.462-.875-4.118 0-7.454.399-7.454.875z" class="Q"/><path d="M321.086 187.794c-.051 0-.676.212-.717.222-.605.283-1.1.767-1.483 1.312-1.18 1.685-1.322 3.834-1.513 5.822l-.212 1.413c.363-2.866-2.159-10.06 2.099-11.332.646-.192 1.261-.151 1.816.05l.01 2.513z" class="D"/><path d="M270.483 153.083v4.884c0-.234.789-.453 2.078-.602.633-1.985 2.082-4.064 5.376-4.227 4.391-.217 6.894.911 7.462 4.829v-4.884c0-.477-3.337-.875-7.462-.875-4.118 0-7.454.399-7.454.875z" class="U"/><path d="M262.025 173.17a.18.18 0 0 1-.179-.169c-.507-9.13-.869-19.131 1.279-22.222.857-1.234 2.091-1.637 3.388-1.102 1.244.512 2.235 1.791 2.078 2.682-.017.097-.106.166-.207.145s-.162-.11-.145-.207c.113-.643-.692-1.807-1.862-2.288-.663-.273-1.926-.508-2.957.974-2.257 3.25-1.58 15.446-1.216 21.999.006.099-.07.183-.169.189z" class="B"/><path d="M263.244 174.04c-.023.062-.324-.039-.771-.216l-.078-1.109-.295.959-1.482-.663.201-2.081c-.162.369-.909.979-1.559 1.444l-.806-.385c1.988-2.218 3.405-5.733 3.405-5.733s2.421 4.991 1.385 7.784z" class="R"/><path d="M321.086 187.794c-2.896.656-6.63-4.803-8.587-12.381-.101-.383-.192-.777-.283-1.17-1.06-4.712-1.191-9.092-.525-12.089.262-1.221.666-2.21 1.191-2.906.424-.565.928-.928 1.503-1.059 2.18-.494 4.823 2.462 6.831 7.174.807 1.877 1.513 4.046 2.038 6.377 1.848 8.174.879 15.368-2.168 16.054z" class="B"/><g class="G"><path d="M332.813 124.581l.033 4.055c-.626 2.836-.803 5.888-2.415 8.392-1.078 1.635-3.729.668-3.533-1.25.294-2.857 1.977-5.244 3.269-7.735l-.063.285.934-3.946c.232-1.021 1.78-.84 1.775.199h0z"/><path d="M329.019 118.348c.559.621.761 1.493.625 2.317l-2.232 12.76-1.056 4.899a1.34 1.34 0 0 1-1.617.987 1.34 1.34 0 0 1-.987-1.617l2.5-9.637 2.254-9.708c.084-.342.289-.25.513-.001z"/><path d="M331.137 116.921l-.482 6.141-.143 1.698c-.036.349-.054.685-.244 1.022l.144-.318-2.907 11.105c-.482 1.716-3.059 1.01-2.581-.721l3.273-11.003.144-.318c-.107.086-.168.464-.107.171l.336-1.891 1.296-7.26c.146-.929 1.332.433 1.271 1.374h0z"/></g><path d="M303.74 171.145c-2.957 4.642-3.34 12.189-5.217 14.752-1.322 1.826-3.885 1.726-5.742 1.332-.969-1.312-2.149-1.968-3.027-2.29 1.857-1.645 8.063-7.225 13.986-13.794z" class="D"/><g class="G"><path d="M331.86 118.956l-.6 6.743-.173 1.701c-.041.343-.064.674-.25 1.005l.163-.399-1.524 8.47a1.34 1.34 0 1 1-2.626-.532l1.897-8.394.163-.399c-.071.071-.126.232-.126.275l.027-.122.773-4.107 1.064-5.25c.16-.929 1.29.069 1.212 1.009h0z"/><path d="M330.864 133.467c-.02.04-6.609 21.896-9.485 31.432a6.32 6.32 0 0 1-.161.464 14.86 14.86 0 0 1-4.682 6.761l-.626.505-3.411 2.785c-.101-.383-.192-.777-.283-1.17-1.06-4.712-1.191-9.092-.525-12.089l.515-1.241c.01-.03.01-.05.01-.05l.666-1.615 13.531-29.263 4.451 3.481z"/></g><path d="M263.655 207.721c-.091 0-.171-.064-.19-.156l-1.485-7.341c-.021-.105.046-.208.151-.229s.207.046.229.151l1.485 7.342c.021.105-.046.207-.151.229-.013.002-.026.004-.039.004z" class="B"/><path d="M284.962 213.036l-4.831-4.963 8.011-5.759c.815-.586-1.17.52-.774 1.443l3.79.749c.785 1.226-1.626 4.773-2.942 6.67-.573.826-1.178 1.325-2.151 1.576l-1.103.284z" class="G"/><path d="M310.167 180.278c-.091 0-.172-.063-.19-.156-2.78-13.944 1.526-18.852 1.711-19.054.073-.079.194-.085.273-.012s.085.194.013.273c-.044.048-4.354 4.993-1.617 18.716.021.105-.047.208-.152.229-.014.003-.026.004-.038.004zm-17.294 7.266c-.059 0-.117-.026-.155-.077l-.091-.122c-.938-1.27-1.512-1.778-2.364-2.092-.718-.268-1.804-.304-1.815-.305-.107-.003-.191-.093-.188-.2s.108-.188.2-.188c.047.001 1.16.039 1.938.329.922.34 1.563.901 2.541 2.224l.089.119c.064.086.048.208-.038.272a.19.19 0 0 1-.117.04zm5.652-6.27c-.107 0-.194-.087-.194-.194 0-5.021 3.944-8.375 3.983-8.408.082-.068.204-.059.273.024s.058.205-.024.273c-.039.032-3.845 3.274-3.845 8.11.001.108-.086.195-.193.195z" class="B"/><path d="M284.753 184.622l-4.978 6.725-3.166-6.227-3.231 6.356-6.041-5.819c-.027.193 7.018 7.804 7.018 7.804l2.292-5.191 3.669 5.993 4.437-9.641z" fill="#94660c"/><path d="M252.609 269.783a.19.19 0 0 1-.08-.018c-.098-.044-.141-.159-.097-.257.673-1.485 1.567-2.879 2.518-3.926 1.011-1.113 2.103-2.054 3.247-2.797 2.211-1.45 3.871-1.724 3.94-1.734.108-.022.205.056.222.161s-.056.205-.161.222c-.066.011-1.646.271-3.789 1.677-1.116.725-2.183 1.645-3.171 2.733-.925 1.017-1.795 2.375-2.452 3.824-.033.072-.103.115-.177.115z" class="B"/><path d="M287.59 163.23a3.05 3.05 0 0 1-.303-.013c-.106-.011-.184-.107-.172-.213s.107-.185.213-.172c.015.002 1.472.143 1.95-.694.054-.094.173-.125.265-.072s.126.172.072.265c-.456.794-1.504.899-2.025.899z" class="J"/><g class="Q"><ellipse cx="276.491" cy="188.94" rx="1.45" ry="2.009"/><path d="M274.901 193.707c-1.775 2.045-4.844 3.544-5.628 2.864s1.442-4.181 3.217-6.226 3.421-2.253 4.205-1.573-.019 2.89-1.794 4.935z"/><path d="M281.17 191.214c1.815 2.009 3.372 6.29 2.602 6.986s-3.577-2.456-5.392-4.465-2.662-4.202-1.892-4.898 2.867.368 4.682 2.377z"/><path d="M275.202 186.948c1.222.616 1.833 1.867 1.366 2.794s-1.837 1.179-3.058.564-1.833-1.867-1.366-2.794 1.836-1.179 3.058-.564z"/><path d="M277.593 186.752c-1.105.807-1.504 2.141-.891 2.979s2.004.864 3.109.057 1.504-2.141.892-2.979-2.006-.864-3.11-.057z"/></g><path d="M315.909 172.628l-3.411 2.785-.283-1.17c-1.06-4.712-1.191-9.092-.525-12.089l.515-1.241c-.101.585-.999 6.155 1.998 9.899.586.726 1.162 1.322 1.706 1.816z" class="O"/><path d="M327.967 130.989c-.022 0-.046-.004-.068-.013-.1-.038-.151-.15-.113-.25.163-.429 1.023-1.996 1.855-3.511l1.558-2.929c.001-.043.017-.087.047-.122.071-.081.191-.091.274-.021.17.146.17.146-1.539 3.258l-1.832 3.462c-.03.078-.104.126-.182.126z" class="C"/><path d="M286.671 200.064l-1.333 1.482c-1.59 2.343-1.591 6.741-3.298 9.568-.439.811-1.457 1.11-2.266.664-2.051-1.182.222-5.207.851-6.825.78-1.691 1.858-3.708 3.371-4.959l2.603-1.696c.75-.507.953 1.06.072 1.766h0z" class="G"/><path d="M273.019 193.219s4.925-2.896 5.456-5.651c0 0 10.387 18.927 18.598 22.031l-20.695-9.344-3.359-7.036z" fill="#cf9f80"/><path d="M329.361 127.475c-.01 0-.019 0-.028-.002-.106-.016-.18-.115-.163-.221l1.485-9.579c.061-.088.181-.111.271-.05.072.05.1.14.074.219-.073.331-1.067 6.934-1.447 9.467-.015.097-.098.166-.192.166zm-1.454.236c-.01 0-.018 0-.028-.002-.106-.016-.18-.115-.163-.221l1.349-8.686c.063-.088.181-.111.27-.05.072.05.1.141.074.22-.065.287-.816 5.27-1.311 8.574-.013.096-.096.165-.191.165z" class="C"/><path d="M312.66 204.494c-1.796 1.554-4.036 2.603-6.377 3.027-2.412.444-4.813.716-6.418 2.846-1.12 1.483-1.524 3.35-1.554 5.187l.131 1.503s-1.705-9.637.959-12.068c2.664-2.442 6.69 3.41 13.259-.495zm-40.624 101.38c4.884-5.651 6.781-16.498 7.457-21.937-.837 7.205-1.927 13.652-3.047 19.132-1.463 7.185-2.956 12.704-3.965 16.074-3.36-3.693-6.599-7.659-10.313-11.039-.001 0 5.751 2.523 9.868-2.23z" class="D"/><path d="M271.396 189.931c-1.923 1.311-3.032 3.038-2.473 3.857a1.01 1.01 0 0 0 .124.141c7.404 10.878 17.485 16.493 25.711 23.09l.003.008c1.289 1.024 2.52 2.068 3.697 3.168.691.643 1.36 1.304 2.003 1.992l5.699-7.418c-6.803-6.028-21.966-13.626-30.27-25.712-.017-.022-.031-.035-.048-.057-.615-.742-2.572-.335-4.446.931z" class="N"/><path d="M302.374 217.807c-1.507 2.096-2.344 4.072-1.869 4.413s2.082-1.08 3.59-3.176 2.344-4.072 1.869-4.413-2.082 1.081-3.59 3.176z" class="V"/><g class="G"><path d="M294.121 201.756l-3.762.52-1.616.222c-.485.212-.978.468-1.452.807-1.929 1.35-3.634 3.278-5.112 5.115-.967 1.195-2.772-.23-1.822-1.449 1.726-2.001 3.905-4.096 6.096-5.442 1.075-.661 2.32-.977 3.582-.969l5.078.043c.361.006.042 1.146-.992 1.153h0z"/><path d="M292.217 203.862c-1.053-.029-2.11.268-2.992.427-1.092.859-1.933 2.055-2.871 3.126-.001-.001-1.692 2.084-1.696 2.087-.537.661-1.509.762-2.17.225-.674-.546-.763-1.548-.196-2.204 1.83-1.956 3.773-4.014 6.458-4.739 1.324-.14 2.799-.164 4.104-.036 1.476.146.279 1.139-.637 1.114z"/><path d="M294.304 205.048c-1.423.108-2.985.244-4.219.565.104-.057.079-.036.09-.041l-.432.487-3.773 4.448c-1.006 1.148-2.747-.32-1.775-1.506 1.646-1.748 3.114-3.646 5.005-5.171 1.788-.508 4.588.182 6.377.337.781.101-.102 1.247-1.04 1.031l-.233-.15z"/><path d="M293.947 206.23c-1.14.141-1.968.333-3.068.535l-1.101 1.66c-.59.872-1.076 1.808-1.578 2.732-.372.684-.995 1.37-1.831.968-2.29-1.1 2.421-5.643 3.269-6.884.151-.172.363-.273.575-.283 1.443-.091 3.148-.02 4.652.192.798.111-.131.979-.918 1.08z"/><path d="M288.791 209.822c-.01.02-.02.04-.02.061l-.091.121.111-.182zm-3.062 2.371c-.03.02-11.695 12.926-19.414 20.272-1.978 1.877-4.884 1.776-6.761.212a5.05 5.05 0 0 1-1.594-2.401l-1.049-3.36 4.41-3.592 19.495-15.923 4.913 4.792z"/></g><path d="M285.797 204.688c-.045 0-.09-.016-.127-.047-.081-.07-.09-.192-.02-.273.021-.024.544-.62 2.082-1.361.097-.045.213-.006.259.091s.006.212-.09.259c-1.453.7-1.952 1.26-1.957 1.266-.039.042-.093.065-.147.065zm1.206 1.039c-.058 0-.115-.026-.153-.075-.065-.085-.05-.207.035-.272.07-.055 1.735-1.339 3.001-1.676.93-.248 2.609-.209 3.239-.197l.173.003c.107 0 .194.087.194.194s-.087.194-.194.194l-.182-.004c-.556-.012-2.254-.049-3.131.185-1.19.317-2.847 1.595-2.863 1.607-.035.028-.077.041-.119.041zm1.546 1.23c-.054 0-.108-.022-.146-.066-.071-.081-.062-.204.019-.274l1.11-.968c.689-.602 1.57-.935 2.478-.937 1.27-.01 2.727.142 2.741.143.107.011.185.105.174.213s-.101.176-.212.174a31.48 31.48 0 0 0-2.653-.141h-.049c-.815.002-1.605.3-2.224.841l-1.11.968a.2.2 0 0 1-.128.047z" class="C"/><path d="M259.554 232.677a5.05 5.05 0 0 1-1.594-2.401l-1.049-3.36 4.41-3.592c-.153.292-3.291 6.033-1.767 9.353z" class="O"/><path d="M345.486 162.595l21.474 7.742 20.58-7.085-20.724-12.299zm-.032 174.186s-2.954 7.262 29.645 3.884c14.705-1.524 39.125 1.207 43.615-5.208l-42.496-4.166-29.48-5.477-1.284 10.967z" class="B"/><path d="M437.344 373.844c-6.296 1.372-21.442-8.284-21.442-8.284l-2.573-5.762-8.617-19.253-3.855-8.627-.787-1.746 10.726-3.733c.131 0 1.271 3.138 2.815 7.517l1.171 3.32 6.206 17.154c1.171 3.037 3.128 5.701 5.671 7.74 1.463 1.181 3.158 2.573 4.642 3.895 1.049.928 1.998 1.816 2.704 2.573 2.855 3.047 3.339 5.206 3.339 5.206z" class="H"/><path d="M381.996 331.882l-26.087 3.108c-.202-17.83 5.886-101.136 5.886-101.136s8.566 63.377 20.201 98.028z" class="B"/><path d="M414.782 337.276c-2.22 1.695-6.731 2.724-10.07 3.269l-3.855-8.627c2.311.172 9.142.757 12.754 2.038l1.171 3.32z" class="K"/><path d="M372.22 291.77l-1.5 73.33.04.73.49 8.01H345l.46-.56c1.16-1.29 2.7-2.07 4.32-2.41l1.42-.33c1.71-.42 3.92-1.07 6-1.99 3.32-1.49 5.35-4.91 5.2-8.54l-1.02-25.67-.17-4.17-1.53-38.6-.2-5.09-.09-2.06 8.62.54 4.34.27-.13 6.54z" class="H"/><path d="M372.351 285.229l-.131 6.539c-4.551-1.382-10.262-.605-12.543-.202l-.202-5.086 1.584-.434 6.952-1.09 4.34.273z" class="K"/><path d="M391.635 290.191c-12.279-2.29-25.192-1.787-37.794 1.575a1726.98 1726.98 0 0 1 1.214-69.018c8.977-2.782 18.237-3.499 27.101-2.217 2.709 23.136 5.872 46.343 9.479 69.66z" class="E"/><g class="I"><path d="M412.158 225.614l-3.814 8.193-8.516 18.284-25.852-42.865 13.239-7.971 16.811 16.417 8.132 7.942z"/><path d="M418.536 335.621c-4.642 2.735-11.362 2.825-17.921 1.877-.515-.07-1.009-.151-1.503-.232-.05 0-.071-.01-.071-.01-2.321-.393-4.591-.898-6.72-1.443-.535-.131-1.06-.272-1.574-.414-6.468-1.766-11.261-3.774-11.261-3.774-3.37-10.03-6.246-21.917-8.628-33.743-5.853-29.041-8.749-57.728-8.749-57.728l.151 10.585v.091l1.181 80.745a82.03 82.03 0 0 0-4.763.293c-13.047 1.201-13.229 4.914-13.229 4.914 3.915-79.927-.989-140.067-.989-140.067l32.037-.222a12.36 12.36 0 0 1 1.231.051c3.895.303 7.417 2.2 9.818 5.116a14.16 14.16 0 0 1 2.785 5.388l12.855 49.827 1.988 8.012 6.408 26.861v.01c5.41 23.631 9.022 42.652 6.954 43.863z"/><path d="M365.338 210.145l-13.188 9.324-.495-.494c-1.231 1.07-2.523 1.947-3.814 2.613-3.895 2.018-7.74 2.149-9.616.01-.928-1.06-1.16-2.432-1.029-3.794v-.061c.051-.515.151-1.029.293-1.524l.313-.949.091-.252c.676-1.796 1.483-3.713 1.281-5.661-.202-2.058-1.978-3.047-3.693-3.905-1.877-.928-3.552-2.26-5.005-3.774l-.636-.696c-4.732-5.409-5.943-12.099-2.694-14.934 1.433-1.261 3.491-1.554 5.762-1.019l9.546-15.338 4.712 8.325s0 .01.01.02l11.816 20.898 6.346 11.211z"/></g><path d="M358.976 196.613c-.343 3.683-1.201 16.882 2.886 26.538 0 0 4.652-15.469 15.327-26.659l-18.213.121z" class="E"/><path d="M358.991 198.934c-.151.222-.363.404-.615.555-4.046 2.331-8.829-1.203-9.003-9.929-.143-7.156-2.097-11.11-2.198-11.523l11.816 20.897z" class="D"/><path d="M361.88 223.189c-.107 0-.193-.087-.194-.194-.018-10.511 1.257-16.972 3.466-24.58.029-.102.138-.162.24-.132s.162.138.133.241c-2.199 7.575-3.47 14.007-3.45 24.472-.001.105-.088.192-.195.193h0z" class="J"/><path d="M387.548 201.659c-1.594-1.16-3.602-1.039-4.864.747-1.413 1.998-3.229 2.048-3.29 2.048-.303.02.071-5.176.071-5.176l-2.079-2.563.343-.172a14.15 14.15 0 0 1 9.819 5.116z" class="D"/><path d="M370.93 197.67c-.15.31-1.391 2.92-3.976 3.988l-1.754-3.018-2.07 2.48c-1.6-.52-2.14-2.05-2.2-2.24.11.12.78.87 2.17 1.01l1.39-2.74.85-1.68.74 1.68 1.305 3.173c1.64-.37 3.305-2.403 3.545-2.653z" class="J"/><path d="M348.157 198.572l3.447-.709-2.231 1.14 3.433 1.209s2.381-1.959 2.492-1.744l-1.463 2.105 1.536.542.097.035a2.85 2.85 0 0 0 .98.167c1.966 0 4.447-1.814 6.108-4.684 1.862-3.224 2.064-6.678.598-8.2.764-3.071.952-6.303.751-9.367l-5.594-.34c-.924 6.747-5.08 16.128-11.125 19.506l.971.34z" class="S"/><path d="M372.35 181.28v15.87h-6.27l-.74-1.68-.85 1.68h-2.07v-15.87z" class="H"/><path d="M362.424 185.895v3.236c2.778-.497 4.779-1.994 4.958-2.211l-3.259-.768-1.699-.257z" class="K"/><path d="M345.884 222.445c-3.179 1.14-6.095.928-7.659-.848-.928-1.06-1.16-2.432-1.029-3.794 0 .484.252 3.057 3.501 2.311 2.523-.585 3.724-4.066 4.268-6.397l.919 8.728z" class="D"/><g class="S"><path d="M372.098 185.175c2.464 4.909 7.842 7.987 9.857 7.047 2.072-.949-.6-5.638-3.816-10.58-3.271-4.933-5.248-8.273-6.568-7.299-1.263.973-1.992 5.923.527 10.832z"/><path d="M370.951 204.191l1.622-1.769-.528 1.932 3.445.528.419-.636.256.186.101.566h.008l1.847.279v-.008a2.83 2.83 0 0 0 1.373-.101c2.506-.838 3.352-5.067 1.885-9.458-.473-1.412-1.125-2.669-1.878-3.693l-.582-5.54c-.272-1.901-.868-3.794-1.388-5.641.008.062-6.029.528-6.029.528.497 6.471.355 16.71-3.043 22.242l2.492.585zm-15.644-33.898c.055.232.157.452.294.652.602.862 1.944 1.408 3.662 1.562 1.313.127 2.858.013 4.45-.364l.674-.179a10.47 10.47 0 0 0 1.135-.372c3.186-1.166 5.269-3.166 4.866-4.867-.475-2.007-4.231-2.831-8.394-1.846s-7.162 3.408-6.687 5.414z"/><path d="M353.066 172.821c.823.691 2.056 1.288 3.499 1.653 2.878.722 5.478.209 5.819-1.148.031-.109.039-.217.039-.334-.016-.621-.481-1.288-1.257-1.885-.822-.636-2.002-1.195-3.367-1.536a10.46 10.46 0 0 0-2.041-.31c-1.979-.109-3.523.434-3.771 1.459-.17.674.257 1.426 1.079 2.101z"/></g><path d="M353.066 172.821c.823.691 2.056 1.288 3.499 1.653 2.878.722 5.478.209 5.819-1.148.031-.109.039-.217.039-.334.326-.016.644-.054.954-.124l1.055-3.569c-.078.031-1.335.931-3.267 1.808-.838.388-1.792.768-2.84 1.078-1.604.473-3.412.776-5.259.636z" opacity=".5" class="X"/><path d="M359.971 172.635c-3.538 4.299-3.476 10.194.138 13.168s9.411 1.899 12.948-2.399 3.476-10.194-.138-13.168-9.411-1.9-12.948 2.399z" class="H"/><g class="S"><path d="M376.7 171.588c.054.194.14.372.256.535 1.024 1.513 3.988 1.288 6.65-.489.031-.015.07-.039.101-.062 2.685-1.831 4.019-4.555 2.98-6.075-.846-1.241-3.011-1.319-5.237-.303-.504.217-1.016.504-1.513.846-1.467 1.001-2.529 2.266-3.018 3.453-.32.76-.405 1.49-.219 2.095z"/><path d="M375.746 171.246c.085.062.171.116.264.163a1.92 1.92 0 0 0 .691.178c.714.054 1.513-.272 2.25-.877.667-.551 1.288-1.335 1.761-2.281.559-1.117.799-2.266.737-3.235-.047-1.079-.458-1.948-1.21-2.32-1.435-.706-3.538.628-4.71 2.979-1.087 2.204-.978 4.524.217 5.393z"/></g><path d="M375.653 168.166l.093 3.08c.085.062.171.116.264.163a1.92 1.92 0 0 0 .691.178c.054.194.14.372.256.535 1.024 1.513 3.988 1.288 6.65-.489-1.947-.008-3.476-.403-4.655-.923-.853-.372-1.521-.807-2.033-1.218-.824-.666-1.212-1.248-1.266-1.326z" opacity=".5" class="X"/><path d="M367.115 164.614c-2.177 2.786-.667 8.027 3.214 12.283 3.825 4.272 8.422 4.564 10.249 2.976 1.793-1.486-.656-5.51-4.027-11.063-3.458-5.597-7.244-7.289-9.436-4.196z" class="S"/><path d="M370.896 182.748c0 1.88 1.618 3.403 3.613 3.403s3.613-1.524 3.613-3.403-1.618-3.403-3.613-3.403-3.613 1.524-3.613 3.403z" class="H"/><path d="M363.193 179.042a.19.19 0 0 1-.135-.055l-.542-.526c-.316-.306-.379-.784-.152-1.161l1.028-1.713c.056-.093.174-.122.266-.067s.122.174.066.266l-1.028 1.713a.55.55 0 0 0 .09.683l.542.526c.077.075.079.197.005.274-.038.041-.089.06-.14.06zm11.416 5.769c-.046 0-.088-.002-.124-.007-.107-.013-.182-.11-.168-.217s.1-.185.217-.168c.238.032 1.046-.098 1.513-.581.274-.283.379-.639.311-1.059-.209-1.307-1.305-1.304-1.801-1.303l-.048-.194.046-.194c.52-.019 1.923-.009 2.186 1.629.087.54-.057 1.02-.415 1.391-.502.519-1.303.703-1.717.703zm-.099-3.529v-.194.194z" class="C"/><path d="M369.526 176.031c-1.244-.633-2.393-1.198-3.473-2.1-.204-.161-.241-.465-.055-.655 1.26-.668 2.741.214 3.547 1.175.262.383 1.022 1.298.321 1.622-.12.037-.234.007-.34-.042h0zm-6.604-3.659c-.993.11-1.86.097-2.897.017-.229-.027-.393-.234-.366-.463.269-.664 1.198-.805 1.842-.867.541-.051 2.274.37 1.78 1.168-.09.107-.233.126-.359.145h0z" fill="#d68341"/><path d="M378.123 167.821c-.036 0-.072-.01-.104-.03-.09-.058-.116-.178-.059-.268.022-.035 2.338-3.574 6.511-2.99.106.015.181.113.166.219a.19.19 0 0 1-.219.165c-3.934-.544-6.109 2.782-6.132 2.815a.19.19 0 0 1-.163.089zm-11.656 2.003c-.094 0-.176-.067-.191-.163-.462-2.836-.173-4.8.861-5.838.899-.903 2.016-.738 2.061-.729.105.017.178.116.161.221s-.11.178-.222.162c-.041-.007-.974-.14-1.73.625-.924.933-1.182 2.834-.748 5.497.018.106-.055.206-.16.223-.012.002-.022.002-.032.002zm-8.176 2.121c-.419 0-2.118-.064-2.833-1.069-.389-.547-.416-1.266-.08-2.136.038-.1.152-.149.25-.111s.15.151.111.251c-.285.741-.273 1.337.035 1.771.679.958 2.577.907 2.596.905.111 0 .197.083.2.188s-.08.197-.187.2l-.092.001zm21.418 20.219c-.061 0-.121-.029-.159-.083a19.79 19.79 0 0 0-1.219-1.536c-.886-1.041-1.651-1.939-1.972-3.556-.021-.105.048-.207.152-.228s.207.047.229.153c.3 1.517 1 2.339 1.887 3.38l1.241 1.565c.061.088.04.208-.048.27-.034.023-.072.035-.111.035zm-29.73 6.893c-.075 0-.147-.044-.179-.118-.042-.099.005-.212.103-.254 3.966-1.676 7.357-6.058 7.52-6.374a.2.2 0 0 1 .257-.091c.095.045.14.151.099.248-.108.253-3.561 4.815-7.725 6.575a.22.22 0 0 1-.075.014zm4.023 1.58c-.05 0-.1-.019-.138-.057-.075-.076-.075-.199.001-.274 1.203-1.199 2.25-3.487 2.381-3.938.029-.102.14-.161.24-.132s.162.138.133.241c-.137.471-1.229 2.857-2.48 4.104-.038.038-.087.056-.137.056zm16.928 3.547c-.061 0-.121-.029-.159-.083-.061-.088-.04-.209.048-.271 2.343-1.64 3.577-6.582 3.506-7.067-.042-.099.008-.201.107-.243s.217.017.258.114c.18.425-1.057 5.702-3.648 7.515-.035.023-.074.035-.112.035zm4.559.687a.19.19 0 0 1-.135-.056c-.077-.074-.079-.197-.004-.273.677-.697 1.633-2.262 2.338-5.754l.044-.206c.027-.104.129-.168.238-.136.103.028.164.134.137.238-.007.025-.019.087-.038.182-.581 2.878-1.402 4.879-2.441 5.946a.19.19 0 0 1-.139.059z" class="X"/><path d="M365.439 180.063c.06.077-3.696-.231-3.696-.231s.73 1.46 1.907 1.563 1.789-1.332 1.789-1.332zm2.97.747a3.79 3.79 0 0 1-3.785-3.785 3.79 3.79 0 0 1 3.785-3.785 3.79 3.79 0 0 1 3.785 3.785 3.79 3.79 0 0 1-3.785 3.785zm0-7.182a3.4 3.4 0 0 0-3.397 3.397 3.4 3.4 0 0 0 3.397 3.397 3.4 3.4 0 0 0 3.396-3.397 3.4 3.4 0 0 0-3.396-3.397zm-9.56 4.828a3.79 3.79 0 0 1-3.785-3.785 3.79 3.79 0 0 1 3.785-3.785 3.79 3.79 0 0 1 3.785 3.785 3.79 3.79 0 0 1-3.785 3.785zm0-7.181a3.4 3.4 0 0 0-3.397 3.397 3.4 3.4 0 0 0 3.397 3.397 3.4 3.4 0 0 0 3.396-3.397 3.4 3.4 0 0 0-3.396-3.397z" class="E"/><path d="M361.357 175.323c-.076 0-.148-.045-.18-.12-.179-.434-.427-.688-.736-.753-.578-.125-1.322.435-1.557.66-.078.073-.2.071-.274-.005s-.072-.2.005-.274c.041-.04.999-.95 1.906-.761.442.093.784.425 1.016.986.04.099-.007.212-.105.253a.2.2 0 0 1-.075.014zm7.478 1.875c-.068 0-.135-.037-.17-.101-.006-.01-.57-1.03-1.285-1.102-.317-.03-.627.134-.93.495-.068.081-.192.093-.273.023s-.093-.191-.023-.273c.391-.465.823-.678 1.267-.631.919.093 1.559 1.253 1.586 1.302.051.094.016.212-.078.263-.031.016-.063.024-.094.024z" class="F"/><path d="M364.76 176.796l-2.561-.814.117-.37 2.561.814zm10.178 2.539c-.008 0-.016-.001-.023-.002l-3.365-.415c-.106-.013-.183-.11-.169-.216s.111-.184.216-.168l3.365.415c.107.013.183.11.169.216-.013.098-.097.17-.193.17zm-19.68-4.959c-.106 0-.193-.087-.194-.193s.087-.194.193-.194l3.42-.009c.108 0 .194.086.195.193s-.087.194-.193.194l-3.421.009z" class="E"/><path d="M326.99 194.537c2.631 1.377 7.64-2.94 11.478-9.762.196-.345.385-.702.574-1.059 2.234-4.282 3.485-8.481 3.61-11.549.06-1.247-.076-2.307-.405-3.114-.264-.655-.659-1.135-1.181-1.41-1.98-1.037-5.294 1.141-8.444 5.18-1.262 1.607-2.502 3.522-3.607 5.64-3.883 7.427-4.794 14.629-2.025 16.074z" class="B"/><g class="H"><path d="M330.647 127.295l1.047 3.468c.959 1.931 2.72 5.056 2.839 7.723.059 1.087-.792 2.016-1.882 2.046-3.174-.061-3.149-6.93-3.669-9.257l-.271-5.018c-.091-1.055 1.293-1.101 1.936 1.038h0zm90.663 57.252c.763.522 1.239 1.371 1.364 2.287l.497 3.599c.375 2.724 4.178 4.945 3.52 7.68-.45 1.963-6.359 2.534-6.827.603-.637-2.756-.065-6.046.331-8.786l.421-5.283c.042-.411.343-.34.694-.1z"/><path d="M334.595 122.707c.619 4.464 1.047 8.566 1.851 12.997l.684 4.44a1.34 1.34 0 1 1-2.655.368c-.83-5.99-1.198-12.024-1.301-18.066-.02-.924 1.021-1.979 1.145-1.058l.276 1.319z"/><path d="M334.4 128.031l2.116 10.74c.282 1.733-2.297 2.205-2.638.472l-1.776-11.151.076-9.076c0-1.846 1.121-2.477 1.198-1.553-.002 0 .805 7.449 1.024 10.568z"/><path d="M332.481 121.247l.619 8.932.005.031c-.002-.02.008.06-.005-.041-.019-.121-.066-.246-.13-.349l.142.406 1.464 8.48c.272 1.773-2.386 2.183-2.65.397l-1.087-8.537.142.406c-.069-.128-.121-.277-.145-.424-.035-.247-.015-.492-.017-.736l.348-8.341c-.027-1.513 1.259-2.459 1.293-1.513l.021 1.289z"/><path d="M331.486 139.52c.008.037 2.061 27.317 2.74 36.344.142 1.885.709 3.711 1.66 5.344h0l2.581 3.567c2.594-4.642 4.048-9.287 4.184-12.607l-.179-1.332c-.002-.032.003-.051.003-.051l-.229-1.731-5.566-31.756-5.194 2.222z"/></g><path d="M339.523 190.082c-.031 0-.063-.007-.091-.022-.095-.05-.131-.168-.08-.263 7.124-13.388 3.386-18.969 3.348-19.024-.063-.088-.041-.209.047-.271s.208-.042.27.047c.164.232 3.914 5.833-3.322 19.43-.036.066-.103.103-.172.103z" class="B"/><path d="M335.886 181.208l2.581 3.567.574-1.059c2.234-4.282 3.485-8.481 3.61-11.549l-.179-1.332c-.053.592-.615 6.205-4.472 9.054a15.76 15.76 0 0 1-2.114 1.319z" class="K"/><path d="M333.724 133.703c-.082 0-.158-.052-.185-.135-.144-.445-1.095-2.112-1.859-3.452-1.349-2.362-1.349-2.362-1.166-2.503.084-.064.206-.05.271.036.027.034.04.075.041.115.076.209.667 1.244 1.19 2.16l1.892 3.526c.033.102-.023.211-.125.244-.019.006-.04.009-.059.009zm-1.211-3.581c-.107 0-.193-.087-.194-.193l-.05-9.935a.19.19 0 0 1 .091-.201c.091-.056.211-.027.266.066.037.062.065.106.082 10.069-.001.107-.088.194-.195.194h0z" class="C"/><path d="M417.377 240.671c4.046 5.811.294 16.268.294 16.268-4.177 3.46-14.091 3.031-18-4.023-3.431-6.193-2.598-13.731 2.02-16.946s11.64-1.11 15.686 4.701z" class="I"/><path d="M334.318 130.432c-.102 0-.187-.079-.193-.181l-.585-8.895c-.007-.107.074-.199.181-.206.103-.021.198.074.206.181l.585 8.895c.007.107-.073.199-.181.206z" class="C"/><path d="M338.33 214.05l-.131.273.131-.273z" class="I"/><path d="M405.176 264.886c-8.365-.827-11.987-10.514-11.433-15.136.206-1.695.283-3.202.291-4.471.014-2.204-1.177-4.288-3.134-5.302-3.731-1.933-3.934-6.163-3.867-10.559.02-1.867-.283-3.027-.706-3.754 1.836.202 3.925 1.322 3.471 5.459-.767 7.124.757 9.768 5.691 9.768 5.126 0 1.655 11.271 7.699 15.984l1.988 8.011z" class="D"/><path d="M419.307 254.705c-.232.605-.505 1.12-.837 1.514-.414.515-.898.858-1.453.989-3.28.787-7.699-5.873-9.869-14.884-.363-1.483-.636-2.947-.827-4.349-.848-6.054-.192-11.059 1.715-12.805.151-.131.303-.242.464-.343a2.25 2.25 0 0 1 .626-.252c2.25-.545 5.045 2.432 7.285 7.275 1.009 2.2 1.917 4.793 2.593 7.608a12.27 12.27 0 0 1 .141.605 46.44 46.44 0 0 1 .616 3.259c.717 4.733.535 8.87-.454 11.383z" class="B"/><path d="M365.34 195.47l-2.28 4.62c-1.18-.09-2.14-1.23-2.14-1.23l1.48-6.36a2.9 2.9 0 0 0 .26 1.19c.46.99 1.46 1.61 2.68 1.78z" class="E"/><path d="M412.158 225.614l-3.814 8.193-2.351.686s-.394-3.078-2.23-2.845-1.725 1.685-1.725 1.685-3.421-7.316-.666-13.42c.646-1.413 1.584-2.089 2.654-2.24l8.132 7.941z" class="D"/><path d="M371.52 191.97s-.09 4.59-.96 6.11c-.47.82-3.18 2.01-3.18 2.01l-2.04-4.62c1.01.14 2.16-.03 3.26-.54 1.44-.67 2.48-1.78 2.91-2.96h.01z" class="E"/><path d="M406.646 258.402c-.013 0-.025-.002-.038-.004-6.767-1.35-7.469-6.992-8.032-11.526-.402-3.233-.721-5.787-3.087-5.787-2.186 0-3.656-.505-4.629-1.588-1.333-1.484-1.72-4.073-1.254-8.395.438-3.987-1.554-5.054-3.301-5.246-1.27-.149-2.418.152-2.43.156-.1.024-.21-.032-.238-.137s.033-.21.137-.238c.049-.014 1.234-.329 2.576-.166 1.921.211 4.113 1.367 3.641 5.673-.452 4.201-.096 6.697 1.158 8.093.894.996 2.272 1.459 4.34 1.459 2.709 0 3.063 2.84 3.472 6.128.549 4.41 1.231 9.898 7.724 11.193.104.021.173.123.152.228-.019.093-.101.157-.191.157zm-60.52-32.12c-.103 0-.188-.08-.193-.184l-.242-3.638-.918-8.719-.724-4.817-.176-1.201c0-.107.087-.194.194-.194s.194.087.194.194c0 .08.075.548.171 1.139l.725 4.828.92 8.74.242 3.646c.007.106-.075.198-.183.204zm55.822 11.689c-.034 0-.068-.009-.1-.028-.077-.046-.105-.125-.121-.189-.227-.911.064-8.673 1.971-11.836 1.207-2.002 2.886-3.115 4.582-3.025 1.844.087 3.55 1.571 4.804 4.18.047.097.006.212-.091.259s-.212.006-.259-.091c-1.189-2.474-2.778-3.88-4.473-3.96-1.561-.095-3.101.961-4.231 2.839-1.897 3.148-2.137 10.869-1.927 11.542.046.061.053.146.011.216-.036.058-.1.093-.166.093zm-38.851 10.552c-.097 0-.181-.072-.192-.171-.963-8.046-1.234-25.027-1.237-25.198-.001-.107.084-.195.191-.197.087.002.195.084.197.191.002.17.273 17.132 1.233 25.157.013.106-.063.203-.169.216-.008.002-.015.002-.023.002z" class="B"/><path d="M374.991 160.962v5.581c0-.268-.902-.518-2.375-.688-1.554-.196-3.733-.313-6.144-.313-4.715 0-8.528.456-8.528 1v-5.581c0-.545 3.813-1 8.528-1 4.706.001 8.519.456 8.519 1.001z" class="Q"/><path d="M374.991 160.962v5.581c0-.268-.902-.518-2.375-.688-.723-2.268-2.379-4.645-6.144-4.831-5.019-.249-7.879 1.041-8.528 5.519v-5.581c0-.545 3.813-1 8.528-1 4.706 0 8.519.455 8.519 1z" class="U"/><path d="M381.085 180.333c-.124-.006-.211-.103-.204-.216.415-7.489 1.188-21.429-1.39-25.14-1.178-1.695-2.625-1.425-3.38-1.114-1.337.551-2.257 1.881-2.128 2.615.021.111-.055.218-.166.237s-.218-.055-.236-.166c-.18-1.018.952-2.479 2.374-3.065 1.48-.61 2.893-.151 3.872 1.259 2.453 3.531 2.041 14.96 1.462 25.396-.006.11-.096.194-.204.194z" class="B"/><path d="M379.692 181.327c.027.07.37-.044.881-.247l.089-1.267.337 1.096 1.693-.758-.229-2.378c.185.421 1.039 1.119 1.781 1.65l.921-.439c-2.272-2.535-3.891-6.552-3.891-6.552s-2.766 5.703-1.582 8.895z" class="R"/><path d="M371.256 373.844H345l.464-.565c1.16-1.292 2.704-2.069 4.319-2.412l1.423-.323s6.074 1.645 9.959.484c3.421-1.019 6.397-4.531 9.596-5.197l.495 8.013zm66.093 0c-6.297 1.372-21.443-8.284-21.443-8.284l-2.573-5.762s1.265-.684 4.626 3.342 11.908 7.277 13.816 5.913c.751-.537-.471-2.989-.471-2.989 1.049.928 1.998 1.816 2.704 2.573 2.857 3.048 3.341 5.207 3.341 5.207z" fill="#a14628"/><path d="M426.406 197.602c0 .01-.01.03-.01.04 0 0 0 .01-.01.02l-.615 2.099-5.913 20.272-3.451 11.816-.888 3.007c-.474 1.735-1.665 2.724-3.179 3.199-1.776.575-4.006.414-6.024-.081-.848-6.054-.192-11.059 1.715-12.805l.242.242a4.59 4.59 0 0 1 .131-.333l.091-.252 1.746-4.521 9.344-24.177.283-.737 3.098 1.049.908.303 2.502.848.03.011z" class="H"/><path d="M445.457 208.187c-1.11 5.832-.212 11.634.131 17.477.151 2.563-.656 5.257-1.645 7.709l-.404.989c-1.816 4.288-.928 6.024.121 7.427l.03.03.464.605.01.01v.01c.313.394.595.787.797 1.241.686 1.534.504 3.229.071 4.652 0 0-.01.01-.01.02-.525 1.756-1.413 3.098-1.493 3.249l-23.118 4.995c.353-.252 3.37-3.633 3.966-5.237l.262-.727c.394-1.231.767-3.229-.817-5.176a6.99 6.99 0 0 0-.989-.989c-2.432-2.008-1.897-5.237-.494-7.608.797-1.342 1.736-2.694 2.18-4.178.081-.262.151-.545.192-.817.01-.03.01-.04.01-.04.081-.494.091-.999.03-1.524-.202-1.675-.888-3.178-1.615-4.672-.484-.999-.979-1.998-1.372-3.037-1.867-4.965-1.645-11.019-.979-16.205.222-1.715.535-3.441.948-5.136.01-.03.01-.05.01-.061.605-2.492 1.403-4.944 2.412-7.285.04-.111.656-1.544.706-1.544l6.619 2.533.323.121 16.074 6.165c-.482-.181-2.299 6.368-2.42 7.003z" class="N"/><path d="M421.847 213.386c-1.048 5.882.634 10.139 1.29 12.248-.484-.999-.979-1.998-1.372-3.037-1.867-4.965-1.645-11.019-.979-16.205.222-1.715.535-3.441.948-5.136.01-.03.01-.05.01-.061.605-2.492 1.403-4.944 2.412-7.285.04-.111.656-1.544.706-1.544l6.619 2.533.323.121c1.959 10.291-8.094 7.915-9.957 18.366z" fill="#dec2ad"/><g class="H"><path d="M430.711 197.218c.1.517-.137 1.011-.565 1.264-1.607.948-5.841 1.521-6.121 1.552-.587.065-.323-.997.52-1.61.9-.656 2.255-.682 3.581-1.516l-.772-2.989-.331.566-1.183-3.469c.035-.045.06-.098.095-.143 1.007-1.305 3.257-.823 3.633.759.021.18 1.123 5.416 1.143 5.586z"/><path d="M432.727 197.686c.106.475-.125.939-.514 1.177-1.502.895-3.247 1.523-5.411 2.311-.516.192-.4-1.264.174-1.656l3.33-2.122-.606-2.256-.142-.522-.913-3.247c1.038-.689 2.66-.185 2.97 1.089.009.072 1.104 5.156 1.112 5.226z"/><path d="M433.742 197.853c.086.396-.102.784-.435.985-1.254.754-3.678 1.837-4.917 2.366-.427.171-.115-1.257.586-1.784.982-.733 1.707-1.142 2.738-1.799l-.392-1.458-.233-.877c.001.01-.009.011-.008.021l-.781-2.713c.863-.618 2.242-.198 2.51.888.018.15.926 4.321.932 4.371z"/></g><path d="M363.44 331.57s-1.39 1.23-2.06 2.77l-.17-4.17 2.23 1.4z" class="K"/><path d="M426.473 199.932c-.087 0-.166-.059-.188-.147-.025-.104.038-.209.142-.235.031-.007 3.122-.775 3.837-1.247.607-.401.185-1.456.18-1.467l-1.456-5.932c-.025-.104.038-.209.143-.235s.209.039.234.142l1.447 5.905c.014.028.54 1.334-.335 1.911-.77.507-3.826 1.267-3.956 1.299a.21.21 0 0 1-.048.006z" class="C"/><path d="M428.796 196.278a1.26 1.26 0 0 1-.45 1.393c-1.582 1.18-5.968 2.267-6.258 2.331-.61.135-.453-1.011.362-1.753.871-.792 2.293-.975 3.592-2.003l-.756-2.162c-.361-.765-.969-.707-1.329.242l-1.177-3.808c.032-.051.237-.316.269-.367.91-1.487 3.331-1.238 3.906.382.043.189 1.801 5.568 1.841 5.745z" class="H"/><path d="M423.256 200.035c-.085 0-.164-.053-.193-.138-.038-.107.019-.224.126-.261 1.267-.44 4.682-1.688 5.26-2.166.596-.493.028-1.552.022-1.563l-2.209-6.071c-.039-.107.016-.225.122-.263s.224.016.263.122l2.196 6.044c.018.027.721 1.341-.133 2.047-.753.623-5.198 2.172-5.387 2.237-.022.008-.045.012-.067.012zm5.874.363c-.077 0-.15-.046-.181-.123-.039-.1.01-.212.109-.251l3.257-1.405c.214-.188.421-.745.252-1.304-.129-.423-.626-2.5-.955-3.875l-.303-1.249c-.05-.095-.007-.197.088-.247s.218.001.268.096c.019.035.019.035.323 1.31l.949 3.852c.208.686-.023 1.408-.367 1.709-.279.244-2.856 1.27-3.37 1.473a.19.19 0 0 1-.07.014z" class="C"/><path d="M340.573 211.598c-1.83 1.554-2.227 2.452-2.681 3.411.676-1.786 1.483-3.703 1.281-5.651-.202-2.058-1.978-3.047-3.693-3.905-1.877-.928-3.552-2.26-5.005-3.774.252.252 3.713 2.765 8.173 3.199 4.451.444 3.973 4.981 1.925 6.72zm22.868 119.977l-4.763.293c-.182-.737 3.582-81.128 3.582-81.128v.091l1.181 80.744zm55.095 4.046c-4.642 2.735-11.362 2.825-17.921 1.877 3.189.303 10.282-.02 12.29-8.365 2.624-10.878-1.322-37.365-1.322-37.365 5.409 23.621 9.021 42.642 6.953 43.853zm-27.79-.222c-6.468-1.766-11.261-3.774-11.261-3.774-3.37-10.03-6.246-21.917-8.628-33.743v-.03c.001 0 7.226 33.026 19.889 37.547z" class="D"/><path d="M443.661 241.789c-.565-.464-1.705-.989-4.006-.868-3.996.212-16.912 1.261-15.812 4.178l-.02.363a6.99 6.99 0 0 0-.989-.989c-2.432-2.008-1.897-5.237-.494-7.608.797-1.342 1.736-2.694 2.18-4.178-.172 1.039-.182 2.714 1.332 3.239 2.26.787 16.397-.333 18.092-2.553l-.404.989c-1.816 4.289-.928 6.024.121 7.427zm1.362 6.569c-.525 1.756-1.413 3.098-1.493 3.249l-23.118 4.995c.353-.252 3.37-3.633 3.966-5.237l.262-.727c-.151.706-.161 1.998 1.776 1.988 2.473-.02 17.124-1.806 18.607-4.268zm-1.27-40.039c-.008 0-.016-.001-.023-.002l-19.058-3.549c-.068-.012-.114-.077-.103-.146s.077-.125.146-.103l19.062 3.549c.069.014.113.079.101.147-.013.062-.065.104-.125.104zm.089 3.861c-.007 0-.014 0-.021-.002l-20.389-3.5c-.068-.012-.114-.077-.103-.146s.066-.121.146-.102l20.389 3.5c.068.012.114.077.102.145-.011.062-.064.105-.124.105zm-1.343 2.498l-19.551-2.063c-.068-.007-.119-.069-.111-.139.007-.064.061-.112.125-.112l19.551 2.063c.068.007.119.069.111.139-.007.064-.061.112-.125.112zm-9.855 6.776a140.72 140.72 0 0 1-7.642-.206c-.069-.004-.123-.063-.119-.133s.061-.117.133-.119c5.658.308 11.401.27 17.068-.108.066-.005.13.048.135.117s-.048.13-.117.135a141.86 141.86 0 0 1-9.458.314zm-6.607 5.276c-.069 0-.126-.056-.126-.125s.056-.127.125-.127a154.67 154.67 0 0 0 15.006-.86c.077-.001.132.047.139.111s-.042.132-.111.139a154.91 154.91 0 0 1-15.033.862h0zm7.192 5.181c-2.199 0-4.395-.053-6.58-.157-.069-.003-.123-.063-.12-.132s.059-.111.132-.12a138.24 138.24 0 0 0 15.833-.154c.061-.007.13.048.135.117s-.048.13-.117.135a138.59 138.59 0 0 1-9.283.311zm-6.666 13.931c-.063 0-.117-.047-.125-.11-.009-.069.04-.133.109-.141l16.15-1.98c.078-.014.132.041.141.109s-.04.133-.109.141l-16.15 1.98zm2.666 3.116c-.061 0-.114-.044-.125-.106-.011-.068.036-.133.105-.145l6.695-.753c.064-.007.13.048.135.117s-.048.13-.117.135l-6.674.751z" fill="#dec2ad"/><path d="M412.34 238.055c-1.776.575-4.006.414-6.024-.081-.848-6.054-.192-11.059 1.715-12.805l.242.242a4.59 4.59 0 0 1 .131-.333c-.333.999-1.909 4.045-1.247 8.44.622 4.122 2.963 4.931 5.183 4.537z" class="K"/><path d="M438.646 152.74c-5.873 7.235-12.179 11.836-14.086 10.282-.333-.273-.515-.717-.545-1.292-.172-2.755 2.866-8.648 7.709-14.611 5.792-7.154 12.038-11.725 14.016-10.333.03.02.051.03.071.051 1.917 1.544-1.292 8.668-7.165 15.903z" class="B"/><path d="M465.55 153.131l-12.91 14.77-7.14-6.98-5.16-4.98-3.84-3.74-.59-.56c-3.86-3.75-6.38-8.77-7.22-14.07-2.06-10.32-3.08-21.81-5.04-32.3l-.93-.63c-1.84-1.29-2.66-4.15-3.09-6.36l-.78-2.96s2.21.59 2.39.49c.18-.11 3.54-8.85 4.88-7.63.89.8 1.74 2.2 2.42 3.01.36.43 1.05.3 1.24-.23l1.88-5.25c.89-2.55 2.53-2 2.71-1.96s-.6 6.44-.14 8.67c.79 3.9.79 6.48.58 8.08-.27 2.1-.04 4.25.59 6.28 2.95 9.59 6.3 18.06 9.19 28.01.26 1 .74 1.92 1.38 2.72a7.39 7.39 0 0 0 1.34 1.34l4.35 3.41 13.89 10.87z" class="C"/><path d="M539.279 311.343c-.817-2.563-14.49-7.195-31.382-10.827-3.804-.817-7.77-1.584-11.786-2.27-21.856-3.723-36.467.777-37.365 5.933-1.191-21.362-3.754-70.644-4.117-110.139-.171-18.052.111-34.066 1.191-44.419l2.755.484 7.386 1.292 14.752 2.583.192.03 21.937 3.834 5.156.898c10.787 1.887 18.95 10.797 19.898 21.705l3.693 42.451 7.69 88.445z" class="I"/><path d="M539.279 311.343c-.817-2.563-6.958-2.08-23.849-5.713.646-3.39-7.001-10.908-4.455-31.024 4.754-37.552 2.442-59.598 2.442-59.598l18.173 7.891 7.689 88.444z" class="D"/><path d="M543.407 259.809c-.01.01-.02.01-.03.02-2.341 1.463-7.124 2.936-12.744 3.784-8.173 1.241-15.045.686-15.327-1.231-.293-1.917 6.105-4.47 14.278-5.711 8.173-1.231 15.035-.676 15.328 1.241.089.585-.456 1.241-1.505 1.897z" class="B"/><path d="M543.39 260.281l-3.41.48c-.21 1.27-1.28 2.46-1.49 1.46-.26-1.21-.76-1.45-2.12-.61-1.09.68-1.7 2.72-1.74 2.87-.09 2.27-.33 5.18-.82 6.24-.87 1.86-2.15 1.8-2.15 1.8s.62-3.83-.84-9.3c-.33-1.21-.53-2.28-.64-3.21-.33-2.76.1-4.31.29-4.72l8.27-3.67 1.76-.78 1.76 5.75 1.13 3.69z" class="C"/><path d="M551.096 267.079l-.04-.003-.001.01c-10.627-1.433-20.734 8.702-27.728 15.281l-.331-.203c.086-.086.164-.202.232-.309-2.925-1.568-5.86-3.137-8.734-5.51.623-.901 1.424-1.589 2.244-2.256 8.992-7.182 21.311-15.824 33.752-15.259.721-.056 1.438 1.748 1.608 4.034.171 2.277-.281 4.169-1.002 4.215z" class="N"/><path d="M451.66 142.261l-3.78 18.59-2.38.07-5.16-4.98-3.84-3.74-.59-.56c2.07-.9 4.8-2.81 7.23-6.62 2.67-4.17 2.93-6.48 2.83-7.51a7.39 7.39 0 0 0 1.34 1.34l4.35 3.41z" class="Y"/><path d="M541.41 268.69c-1.32 1.47-4.413 3.955-4.413 3.955s-2.054.523-2.934.323l2.097-1.808s2.278-2.557 2.99-4.2c.11-.15.19-.34.18-.53l-1.73-7.92a2.05 2.05 0 1 1 3.97-1.05l.34 4.7.29 3.18c.2.94-.08 2.51-.79 3.35z" class="C"/><path d="M542.26 256.591s-2.33-.47-6.65.6c-2.39.59-4.25 1.83-5.43 2.82-.33-2.76.1-4.31.29-4.72l8.27-3.67 3.52 4.97z" class="Y"/><path d="M543.06 259.204s1.006 9.028.33 9.54l-2.315 2.89-.074.091a.91.91 0 0 1-.442.321l-4.112 1.861c-1.236.438-.83-1.813.275-2.494l2.527-1.615-.142.17.516-.413-.373.243 2.87-3.479-3.137-6.569c-.481-1.028-.053-2.246.971-2.736 1.111-.541 2.758.996 3.106 2.19z" class="C"/><path d="M535.922 273.156a.19.19 0 0 1-.175-.119c-.038-.097.009-.206.105-.244.017-.007 1.678-.674 3.435-2.325l2.288-3.781c.079-.279.411-3.164.61-5.024.011-.104.122-.179.206-.167.104.011.179.104.167.206l-.643 5.138-2.32 3.846a.17.17 0 0 1-.032.039c-1.819 1.717-3.502 2.392-3.572 2.419-.023.007-.046.012-.069.012z" class="F"/><path d="M539.34 312.16c-.555 2.734-10.02 2.482-26.336 1.695l-14.369-.706h-.05c-5.136-.242-9.869-.535-14.137-.908-15.217-1.302-24.55-3.481-25.63-6.942-.03-.081-.051-.171-.061-.252-.05-.283-.061-.565-.01-.858v-.01l.03-.151c.918-4.077 10.454-7.709 25.348-7.084 3.683.151 7.699.565 11.988 1.302 5.116.868 10.151 1.877 14.863 2.946 14.763 3.36 26.457 7.366 28.132 9.818a1.06 1.06 0 0 1 .172.333c.1.303.12.565.06.817z" class="B"/><path d="M476.809 158.39l-21.947 35.832-.161.262-.071-.444c-.706-4.016-2.694-8.133-4.309-9.697-1.1-1.06-2.472-1.816-3.945-2.058a5.58 5.58 0 0 0-1.231-.111c-.393.01-.797-.02-1.191-.101-.111-.02-.222-.05-.333-.081-.02 0-.03-.01-.051-.02-.091-.02-.182-.051-.283-.081-.01 0-.03-.01-.04-.01a2.66 2.66 0 0 1-.393-.151 4.17 4.17 0 0 1-.424-.202c-.121-.071-.242-.141-.353-.222-2.028-1.271-3.34-3.834-3.501-6.821-.091-1.635-.666-3.209-1.776-4.42l-.081-.091c-.848-.928-2.038-1.463-3.29-1.554-5.096-.373-8.91-2.361-9.414-5.328-.081-.454-.081-.908 0-1.362.03.575.212 1.019.545 1.292 1.907 1.554 8.214-3.047 14.086-10.282s9.082-14.359 7.164-15.903c-.02-.02-.04-.03-.071-.051l.01-.01 6.852 5.025c.02.01.071.05.151.121l13.209 9.475 6.71 4.551 1.039.686c1.262.808 2.473 1.504 3.099 1.756zm67.361 100.89l-.01.01-.07.01c.57-.48.84-.94.77-1.37-.29-1.91-7.15-2.47-15.33-1.24-8.17 1.24-14.57 3.8-14.28 5.71-2.11-8.89 2.16-20.58-1.31-41.85-1.98-12.14 2.29-26.71-3.87-37.27l10.66-18.01c3.09 3.03 6.72 8.57 8.47 12.34 3.75 8.12 6.51 25.6 7.48 30.94 1.6 8.84 3.83 12.33 5.02 21.23.32 2.48.21 4.94.41 7.42.17 1.99-.09 6.54 1.51 10.33 2.29 5.46 2.84 9.74.55 11.75z" class="I"/><path d="M490.453 124.883c.607 2.99-.042 5.645-1.45 5.931s-3.041-1.906-3.648-4.896.042-5.645 1.45-5.931 3.041 1.906 3.648 4.896z" class="F"/><path d="M498.045 158.373h-.015c.023.248.03.496.015.745-.158 3.302-3.212 5.845-6.823 5.672-3.611-.166-6.409-2.986-6.251-6.289 0-.045.008-.083.008-.128h-.008v-17.865h13.074v17.865z" class="C"/><g class="F"><path d="M491.032 125.127c-1.598 3.017-3.366 5.212-3.949 4.903s.241-3.005 1.839-6.021 3.366-5.212 3.949-4.903-.241 3.004-1.839 6.021zm4.845 3.107c-2.199 2.611-4.755 4.077-5.709 3.274s.056-3.571 2.255-6.183 4.755-4.077 5.709-3.274-.056 3.571-2.255 6.183zm1.313 4.137c-2.199 2.611-4.387 4.387-4.886 3.967s.879-2.878 3.079-5.489 4.387-4.387 4.886-3.967-.879 2.877-3.079 5.489z"/><path d="M491.055 124.38c-.158 3.41-.729 6.154-1.274 6.129s-.859-2.811-.7-6.221.729-6.154 1.274-6.129.858 2.81.7 6.221z"/></g><path d="M493.663 147.316c-.293.263-4.45 1.812-8.692 3.061v-3.533l8.692.472z" class="Y"/><path d="M501.8 162.991c-3.279 7.04-7.868 10.111-11.824 16.59-3.804 6.216-6.811 11.352-6.811 11.523 0 .252-1.443-2.159-3.017-8.688-.545-2.22-1.744-6.621-2.269-9.85-1.725-10.757-.764-17.266 3.026-18.555l.875.149 9.034 3.605 4.601-1.221 7.427 1.302c.243.948-.416 3.802-1.042 5.145z" class="P"/><g class="F"><path d="M498.87 128.305c-2.199 2.611-4.644 4.17-5.462 3.482s.303-3.363 2.503-5.974 4.645-4.17 5.462-3.482-.303 3.362-2.503 5.974zm3.354 2.116c-2.661 2.138-5.096 3.527-5.438 3.102s1.538-2.504 4.2-4.642 5.096-3.527 5.438-3.102-1.539 2.504-4.2 4.642z"/><path d="M494.961 124.857c-.587 3.363-1.499 6.014-2.036 5.92s-.498-2.896.089-6.26 1.499-6.013 2.036-5.92.498 2.897-.089 6.26z"/><path d="M493.537 127.407c-.587 3.363-1.836 5.955-2.789 5.788s-1.251-3.028-.664-6.391 1.836-5.955 2.789-5.788 1.251 3.027.664 6.391zm6.939 3.343c-2.025 2.749-4.298 4.511-5.078 3.937s.231-3.268 2.256-6.016 4.298-4.511 5.078-3.937-.231 3.268-2.256 6.016zm1.986 5.576c-2.88 1.833-5.636 2.657-6.156 1.84s1.394-2.965 4.274-4.798 5.636-2.657 6.156-1.84-1.394 2.965-4.274 4.798z"/><path d="M502.874 133.504c-2.371 2.456-4.774 3.984-5.367 3.411s.848-3.028 3.219-5.484 4.774-3.984 5.367-3.411-.848 3.028-3.219 5.484z"/></g><path d="M495.223 149.942l-9.591-2.531a6.53 6.53 0 0 1-4.263-9.045l5.724-12.419 15.324 6.593-7.194 17.402z" class="C"/><path d="M495.652 142.403l1.048-3.332c.765-3.632.289-6.298-3.401-8.622-6.059-3.816-7.203-2.207-7.203-2.207l1.175-5.113 17.468 7.738-4.008 11.412-5.079.124z" class="F"/><path d="M500.523 146.21c-2.038.898-4.307.228-5.067-1.497s.276-3.852 2.314-4.75 4.307-.228 5.067 1.497-.276 3.852-2.314 4.75z" class="C"/><path d="M503.129 132.836c-2.956 1.708-5.573 2.71-5.846 2.238s1.902-2.241 4.858-3.949 5.573-2.71 5.847-2.238-1.903 2.24-4.859 3.949z" class="F"/><g class="C"><path d="M488.982 126.195c-.098 0-.18-.075-.187-.174-.169-2.231.139-3.779.279-4.34.024-.101.126-.175.23-.149s.166.113.143.214c-.001.001-.007.026-.007.026-.136.544-.435 2.045-.27 4.221.008.104-.069.194-.173.202zm4.484.33c-.007 0-.014 0-.021-.001-.103-.012-.178-.105-.166-.208.335-2.99.13-4.892-.548-5.086-.043-.011-.094.001-.156.037-.809.463-2.051 3.823-2.134 4.147-.013.103-.108.166-.209.155s-.175-.115-.161-.218c.017-.131 1.252-3.712 2.268-4.38.172-.112.338-.146.496-.103 1.147.329 1.078 3.166.817 5.489-.01.098-.091.168-.186.168zm1.192.065c-.014 0-.026-.001-.04-.004-.102-.022-.166-.122-.144-.224l.625-3.697c.015-.103.101-.179.214-.158.102.016.173.111.157.214l-.629 3.723c-.019.087-.096.146-.183.146z"/><path d="M499.315 128.382c-.036 0-.072-.01-.104-.032-.087-.058-.109-.175-.052-.261 2.16-3.22 2.315-5.413 2.105-5.605-.49-.338-1.483.073-3.032 1.267-2.034 1.567-3.754 4.188-3.771 4.214-.057.088-.174.112-.26.055a.19.19 0 0 1-.055-.26c.071-.109 1.771-2.701 3.855-4.307 1.742-1.342 2.813-1.737 3.478-1.277.585.404.094 2.99-2.008 6.124-.035.053-.095.082-.156.082zm-.62 2.467c-.054 0-.107-.023-.145-.067a.19.19 0 0 1 .023-.265c.23-.192 5.632-4.694 7.459-4.984.29-.047.477.016.56.185.235.472-.724 1.655-3.538 4.365l-.467.458c-.067.08-.187.087-.266.02s-.087-.187-.019-.265c.05-.058.194-.198.491-.483 2.905-2.798 3.492-3.68 3.462-3.922-.01.005-.06-.002-.165.014-1.726.274-7.221 4.855-7.275 4.901-.035.029-.077.043-.12.043zm2.571 3.183c-.058 0-.114-.026-.151-.076-.062-.083-.044-.201.039-.263.148-.11 3.652-2.686 5.081-2.486a.76.76 0 0 1 .521.292.19.19 0 0 1-.039.263c-.085.062-.201.044-.264-.04-.058-.078-.146-.124-.273-.143-1.077-.164-3.825 1.691-4.801 2.416-.035.025-.074.037-.113.037z"/><path d="M503.661 130.381a.19.19 0 0 1-.175-.118c-.038-.097.008-.206.104-.245 1.057-.425 2.202-1.023 2.214-1.028.09-.049.205-.013.254.08s.012.206-.08.253l-2.247 1.044a.19.19 0 0 1-.07.014zm-12.567-7.148c-.112-.004-.192-.091-.188-.195v-2.304c-.004-.104.078-.19.182-.194s.189.078.193.182v2.33c-.004.102-.087.181-.187.181z"/></g><path d="M501.158 144.538a.19.19 0 0 1-.138-.316c.17-.182.438-.906.324-1.585-.08-.478-.329-.831-.742-1.051-1.203-.643-2.856.289-3.022.421-.05.062-.135.088-.215.057-.097-.038-.145-.147-.106-.244.073-.188.798-.489.987-.559.689-.254 1.684-.46 2.534-.008.513.273.837.73.935 1.321.127.763-.159 1.623-.42 1.903a.18.18 0 0 1-.137.061zm-13.959-7.598c-.022 0-.046-.004-.068-.013l-.972-.377a.92.92 0 0 1-.566-.636.92.92 0 0 1 .184-.831l1.514-1.711c.094-.042.206.001.247.097.039.089.004.191-.078.239-.038.031-.257.24-1.394 1.615-.115.14-.155.321-.109.497s.17.314.34.38l.972.378c.097.038.145.146.107.243-.03.074-.102.119-.177.119z" class="F"/><path d="M489.028 138.906a1.91 1.91 0 0 1-.545.868c-.363.343-.858.535-1.393.505-.151-.01-.313-.02-.494-.061-.686-.121-1.06-.474-1.281-.827-.283-.464-.283-.948-.283-.948l3.996.463z" class="E"/><path d="M488.483 139.773c-.363.343-.858.535-1.393.505-.151-.01-.313-.02-.494-.061-.686-.121-1.06-.474-1.281-.827l3.168.383zm2.916-8.215c1.389-.065 2.779 1.203 2.757 2.657a.42.42 0 0 1-.64.328c-.547-.328-3.736-2.675-2.117-2.985h0zm-3.827-.689c-1.24.156-1.826-.038-2.957.436a.41.41 0 0 1-.588-.469c.211-.751 1.041-1.264 1.795-1.305.697-.165 2.994.704 1.75 1.338h0zm3.614 4.339c-.189.487-.592.785-.899.665s-.404-.611-.215-1.098.592-.785.899-.665.404.611.215 1.098zm-5.916-2.297c-.189.487-.592.785-.899.665s-.404-.611-.215-1.098.592-.785.899-.665.405.612.215 1.098z" class="F"/><path d="M480.086 373.964h-37.481c.192-.576 1.046-2.752 2.556-2.752l5.873-.7c3.443-.41 6.614-2.073 8.909-4.671l5.205-5.892s1.548 2.362 6.972 3.571c6.836 1.526 7.243-2.237 7.243-2.237l.723 12.681z" fill="#593c2e"/><path d="M461.392 368.461c-.044 0-.088-.014-.125-.042l-2.311-1.715a.21.21 0 0 1-.044-.294c.069-.095.202-.113.294-.044l2.311 1.715a.21.21 0 0 1 .044.294c-.041.057-.105.086-.169.086zm2.381-1.987c-.044 0-.088-.014-.126-.042l-2.644-1.968c-.093-.069-.112-.201-.043-.295a.21.21 0 0 1 .295-.043l2.643 1.968c.093.069.112.201.043.295a.21.21 0 0 1-.168.085zm2.189-1.918c-.044 0-.088-.014-.126-.042l-2.946-2.19c-.093-.069-.112-.201-.043-.295a.21.21 0 0 1 .295-.043l2.946 2.19c.093.069.112.201.043.295-.041.055-.105.085-.169.085z" class="E"/><path d="M527.952 373.964h37.481c-.192-.576-1.046-2.752-2.556-2.752l-5.873-.7c-3.443-.41-6.614-2.073-8.909-4.671l-5.205-5.892s-1.548 2.362-6.972 3.571c-6.836 1.526-7.243-2.237-7.243-2.237l-.723 12.681z" fill="#593c2e"/><path d="M546.647 368.461c-.067 0-.134-.033-.175-.094a.21.21 0 0 1 .058-.292l2.312-1.552a.211.211 0 0 1 .234.35l-2.311 1.552c-.037.024-.077.036-.118.036zm-2.381-1.987c-.064 0-.128-.029-.169-.085-.069-.094-.05-.226.043-.295l2.644-1.968a.21.21 0 0 1 .295.043c.069.094.05.226-.043.295l-2.644 1.968c-.038.028-.082.042-.126.042z" class="E"/><path d="M480.714 153.981c-.747-.061-3.572-.121-8.042 1.968l-.484.232c-5.54 2.724-11.221-.383-13.592-6.034-.01-.01-.01-.03-.02-.04-2.059-4.914-5.096-7.598-5.822-8.183l13.209 9.475 14.751 2.582z" class="D"/><path d="M542.076 364.556c-.065 0-.128-.029-.169-.085-.069-.094-.05-.226.043-.295l2.946-2.19a.21.21 0 0 1 .295.043c.069.094.05.226-.043.295l-2.946 2.19c-.038.028-.082.042-.126.042z" class="E"/><path d="M490.72 156.87l-4.17 6.12-1.56 2.29-.37-1.3-.42-1.42-2.42-8.4 3.21-2.91c-.02.11-.02.23-.02.35 0 2.71 2.5 4.94 5.75 5.27zm10.06.48l-4.58 9.04c-2.62.06-5.01-8.27-5.35-9.5a8.43 8.43 0 0 0 .71.03c3.31 0 6.05-1.97 6.51-4.54l2.71 4.97z" class="P"/><path d="M515.251 262.596c-.08 0-.155-.051-.184-.131-.898-2.573-.928-8.855-.086-17.689.515-5.396-.396-17.244-2.782-36.218-1.073-8.539-.109-20.737.327-22.704l.007-.097h.017c.025-.1.05-.159.07-.172a.2.2 0 0 1 .207-.003c.111.068.107.102.065.513-.004.036-.018.069-.038.096-.287 2.283-1.361 13.642-.271 22.319 2.391 19.003 3.301 30.878 2.784 36.304-1.13 11.846-.443 16.065.066 17.525.035.101-.019.211-.12.247-.019.006-.04.01-.062.01zm-28.567 35.45c-.093 0-.175-.066-.191-.161-1.243-7.104-2.241-39.157-2.727-57.631l-.784-49.21c.033-.101.145-.156.244-.124s.156.14.126.24c-.172.784.12 23.149.808 49.272.483 18.4 1.479 50.322 2.716 57.387.019.105-.053.206-.158.225a.44.44 0 0 1-.034.002zm-17.437-139.603c-.103 0-.189-.08-.193-.183-.336-6.148-7.264-9.291-7.334-9.322-.098-.044-.142-.158-.099-.256s.155-.143.257-.099c.071.032 7.215 3.273 7.563 9.655.006.107-.076.199-.183.205zm-28.042 3.658c-.047 0-.094-.017-.131-.051-.079-.072-.085-.195-.013-.274s7.494-8.272 8.654-16.561c.747-5.339-1.532-6.236-1.556-6.244-.1-.037-.152-.147-.116-.248s.148-.153.245-.118c.107.037 2.606.977 1.811 6.663-1.178 8.41-8.677 16.687-8.752 16.769-.037.043-.089.064-.142.064z" class="B"/><path d="M500.78 157.35s-.182 7.448-4.64 10.55l-3.73-4.56-1.94-2.37-3.24 1.67-.68.35-1.93.99-1.6.82c-2.9-1.69-2.25-8.06-1.31-10.65-.26 1.59-.6 7.58 1.64 9.03l.85-.62 2.38-1.73 1.6-1.16c.37-.27.72-.57 1.04-.89s.62-.67.88-1.04l.62-.87c.04.01.08.02.13.02l.44 1.18a8.64 8.64 0 0 0 .38.88c.15.31.32.61.51.89l1.48 2.27 2.45 3.75c3.549-2.335 4.67-8.51 4.67-8.51z" class="J"/><path d="M485.315 369.435c-.151 1.524-6.529 2.129-14.228 1.352-7.709-.777-13.824-2.634-13.673-4.157l1.342-61.583.02-1.019c.303-1.362 1.574-2.664 3.673-3.784 0 0 .01 0 .04-.01 4.208-2.24 11.735-3.703 21.634-3.289l.141 6.579.182 8.718.827 56.931c.042.08.052.171.042.262zm64.63-5.429c.343 1.736-5.651 4.379-13.39 5.903-7.729 1.534-14.278 1.372-14.621-.353l-8.93-55.7-.575-3.592-1.453-9.071c13.935 3.169 25.146 6.922 27.759 9.394.151.141.283.283.373.424l.232 1.15 10.595 51.805v.01c.01.01.01.02.01.03z" fill="#8e6c4a"/><path d="M484.124 296.944l.141 6.579c-.327-.993-1.542-2.12-2.43-2.614-9.364-5.227-18.69-.918-19.346-.676 4.209-2.24 11.736-3.703 21.635-3.289zm26.851 4.248c13.935 3.169 25.146 6.922 27.759 9.394-5.439-3.441-21.17-2.745-26.306-.323l-1.453-9.071z" fill="#695036"/><g class="B"><path d="M493.66 162.11c-.3.45-.75.87-1.25 1.23-1.28.95-2.9 1.57-2.9 1.57s-1.42-.99-2.28-2.27c-.39-.57-.67-1.19-.65-1.81l1.6-1.16c.37-.27.72-.57 1.04-.89.35 0 .8.1 1.19.13l1.26.04c.15.31.32.61.51.89l1.48 2.27z"/><path d="M490.905 162.871l-.928 16.71c-3.293 6.166-6.866 11.853-6.866 12.025 0 .252-1.621-3.15-2.962-9.189 2.947-9.273 7.79-16.206 9.273-20.504l1.483.958z"/></g><g class="C"><path d="M416.717 82.611c4.938 2.25 10.492 4.568 12.285 10.245l.456 1.391 1.737 5.594a1.97 1.97 0 0 1-3.779 1.12l-1.571-5.565-.555-2.099c-1.716-4.281-6.517-6.695-10.277-9.135-1.162-.709-1.558-2.916-.304-2.378l2.008.827z"/><path d="M411.109 86.425l1.977.237c3.634.574 6.09 1.141 9.897 1.923.505.107.891.445 1.094.882l4.819 9.42c.398.779.236 1.773-.47 2.29a1.75 1.75 0 0 1-2.606-.62l-4.795-9.543 1.094.882c-3.978-1.227-8.002-2.424-12.025-3.429-1.337-.349-2.173-2.387-.8-2.199l1.815.157z"/><path d="M424.913 101.752c-.727.303-1.574-.04-1.867-.767l-3.219-7.74c-3.148-.484-6.266-.797-9.455-.948-2.129-.091-2.795-2.291-1.675-2.26l12.27.575c.525.02.948.373 1.12.838l3.572 8.436c.313.726-.03 1.553-.746 1.866z"/><path d="M424.475 101.285c-.547.4-4.082-.841-4.48-1.398l-1.518-4.848c-1.07-.147-2.054-.171-3.268-.149l-3.904.118c-1.568-.026-2.988-1.742-2.044-1.882l1.12-.09c2.674-.394 6.169-.374 8.858-.305.365.02.67.214.861.481l4.638 6.368c.401.547.285 1.305-.263 1.705z"/></g><path d="M423.96 91.541c-.066 0-.131-.035-.165-.098-1.168-2.142-3.441-3.877-3.464-3.894-.083-.063-.1-.181-.037-.263a.19.19 0 0 1 .264-.037c.096.072 2.359 1.799 3.567 4.014.05.091.017.205-.075.255-.028.016-.06.023-.09.023zm-1.957 1.339c-.063 0-.126-.032-.161-.091a31.42 31.42 0 0 0-1.135-1.654l-5.859-1.325a.19.19 0 0 1-.143-.225c.022-.101.125-.166.225-.142l5.929 1.341c.045.01.084.036.11.073l1.195 1.739c.054.089.024.205-.064.258-.031.017-.064.026-.097.026zm-1.814 1.854a.19.19 0 0 1-.173-.113c-.191-.443-1.287-1.171-1.73-1.438l-3.289-.547c-.103-.01-.178-.103-.168-.206s.09-.188.207-.168c.54.055 3.235.536 3.35.557.022.004.043.012.063.023.167.099 1.635.983 1.914 1.629.041.096-.003.206-.099.248-.026.01-.05.015-.075.015zm7.748 8.09a.19.19 0 0 1-.181-.135c-1.061-3.638.779-9.048 1.62-11.205l.038-.099a.19.19 0 0 1 .24-.114c.098.035.148.143.113.241l-.041.108c-.827 2.122-2.638 7.436-1.609 10.963.029.1-.028.204-.128.233-.017.005-.035.008-.052.008z" class="F"/><path d="M290.01 91.831L275.701 70.14l-27.107-.51 13.423 25.255z" class="B"/><path d="M282.197 81.06l-3.698 5.451c-.034.08-.081.169-.136.234-1.4 2.135-6.692 1.124-11.836-2.25-5.134-3.36-8.171-7.824-6.771-9.96l2.588-3.818 1.154-1.699 18.589 11.968.11.074z" fill="#3a43ab"/><path d="M245.539 96.318c-3.675 0-7.923-2.622-11.673-7.292-.079-.099-.064-.242.035-.321s.241-.063.321.035c4.186 5.213 8.967 7.816 12.787 6.964 2.455-.548 4.196-2.458 4.903-5.378 1.824-7.53 9.011-6.88 9.084-6.875a.23.23 0 0 1 .204.25c-.013.125-.121.215-.25.204-.278-.027-6.866-.609-8.595 6.528-.75 3.099-2.614 5.128-5.247 5.716-.509.114-1.033.169-1.569.169z" class="B"/><path d="M282.197 81.06l-3.698 5.451c-.034.08-.081.169-.136.234-1.4 2.135-6.692 1.124-11.836-2.25-5.134-3.36-8.171-7.824-6.771-9.96l2.588-3.818c-1.452 2.655-3.449 8.962 6.502 13.693 6.258 2.972 10.548.093 13.242-3.425l.109.075z" fill="#2d3485"/><path d="M234.919 89.935c-2.017.839-6.647-3.499-5.24-8.12l.641 2.076c.014-.118.256-.913.438-1.513l.426.232.13.59.499-.261.292.156-.001 1.267.889-.811.404.217c-.448 2.265 3.564 5.319 1.522 6.167z" class="R"/><path d="M520.552 277.263c2.354 1.809 3.5 4.269 2.558 5.495s-3.613.752-5.968-1.057-3.5-4.269-2.558-5.495 3.614-.752 5.968 1.057z" class="V"/><path d="M442.077 181.306c-2.028-1.271-3.34-3.834-3.501-6.821-.091-1.635-.666-3.209-1.776-4.42l-.081-.091c-.848-.928-2.038-1.463-3.29-1.554 0 0 7.144-1.584 7.195 2.341.04 3.512-1.362 8.527 1.453 10.545zm12.785 12.916l-.161.262c-.626-4.147-2.704-8.516-4.379-10.141-1.1-1.06-2.472-1.816-3.945-2.058 1.705-.222 2.795-1.201 6.297-.848 3.621.364 2.803 7.175 2.188 12.785z" class="D"/><path d="M282.098 81.227c-1.767 2.694-7.364 2.146-12.502-1.225s-7.869-8.286-6.102-10.98 7.364-2.146 12.501 1.225 7.87 8.286 6.103 10.98z" class="B"/><path d="M536.37 261.611s1.86-.732 2.452 2.15l2.13-2.08-1.276-3.307-2.125-.137-1.63.568.449 2.806z" class="C"/><path d="M192.93 100.692a.25.25 0 0 1-.126-.034c-6.328-3.657-10.11-8.099-11.24-13.204-4.666-21.069 27.431-33.383 27.756-33.505.13-.049.276.017.325.147s-.017.276-.147.325c-.321.12-32.013 12.281-27.441 32.923 1.099 4.962 4.799 9.294 11 12.877a.25.25 0 0 1 .092.344c-.047.081-.132.127-.219.127zm179.804-31.421a.25.25 0 0 1-.131-.037c-42.179-25.596-98.981-25.894-99.55-25.894-.139 0-.252-.113-.252-.252s.113-.253.252-.253c.57 0 57.51.297 99.812 25.967.119.072.157.228.085.347-.048.079-.131.122-.216.122zm-50.674 37.435c-.048 0-.097-.014-.14-.042l-6.15-4.08c-.116-.077-.147-.234-.071-.35s.235-.146.35-.071l6.15 4.08c.116.077.148.234.071.35-.049.073-.129.113-.21.113zm5.847-12.862c-.109 0-.211-.072-.242-.183l-2.205-7.665c-.039-.134.039-.274.172-.312a.25.25 0 0 1 .312.172l2.205 7.665a.25.25 0 0 1-.173.312c-.022.007-.045.011-.069.011zm9.255 0c-.054 0-.107-.017-.152-.052-.111-.085-.133-.243-.049-.354l4.36-5.727c.085-.11.245-.131.354-.048s.133.243.049.354l-4.36 5.727c-.05.065-.126.1-.202.1zm4.559 16.075c-.086 0-.17-.045-.218-.125-.07-.12-.03-.274.09-.345l5.454-3.212c.119-.069.273-.031.346.089a.25.25 0 0 1-.09.345l-5.454 3.212c-.04.024-.084.036-.128.036z" fill="#b3b8e3"/></svg>