<?xml version="1.0" encoding="utf-8"?>
<!-- Generator: Adobe Illustrator 27.5.0, SVG Export Plug-In . SVG Version: 6.00 Build 0)  -->
<svg version="1.1" xmlns="http://www.w3.org/2000/svg" xmlns:xlink="http://www.w3.org/1999/xlink" x="0px" y="0px"
	 viewBox="0 0 750 500" style="enable-background:new 0 0 750 500;" xml:space="preserve">
<g id="BACKGROUND">
	<rect style="fill:#FFFFFF;" width="750" height="500"/>
</g>
<g id="OBJECTS">
	<g>
		<path style="fill:#D5E4F7;" d="M92.329,419.451c2.143-0.002,555.196,0.615,555.196,0.615c-4.665-23.1-8.63-47.067-20.847-67.571
			c-12.237-20.538-33.721-33.987-45.112-55.016c-11.445-21.129-0.895-36.602,13.805-51.977
			c17.737-18.55,33.027-40.388,39.307-65.397c10.284-40.951-8.181-83.033-51.942-89.606c-46.948-7.052-95.942,15.789-142.871,18.329
			c-22.822,1.236-47.293-0.104-68.193-10.307c-19.215-9.38-34.545-25.534-54.896-32.784c-38.555-13.736-100.2-6.16-123.678,31.547
			c-16.439,26.401-16.295,57.452-13.833,87.405c1.958,23.831,21.983,51.905,15.256,75.46c-5.252,18.39-30.525,30.925-45.539,42.833
			c-15.518,12.309-31.878,27.593-41.599,45.105C95.536,369.434,91.089,395.255,92.329,419.451"/>
		<path style="fill:#F1CBA9;" d="M523.648,248.959c0,0-0.572-1.44,2.27-14.136c0,0,12.393-18.16,8.318-31.122
			c-0.917-1.793-2.037-3.529-3.245-5.189c-1.873-2.572-4.284-5.604-7.644-6.866c-0.689-0.259-1.482-0.465-2.222-0.257
			c-0.802,0.225-1.334,0.903-1.524,1.607c-0.252,0.932-0.128,1.981,0.298,2.865c1.761,3.657,2.924,7.716,2.857,11.677
			c-0.024,1.629-0.28,3.272-0.936,4.803c-0.516,1.203-1.201,2.706-2.367,3.554c-1.351,0.982-2.845-0.472-3.62-1.353
			c-1.379-1.569-2.719-3.181-3.74-4.943c-0.572-0.988-0.754-2.216-1.666-3.043c-1.035-0.937-3.113-0.726-4.016,0.251
			c-1.236,1.337,0.457,4.064,0.981,5.524c0.886,2.469,1.707,4.955,2.451,7.458c2.343,7.887,5.308,16.211,1.245,24.038
			C515.551,245.977,518.95,247.187,523.648,248.959z"/>
		<g>
			<polygon style="fill:#FFB98A;" points="364.286,264.005 364.286,291.753 392.392,291.753 391.632,264.005 			"/>
			<path style="opacity:0.2;fill:#777777;" d="M391.703,267.174l0.165,4.769c-8.211,3.658-14.108,3.135-14.108,3.135
				c-8.266-0.065-13.482-3.63-13.482-3.63l0.049-2.837L391.703,267.174z"/>
			<g>
				<g>
					<circle style="fill:#FFCDAB;" cx="339.137" cy="226.364" r="7.21"/>
					<circle style="fill:#FFDFCA;" cx="340.189" cy="226.548" r="4.763"/>
				</g>
				<g>
					<circle style="fill:#FFCDAB;" cx="416.605" cy="226.364" r="7.21"/>
					<circle style="fill:#FFDFCA;" cx="415.552" cy="226.548" r="4.763"/>
				</g>
				<path style="fill:#FFCDAB;" d="M415.868,218.986c0.947,7.128-0.632,19.009-0.632,19.009
					c-4.321,17.808-20.857,34.963-39.041,33.88c-16.775-0.999-29.84-16.822-35.375-32.862c0,0-2.316-14.936-1.053-20.367v-28.175
					h76.1V218.986z"/>
			</g>
			<path style="fill:#211D1E;" d="M342.215,233.785c0,0,2.2-0.902,1.861-4.907c0,0-1.241-9.067-0.606-11.098
				c0,0,3.004-19.164,5.88-21.618c0,0,0.846-2.623,3.554-0.677c0,0,8.292,9.476,15.23,10.746c0,0,15.822,3.977,25.045,3.046
				c0,0-10.576-8.123-11.253-9.984c0,0-0.31-1.1,0.761-0.395c0,0,8.376,5.725,24.678,6.346c0,0-10.344-5.424-12.049-11.817
				c-0.008-0.028-0.015-0.056-0.022-0.085c0,0-0.042-0.62,0.592-0.212c0,0,13.453,4.499,17.966,19.503c0,0,1.974,10.548,0.395,13.82
				c-1.579,3.271,0,0.226,0,0.226l-0.085,5.295c0,0,0.296,1.481,1.756,1.46c0,0,1.375,0.021,1.692-1.438
				c0,0,2.559-31.771,1.093-36.058c0,0-2.707-19.63-30.798-25.496c0,0-19.348-4.992-32.377,5.584c0,0-3.836-1.467-3.949-5.19
				c0,0-0.451-0.564-0.536,0.423l0.614,5.887c0,0,0.19,0.444-0.698,0.212c0,0-1.967-2.179-5.859-1.227c0,0-2.01,0.317-2.877,0.952
				c0,0,5.055-0.36,6.621,1.925c0,0,0.846,0.656-0.212,0.783c0,0-8.108-1.34-10.252,7.065c0,0-1.015,14.045,0.677,27.245
				l1.297,17.768C340.354,231.867,341.031,233.729,342.215,233.785z"/>
			<path style="fill:#302C2D;" d="M349.174,184.442c0.004,0.242,0.044,0.49,0.125,0.738c0.216,0.657,0.638,1.224,1.064,1.769
				c3.474,4.445,7.308,8.773,11.911,12.079c3.491,2.508,7.362,4.497,11.469,5.777c2.701,0.842,5.524,1.384,8.35,1.254
				c-0.27,0-0.917-0.637-1.15-0.798c-0.453-0.314-0.906-0.629-1.359-0.943c-0.856-0.594-1.7-1.213-2.574-1.781
				c-1.602-1.041-3.172-2.143-4.723-3.263c-3.191-2.305-6.291-4.749-9.158-7.451c-0.458-0.431-0.91-0.869-1.355-1.314
				c-1.85-1.849-3.585-3.814-5.19-5.879c-0.711-0.915-1.223-1.916-2.311-2.399c-1.058-0.47-2.428-0.571-3.507-0.12
				C349.783,182.523,349.159,183.435,349.174,184.442z"/>
		</g>
		<path style="fill:#F1CBA9;" d="M233.972,255.715c0,0-1.303-0.749-4.051-14.819c0,0-11.983-20.125-8.043-34.492
			c0.886-1.987,1.969-3.911,3.138-5.751c1.811-2.85,4.142-6.211,7.391-7.609c0.666-0.287,1.433-0.516,2.15-0.285
			c0.775,0.25,1.29,1,1.474,1.781c0.244,1.033,0.124,2.195-0.288,3.175c-1.703,4.052-2.828,8.551-2.764,12.941
			c0.023,1.806,0.271,3.626,0.906,5.323c0.498,1.333,1.161,2.998,2.288,3.938c1.306,1.089,2.752-0.523,3.5-1.5
			c1.333-1.739,2.629-3.525,3.616-5.478c0.553-1.095,0.729-2.457,1.611-3.373c1.001-1.039,3.01-0.805,3.884,0.278
			c1.195,1.482-0.442,4.504-0.949,6.122c-0.857,2.737-1.651,5.492-2.369,8.265c-2.265,8.741-5.133,17.965-1.203,26.64
			C239.945,253.257,238.514,253.751,233.972,255.715z"/>
		<path style="fill:#071B40;" d="M413.844,283.374c1.117,0.283,2.222,0.615,3.313,0.996c4.733,1.653,9.138,4.114,13.925,5.648
			c7.081,2.269,14.57,3.644,22.017,2.845c15.229-1.633,27.323-13.423,35.057-24.164c6.824-9.476,18.497-20.48,25.417-29.758
			l12.688,1.255c0.58,2.225-0.346,4.448-0.71,6.628c-1.077,6.45-2.901,12.948-5.715,19.048c-2.914,6.317-7.052,11.92-11.6,17.419
			c-0.202,0.244-0.405,0.488-0.607,0.731c-9.223,11.072-20.645,21.429-32.868,30.004c-10.295,7.223-23.658,14.726-37.272,14.894
			c-3.629,0.044-11.041-1.931-12.868,2.145c-0.383,0.855-0.419,1.794-0.443,2.712c-0.706,26.684,1.226,48.159,1.863,74.836
			c0.006,0.246,0.012,0.493,0.018,0.739c-57.654,12.612-96.806-0.066-96.806-0.066c0.346-14.533,1.158-23.693,1.504-38.225
			c0.183-8.01,0.388-16.432,0.575-24.6c0.111-4.865,3.531-16.36-4.462-17.152c-2.464-0.244-4.96-0.18-7.433-0.309
			c-12.402-0.646-24.146-5.428-34.169-11.834c-13.291-8.493-25.523-19.698-35.433-31.155c-9.489-10.97-15.331-25.96-19.378-39.38
			c0,0-1.791-4.357-1.248-6.441l13.358-2.854c6.92,9.279,18.229,21.888,25.053,31.364c7.734,10.741,19.828,22.531,35.057,24.164
			c8.409,0.902,16.469-1.039,24.425-3.464c3.974-1.211,7.644-3.199,11.492-4.735c4.131-1.649,8.122-2.167,12.535-2.347
			c3.731-0.153,7.988-0.485,11.6,0.676c0,0,6.66,8.048,14.494,8.413c4.7,0.219,9.751-5.611,14.241-8.413
			c3.892-0.404,7.807-0.672,11.717-0.792C406.779,282.092,410.366,282.493,413.844,283.374z"/>
		<polygon style="fill:#071B40;" points="378.451,143.21 308.335,171.223 380.031,192.665 448.899,170.476 		"/>
		<rect x="337.298" y="170.059" style="fill:#0D42AA;" width="81.079" height="20.378"/>
		<rect x="435.906" y="135.212" style="fill:#DC9626;" width="1.324" height="51.912"/>
		<path style="fill:#DC9626;" d="M436.568,186.632c-2.051,0-3.714,1.663-3.714,3.714v9.451h7.428v-9.451
			C440.282,188.295,438.619,186.632,436.568,186.632z"/>
		<polygon style="fill:#FFFFFF;" points="361.661,275.104 377.221,291.407 366.588,302.04 351.335,286.788 		"/>
		<polygon style="fill:#FFFFFF;" points="392.782,275.104 377.221,291.407 387.855,302.04 403.107,286.788 		"/>
		<path style="fill:#EAEAEA;" d="M410.062,282.614c-2.272-0.341-4.543-0.578-6.85-0.507c-1.322,0.041-2.73,0.139-4.053,0.213
			l3.95,4.467l-15.253,15.253l-10.633-10.633l-10.633,10.633l-15.253-15.253l4.089-4.627c-1.465,0.021-2.997,0.008-4.377,0.064
			c-2.15,0.088-4.156,0.329-6.17,0.669l32.899,36.589L410.062,282.614z"/>
		<path style="fill:#0D42AA;" d="M417.248,284.402c-1.091-0.381-2.287-0.745-3.404-1.028c-1.249-0.316-2.51-0.569-3.783-0.76
			l-32.283,36.943l-32.863-36.641c-2.12,0.358-4.243,0.919-6.361,1.765c-2.702,1.079-5.279,2.365-7.973,3.464v43.057
			c1.09,1.325,1.493,3.231,1.561,5.304h91.982c0.018-0.884,0.031-1.759,0.055-2.655c0.024-0.918,0.06-1.857,0.443-2.712
			c0.446-0.995,1.228-1.625,2.204-2.016l0.05-40.682C423.654,287.091,420.549,285.555,417.248,284.402z"/>
		<g>
			<path style="fill:#0A2249;" d="M322.649,320.816c0.131,4.035-0.854,8.622-0.917,11.358c-0.211,9.25-0.444,18.787-0.651,27.859
				c-0.392,16.458-1.312,26.831-1.704,43.289c0,0,6.108,1.976,17.12,3.733v-86.239H322.649z"/>
			<path style="fill:#071B40;" d="M336.498,320.816v86.239c6.742,1.076,15.323,2.067,25.472,2.475v-88.714H336.498z"/>
			<path style="fill:#0A2249;" d="M361.97,320.816v88.714c7.642,0.307,16.171,0.28,25.471-0.294v-88.42H361.97z"/>
			<path style="fill:#071B40;" d="M387.441,409.236c7.951-0.49,16.466-1.383,25.472-2.808v-85.612h-25.472V409.236z"/>
			<path style="fill:#0A2249;" d="M429.01,403.397c-0.007-0.279-0.013-0.558-0.02-0.837c-0.697-29.197-2.756-52.909-2.172-81.744
				h-13.905v85.612C418.121,405.604,423.489,404.605,429.01,403.397z"/>
		</g>
		<path style="fill:#5C8CE0;" d="M657.671,419.451H92.329c-5.849,0-10.591,4.742-10.591,10.591c0,5.849,4.742,10.591,10.591,10.591
			h565.342c5.849,0,10.591-4.742,10.591-10.591C668.262,424.193,663.52,419.451,657.671,419.451z"/>
		<path style="fill:#A0CFF9;" d="M664.021,421.581c0.133,0.671,0.206,1.363,0.206,2.073c0,5.849-4.742,10.591-10.591,10.591H88.295
			c-2.386,0-4.58-0.798-6.35-2.13c0.964,4.856,5.246,8.518,10.385,8.518h565.342c5.849,0,10.591-4.742,10.591-10.591
			C668.262,426.579,666.592,423.513,664.021,421.581z"/>
		<g>
			<path style="fill:#EFEFEF;" d="M451.574,305.895H298.426c-7,0-12.675,5.674-12.675,12.674l5.209,100.881H459.04l5.209-100.881
				C464.249,311.57,458.574,305.895,451.574,305.895z"/>
			<polygon style="fill:#071B40;" points="290.696,414.32 459.304,414.32 459.04,419.451 290.961,419.451 			"/>
			<circle style="fill:#071B40;" cx="375" cy="350.519" r="9.55"/>
		</g>
		<g>
			<g>
				<rect x="490.633" y="392.538" style="fill:#FFFFFF;" width="89.864" height="1.562"/>
				<rect x="490.633" y="394.101" style="fill:#FFFFFF;" width="90.156" height="1.562"/>
				<rect x="490.633" y="395.663" style="fill:#F0E2D5;" width="90.442" height="1.562"/>
				<rect x="490.633" y="397.225" style="fill:#FFFFFF;" width="90.156" height="1.562"/>
				<rect x="490.633" y="398.788" style="fill:#FFFFFF;" width="89.864" height="1.562"/>
				<rect x="490.633" y="400.35" style="fill:#F0E2D5;" width="90.442" height="1.562"/>
				<rect x="490.633" y="401.912" style="fill:#F0E2D5;" width="90.442" height="1.562"/>
				<rect x="490.633" y="403.475" style="fill:#FFFFFF;" width="89.864" height="1.562"/>
				<rect x="490.633" y="405.037" style="fill:#FFFFFF;" width="90.156" height="1.562"/>
				<rect x="490.633" y="406.599" style="fill:#F0E2D5;" width="90.156" height="1.562"/>
				<rect x="490.633" y="408.162" style="fill:#FFFFFF;" width="89.864" height="1.562"/>
				<rect x="490.633" y="409.724" style="fill:#FFFFFF;" width="89.864" height="1.562"/>
				<rect x="490.633" y="411.286" style="fill:#F0E2D5;" width="89.531" height="1.562"/>
				<rect x="490.633" y="412.849" style="fill:#FFFFFF;" width="89.531" height="1.562"/>
				<rect x="490.633" y="414.411" style="fill:#FFFFFF;" width="89.864" height="1.562"/>
				<rect x="490.633" y="415.973" style="fill:#F0E2D5;" width="89.864" height="1.562"/>
				<path style="opacity:0.29;fill:#CCCCCC;" d="M493.463,393.086c0,0,21.311,21.71,72.995,23.211h-69.504
					c0,0-1.909,0.1-3.491-0.548C491.882,415.101,493.463,393.086,493.463,393.086z"/>
			</g>
			<path style="fill:#071B40;" d="M493.463,393.086c0,0,7.161,10.236,0,22.663c0,0-15.361-0.819-6.53-20.162
				C486.933,395.587,491.87,389.966,493.463,393.086z"/>
			<g>
				<g>
					<g>
						<path style="fill:#D6409A;" d="M583.44,419.451h-86.487c-8.018,0-14.541-6.523-14.541-14.541v-0.984
							c0-8.018,6.523-14.541,14.541-14.541h86.487c0.871,0,1.577,0.706,1.577,1.577c0,0.871-0.706,1.577-1.577,1.577h-86.487
							c-6.279,0-11.388,5.108-11.388,11.388v0.984c0,6.279,5.109,11.388,11.388,11.388h86.487c0.871,0,1.577,0.706,1.577,1.577
							C585.017,418.745,584.311,419.451,583.44,419.451z"/>
					</g>
				</g>
			</g>
		</g>
		<g>
			<g>
				<rect x="477.234" y="366.664" style="fill:#FFFFFF;" width="77.398" height="1.346"/>
				<rect x="477.234" y="368.01" style="fill:#FFFFFF;" width="77.649" height="1.346"/>
				<rect x="477.234" y="369.356" style="fill:#F0E2D5;" width="77.895" height="1.346"/>
				<rect x="477.234" y="370.701" style="fill:#FFFFFF;" width="77.649" height="1.346"/>
				<rect x="477.234" y="372.047" style="fill:#FFFFFF;" width="77.398" height="1.345"/>
				<rect x="477.234" y="373.392" style="fill:#F0E2D5;" width="77.895" height="1.346"/>
				<rect x="477.234" y="374.738" style="fill:#FFFFFF;" width="77.895" height="1.346"/>
				<rect x="477.234" y="376.084" style="fill:#FFFFFF;" width="77.398" height="1.346"/>
				<rect x="477.234" y="377.429" style="fill:#F0E2D5;" width="77.649" height="1.346"/>
				<rect x="477.234" y="378.775" style="fill:#F0E2D5;" width="77.649" height="1.346"/>
				<rect x="477.234" y="380.12" style="fill:#FFFFFF;" width="77.398" height="1.346"/>
				<rect x="477.234" y="381.466" style="fill:#FFFFFF;" width="77.398" height="1.346"/>
				<rect x="477.234" y="382.812" style="fill:#F0E2D5;" width="77.111" height="1.345"/>
				<rect x="477.234" y="384.157" style="fill:#FFFFFF;" width="77.111" height="1.346"/>
				<rect x="477.234" y="385.503" style="fill:#FFFFFF;" width="77.398" height="1.346"/>
				<rect x="477.234" y="386.848" style="fill:#F0E2D5;" width="77.398" height="1.346"/>
				<path style="opacity:0.28;fill:#CCCCCC;" d="M479.893,365.175c0,0,20.419,20.801,69.94,22.24h-66.596
					c0,0-1.829,0.096-3.345-0.525C478.378,386.268,479.893,365.175,479.893,365.175z"/>
			</g>
			<path style="fill:#071B40;" d="M479.671,367.136c0,0,6.168,8.816,0,19.519c0,0-13.23-0.705-5.624-17.365
				C474.047,369.29,478.299,364.449,479.671,367.136z"/>
			<g>
				<g>
					<path style="fill:#FFCA60;" d="M557.167,389.844h-74.489c-6.906,0-12.524-5.618-12.524-12.524v-0.848
						c0-6.906,5.618-12.524,12.524-12.524h74.489c0.75,0,1.358,0.608,1.358,1.358c0,0.75-0.608,1.358-1.358,1.358h-74.489
						c-5.408,0-9.808,4.4-9.808,9.808v0.848c0,5.408,4.4,9.808,9.808,9.808h74.489c0.75,0,1.358,0.608,1.358,1.358
						C558.525,389.236,557.917,389.844,557.167,389.844z"/>
				</g>
			</g>
		</g>
		<g>
			<g>
				
					<rect x="481.403" y="314.873" transform="matrix(-1 -1.224647e-16 1.224647e-16 -1 1040.204 631.0916)" style="fill:#FFFFFF;" width="77.398" height="1.346"/>
				
					<rect x="481.151" y="316.219" transform="matrix(-1 -1.224647e-16 1.224647e-16 -1 1039.9523 633.7828)" style="fill:#FFFFFF;" width="77.649" height="1.346"/>
				
					<rect x="480.906" y="317.564" transform="matrix(-1 -1.224647e-16 1.224647e-16 -1 1039.7064 636.474)" style="fill:#F0E2D5;" width="77.895" height="1.346"/>
				
					<rect x="481.151" y="318.91" transform="matrix(-1 -1.224647e-16 1.224647e-16 -1 1039.9523 639.1652)" style="fill:#FFFFFF;" width="77.649" height="1.346"/>
				
					<rect x="481.403" y="320.255" transform="matrix(-1 -1.224647e-16 1.224647e-16 -1 1040.204 641.8564)" style="fill:#FFFFFF;" width="77.398" height="1.346"/>
				
					<rect x="480.906" y="321.601" transform="matrix(-1 -1.224647e-16 1.224647e-16 -1 1039.7064 644.5476)" style="fill:#F0E2D5;" width="77.895" height="1.346"/>
				
					<rect x="480.906" y="322.947" transform="matrix(-1 -1.224647e-16 1.224647e-16 -1 1039.7064 647.2388)" style="fill:#FFFFFF;" width="77.895" height="1.346"/>
				
					<rect x="481.403" y="324.292" transform="matrix(-1 -1.224647e-16 1.224647e-16 -1 1040.204 649.93)" style="fill:#FFFFFF;" width="77.398" height="1.346"/>
				
					<rect x="481.151" y="325.638" transform="matrix(-1 -1.224647e-16 1.224647e-16 -1 1039.9523 652.6212)" style="fill:#F0E2D5;" width="77.649" height="1.346"/>
				
					<rect x="481.151" y="326.983" transform="matrix(-1 -1.224647e-16 1.224647e-16 -1 1039.9523 655.3124)" style="fill:#F0E2D5;" width="77.649" height="1.346"/>
				
					<rect x="481.403" y="328.329" transform="matrix(-1 -1.224647e-16 1.224647e-16 -1 1040.204 658.0035)" style="fill:#FFFFFF;" width="77.398" height="1.345"/>
				
					<rect x="481.403" y="329.674" transform="matrix(-1 -1.224647e-16 1.224647e-16 -1 1040.204 660.6946)" style="fill:#FFFFFF;" width="77.398" height="1.346"/>
				
					<rect x="481.69" y="331.02" transform="matrix(-1 -1.224647e-16 1.224647e-16 -1 1040.4907 663.3858)" style="fill:#F0E2D5;" width="77.111" height="1.346"/>
				
					<rect x="481.69" y="332.366" transform="matrix(-1 -1.224647e-16 1.224647e-16 -1 1040.4907 666.077)" style="fill:#FFFFFF;" width="77.111" height="1.346"/>
				
					<rect x="481.403" y="333.711" transform="matrix(-1 -1.224647e-16 1.224647e-16 -1 1040.204 668.7682)" style="fill:#FFFFFF;" width="77.398" height="1.346"/>
				
					<rect x="481.403" y="335.057" transform="matrix(-1 -1.224647e-16 1.224647e-16 -1 1040.204 671.4593)" style="fill:#F0E2D5;" width="77.398" height="1.345"/>
				<path style="opacity:0.28;fill:#CCCCCC;" d="M556.141,313.383c0,0-20.419,20.802-69.94,22.24h66.596
					c0,0,1.829,0.096,3.344-0.525C557.657,334.477,556.141,313.383,556.141,313.383z"/>
			</g>
			<path style="fill:#071B40;" d="M556.363,315.345c0,0-6.168,8.816,0,19.519c0,0,13.23-0.705,5.624-17.365
				C561.988,317.499,557.736,312.658,556.363,315.345z"/>
			<g>
				<path style="fill:#D6409A;" d="M478.868,338.052h74.489c6.906,0,12.524-5.618,12.524-12.524v-0.847
					c0-6.906-5.618-12.524-12.524-12.524h-74.489c-0.75,0-1.358,0.608-1.358,1.358c0,0.75,0.608,1.358,1.358,1.358h74.489
					c5.408,0,9.808,4.4,9.808,9.808v0.847c0,5.408-4.4,9.808-9.808,9.808h-74.489c-0.75,0-1.358,0.608-1.358,1.358
					C477.51,337.444,478.118,338.052,478.868,338.052z"/>
			</g>
		</g>
		<g>
			<g>
				<rect x="498.824" y="340.769" style="fill:#FFFFFF;" width="77.398" height="1.346"/>
				<rect x="498.824" y="342.114" style="fill:#FFFFFF;" width="77.649" height="1.346"/>
				<rect x="498.824" y="343.46" style="fill:#F0E2D5;" width="77.895" height="1.345"/>
				<rect x="498.824" y="344.806" style="fill:#FFFFFF;" width="77.649" height="1.346"/>
				<rect x="498.824" y="346.151" style="fill:#F0E2D5;" width="77.398" height="1.346"/>
				<rect x="498.824" y="347.497" style="fill:#FFFFFF;" width="77.895" height="1.346"/>
				<rect x="498.824" y="348.842" style="fill:#F0E2D5;" width="77.895" height="1.346"/>
				<rect x="498.824" y="350.188" style="fill:#FFFFFF;" width="77.398" height="1.346"/>
				<rect x="498.824" y="351.534" style="fill:#F0E2D5;" width="77.649" height="1.346"/>
				<rect x="498.824" y="352.879" style="fill:#FFFFFF;" width="77.649" height="1.346"/>
				<rect x="498.824" y="354.225" style="fill:#F0E2D5;" width="77.398" height="1.346"/>
				<rect x="498.824" y="355.57" style="fill:#FFFFFF;" width="77.398" height="1.346"/>
				<rect x="498.824" y="356.916" style="fill:#F0E2D5;" width="77.111" height="1.346"/>
				<rect x="498.824" y="358.262" style="fill:#F0E2D5;" width="77.111" height="1.345"/>
				<rect x="498.824" y="359.607" style="fill:#FFFFFF;" width="77.398" height="1.346"/>
				<rect x="498.824" y="360.953" style="fill:#F0E2D5;" width="77.398" height="1.345"/>
				<path style="opacity:0.28;fill:#CCCCCC;" d="M500.468,340.411c0,0,19.473,19.838,66.7,21.209h-63.51c0,0-1.745,0.091-3.19-0.501
					C499.023,360.527,500.468,340.411,500.468,340.411z"/>
			</g>
			<path style="fill:#FFCA60;" d="M501.262,341.241c0,0,6.168,8.816,0,19.519c0,0-13.23-0.705-5.624-17.365
				C495.637,343.395,499.889,338.554,501.262,341.241z"/>
			<g>
				<path style="fill:#5C8CE0;" d="M578.757,363.948h-74.489c-6.906,0-12.524-5.618-12.524-12.524v-0.847
					c0-6.906,5.618-12.524,12.524-12.524h74.489c0.75,0,1.358,0.608,1.358,1.358c0,0.75-0.608,1.358-1.358,1.358h-74.489
					c-5.408,0-9.808,4.4-9.808,9.808v0.847c0,5.408,4.4,9.808,9.808,9.808h74.489c0.75,0,1.358,0.608,1.358,1.358
					C580.115,363.34,579.507,363.948,578.757,363.948z"/>
			</g>
		</g>
		<g>
			<g>
				<polygon style="fill:#0D42AA;" points="179.917,410.635 152.225,330.954 209.285,279.139 212.136,282.279 157.152,332.21 
					183.924,409.243 				"/>
			</g>
		</g>
		<path style="fill:#2A6BBF;" d="M261.154,283.744c-12.23-13.569-31.932-15.747-44.004-4.865
			c-12.073,10.882-11.945,30.703,0.285,44.271L261.154,283.744"/>
		<path style="fill:#8EB4FB;" d="M257.77,286.799l3.384-3.05c-12.23-13.569-31.932-15.746-44.004-4.865
			c-0.58,0.523-1.123,1.072-1.647,1.635C227.658,271.294,246.106,273.864,257.77,286.799z"/>
		<path style="fill:#2A6BBF;" d="M224.762,273.943c-3.723-4.131-9.721-4.794-13.397-1.481c-3.675,3.313-3.637,9.347,0.087,13.478
			L224.762,273.943"/>
		<path style="fill:#8EB4FB;" d="M224.124,274.524l0.638-0.575c-3.723-4.131-9.721-4.794-13.397-1.481
			c-0.12,0.108-0.225,0.227-0.337,0.34C214.722,269.784,220.497,270.505,224.124,274.524z"/>
		<path style="fill:#FAAA4B;" d="M235.845,306.444c2.513,2.788,6.561,3.235,9.041,1c2.48-2.236,2.454-6.308-0.059-9.096
			L235.845,306.444"/>
		<path style="fill:#2A6BBF;" d="M207.538,419.451h-53.191c-1.94,0-3.513-1.573-3.513-3.513v-3.462c0-1.94,1.573-3.513,3.513-3.513
			h53.191c1.94,0,3.513,1.573,3.513,3.513v3.462C211.051,417.879,209.478,419.451,207.538,419.451z"/>
		<path style="fill:#8EB4FB;" d="M208.396,408.987c0.028,0.168,0.052,0.339,0.052,0.515v4.288c0,1.712-1.388,3.1-3.1,3.1h-54.017
			c-0.162,0-0.317-0.024-0.472-0.048c0.247,1.466,1.513,2.585,3.048,2.585h54.017c1.712,0,3.1-1.388,3.1-3.1v-4.288
			C211.025,410.489,209.883,409.216,208.396,408.987z"/>
		<g>
			<g>
				
					<rect x="244.595" y="333.681" transform="matrix(0.9925 -0.1224 0.1224 0.9925 -41.4996 32.8363)" style="fill:#2F54A4;" width="4.007" height="41.243"/>
				<polygon style="fill:#33334F;" points="251.111,374.524 247.134,375.014 249.626,378.854 				"/>
				
					<rect x="241.616" y="333.864" transform="matrix(0.9925 -0.1224 0.1224 0.9925 -39.156 32.3671)" style="fill:#071B40;" width="4.597" height="2.156"/>
				
					<rect x="241.187" y="334.173" transform="matrix(0.9925 -0.1224 0.1224 0.9925 -39.917 32.1497)" style="fill:#071B40;" width="1.158" height="13.717"/>
				
					<rect x="244.74" y="336.032" transform="matrix(0.9925 -0.1223 0.1223 0.9925 -41.6496 32.6444)" style="fill:#446FBC;" width="0.677" height="39.087"/>
				
					<rect x="242.294" y="331.945" transform="matrix(0.9925 -0.1224 0.1224 0.9925 -38.9033 32.3457)" style="fill:#2F54A4;" width="3.185" height="1.907"/>
			</g>
		</g>
		<polygon style="fill:#33334F;" points="250.205,374.185 246.242,373.592 247.614,377.959 		"/>
		<g>
			
				<rect x="234.01" y="353.597" transform="matrix(0.09 -0.9959 0.9959 0.09 -123.4333 576.1051)" style="fill:#EF9737;" width="39.087" height="4.007"/>
			
				<rect x="254.198" y="336.177" transform="matrix(0.9959 0.09 -0.09 0.9959 33.0624 -21.5029)" style="fill:#FAAA4B;" width="1.354" height="39.087"/>
			
				<rect x="251.557" y="335.907" transform="matrix(0.9959 0.09 -0.09 0.9959 33.0038 -21.2228)" style="fill:#FAAA4B;" width="0.677" height="39.087"/>
			<path style="fill:#D6409A;" d="M255.783,330.979L255.783,330.979c-1.104-0.1-2.079,0.714-2.179,1.818l-0.036,0.395l3.997,0.361
				l0.036-0.395C257.701,332.054,256.887,331.079,255.783,330.979z"/>
			
				<rect x="253.431" y="333.348" transform="matrix(0.9959 0.09 -0.09 0.9959 31.1765 -21.6392)" style="fill:#FFDD9F;" width="4.018" height="2.795"/>
		</g>
		<g>
			
				<rect x="241.259" y="354.774" transform="matrix(0.1048 -0.9945 0.9945 0.1048 -121.3457 578.7488)" style="fill:#EF9737;" width="39.087" height="4.007"/>
			
				<rect x="261.445" y="337.373" transform="matrix(0.9945 0.1048 -0.1048 0.9945 38.8505 -25.5062)" style="fill:#FAAA4B;" width="1.354" height="39.087"/>
			
				<rect x="258.809" y="337.06" transform="matrix(0.9945 0.1049 -0.1049 0.9945 38.8316 -25.2137)" style="fill:#FAAA4B;" width="0.677" height="39.087"/>
			<path style="fill:#D6409A;" d="M263.399,332.192L263.399,332.192c-1.102-0.116-2.09,0.683-2.206,1.785l-0.042,0.395l3.991,0.421
				l0.042-0.395C265.3,333.296,264.501,332.308,263.399,332.192z"/>
			
				<rect x="260.99" y="334.555" transform="matrix(0.9945 0.1048 -0.1048 0.9945 36.6712 -25.7218)" style="fill:#FFDD9F;" width="4.018" height="2.795"/>
		</g>
		<polygon style="fill:#D6409A;" points="266.524,419.451 234.879,419.451 232.147,361.625 269.256,361.625 		"/>
		<polygon style="fill:#FF6299;" points="232.147,361.625 234.879,419.451 240.31,419.451 237.578,361.625 		"/>
		<g>
			
				<rect x="461.727" y="142.942" transform="matrix(-1 -1.224647e-16 1.224647e-16 -1 1034.9183 357.928)" style="fill:#FFFFFF;" width="111.464" height="72.043"/>
			
				<rect x="467.631" y="148.413" transform="matrix(-1 -1.224647e-16 1.224647e-16 -1 1034.9183 357.928)" style="fill:none;stroke:#2C478A;stroke-miterlimit:10;" width="99.657" height="61.101"/>
			
				<rect x="474.724" y="186.382" transform="matrix(-1 -1.224647e-16 1.224647e-16 -1 1036.0354 377.9913)" style="fill:#FFCA60;" width="86.587" height="5.228"/>
			
				<rect x="479.312" y="169.677" transform="matrix(-1 -1.224647e-16 1.224647e-16 -1 1034.9183 353.0519)" style="fill:#FFCA60;" width="76.295" height="13.698"/>
			<path style="fill:#FFCA60;" d="M509.808,159.385c0,3.857,3.127,6.984,6.984,6.984c3.857,0,6.984-3.127,6.984-6.984
				c0-3.857-3.127-6.984-6.984-6.984C512.935,152.4,509.808,155.527,509.808,159.385z"/>
			<line style="fill:none;stroke:#2C478A;stroke-miterlimit:10;" x1="556.002" y1="199.329" x2="531.006" y2="199.329"/>
			<line style="fill:none;stroke:#2C478A;stroke-miterlimit:10;" x1="505.152" y1="199.329" x2="480.156" y2="199.329"/>
			<g>
				<polygon style="fill:#D6409A;" points="478.157,157.842 472.587,166.369 472.108,164.626 470.451,164.973 476.021,156.447 				
					"/>
				<polygon style="fill:#D6409A;" points="474.236,156.604 480.167,164.883 478.369,164.699 478.094,166.369 472.163,158.09 				
					"/>
				<path style="fill:#FFFFFF;stroke:#E2A32A;stroke-width:0.75;stroke-miterlimit:10;" d="M474.578,151.824L474.578,151.824
					c-0.144,0.574-0.862,0.767-1.274,0.341l0,0c-0.546-0.564-1.483-0.023-1.267,0.732l0,0c0.163,0.569-0.363,1.095-0.932,0.932l0,0
					c-0.755-0.216-1.296,0.721-0.732,1.267l0,0c0.425,0.411,0.233,1.13-0.341,1.274l0,0c-0.762,0.191-0.762,1.273,0,1.463l0,0
					c0.574,0.144,0.767,0.862,0.341,1.274l0,0c-0.564,0.546-0.023,1.483,0.732,1.267l0,0c0.569-0.163,1.095,0.364,0.932,0.932l0,0
					c-0.216,0.755,0.721,1.296,1.267,0.732l0,0c0.411-0.425,1.13-0.233,1.274,0.341l0,0c0.191,0.761,1.273,0.761,1.463,0l0,0
					c0.144-0.574,0.862-0.767,1.274-0.341l0,0c0.546,0.564,1.483,0.023,1.267-0.732l0,0c-0.163-0.569,0.363-1.095,0.932-0.932l0,0
					c0.755,0.216,1.296-0.721,0.732-1.267l0,0c-0.425-0.411-0.233-1.13,0.341-1.274l0,0c0.761-0.191,0.761-1.273,0-1.463l0,0
					c-0.574-0.144-0.767-0.862-0.341-1.274l0,0c0.564-0.546,0.023-1.483-0.732-1.267l0,0c-0.569,0.163-1.095-0.363-0.932-0.932l0,0
					c0.216-0.755-0.721-1.296-1.267-0.732l0,0c-0.411,0.425-1.13,0.233-1.274-0.341l0,0
					C475.851,151.063,474.768,151.063,474.578,151.824z"/>
				<path style="fill:#FFFFFF;stroke:#E2A32A;stroke-width:0.75;stroke-miterlimit:10;" d="M471.204,157.102
					c0,2.267,1.838,4.105,4.105,4.105c2.267,0,4.105-1.838,4.105-4.105c0-2.267-1.838-4.105-4.105-4.105
					C473.042,152.997,471.204,154.835,471.204,157.102z"/>
				<polygon style="fill:#DC9626;" points="475.233,155.571 474.695,156.661 473.493,156.836 474.363,157.684 474.158,158.882 
					475.233,158.317 476.309,158.882 476.104,157.684 476.974,156.836 475.771,156.661 				"/>
			</g>
		</g>
		<path style="fill:#F1CBA9;" d="M510.897,223.182c-0.162-0.521-0.324-1.042-0.484-1.56c-0.868-2.821-1.813-5.619-2.822-8.396
			c-0.597-1.642-2.421-4.676-1.261-6.256c0.849-1.155,2.906-1.489,3.984-0.466c0.951,0.902,1.35,2.318,1.97,3.419
			c1.107,1.964,2.793,3.609,4.246,5.337c0.518,0.616,0.911,1.591,1.771,1.84C515.519,218.734,513.028,220.79,510.897,223.182z"/>
		<g>
			
				<rect x="217.256" y="184.642" transform="matrix(0.7071 0.7071 -0.7071 0.7071 199.2161 -101.6226)" style="fill:#D6409A;" width="10.042" height="10.042"/>
			
				<rect x="277.981" y="250.071" transform="matrix(0.7071 0.7071 -0.7071 0.7071 263.269 -125.3979)" style="fill:#D6409A;" width="10.042" height="10.042"/>
			
				<rect x="134.458" y="201.386" transform="matrix(0.7071 0.7071 -0.7071 0.7071 186.8079 -38.1707)" style="fill:#D6409A;" width="10.042" height="10.042"/>
			
				<rect x="168.39" y="250.071" transform="matrix(0.9447 0.3279 -0.3279 0.9447 93.2207 -42.755)" style="fill:#D6409A;" width="10.042" height="10.042"/>
			
				<rect x="138.252" y="385.819" transform="matrix(0.9447 0.3279 -0.3279 0.9447 136.489 -25.6727)" style="fill:#D6409A;" width="12.259" height="12.259"/>
			
				<rect x="195.933" y="207.267" transform="matrix(-0.4837 -0.8753 0.8753 -0.4837 111.5713 487.8605)" style="fill:#DC9626;" width="7.508" height="7.507"/>
			
				<rect x="143.201" y="171.562" transform="matrix(0.7975 -0.6033 0.6033 0.7975 -77.3281 126.8024)" style="fill:#DC9626;" width="14.076" height="14.076"/>
			
				<rect x="225.784" y="240.933" transform="matrix(-0.4837 -0.8752 0.8752 -0.4837 125.5139 560.504)" style="fill:#FFFFFF;" width="4.596" height="4.596"/>
			
				<rect x="204.252" y="147.298" transform="matrix(-0.4837 -0.8753 0.8753 -0.4837 175.5181 402.7331)" style="fill:#FFFFFF;" width="4.596" height="4.596"/>
			
				<rect x="176.392" y="315.85" transform="matrix(-0.4837 -0.8753 0.8753 -0.4837 -13.3431 628.4238)" style="fill:#DC9626;" width="4.596" height="4.596"/>
			
				<rect x="204.252" y="337.306" transform="matrix(-0.4837 -0.8752 0.8752 -0.4837 9.2165 684.6449)" style="fill:#FFFFFF;" width="4.596" height="4.596"/>
			
				<rect x="116.946" y="388.24" transform="matrix(-0.4837 -0.8752 0.8752 -0.4837 -164.8968 683.8012)" style="fill:#FFFFFF;" width="4.596" height="4.596"/>
			
				<rect x="572.503" y="238.94" transform="matrix(-0.9926 -0.1214 0.1214 -0.9926 1121.1476 556.252)" style="fill:#D6409A;" width="10.042" height="10.042"/>
			
				<rect x="486.095" y="137.864" transform="matrix(-0.9926 -0.1215 0.1215 -0.9926 961.242 344.3577)" style="fill:#D6409A;" width="10.042" height="10.042"/>
			
				<rect x="526.412" y="88.361" transform="matrix(-0.9926 -0.1214 0.1214 -0.9926 1047.5927 250.6108)" style="fill:#D6409A;" width="10.042" height="10.042"/>
			
				<rect x="617.794" y="170.677" transform="matrix(-0.9926 -0.1214 0.1214 -0.9926 1219.6837 425.7303)" style="fill:#FFFFFF;" width="10.042" height="10.042"/>
			
				<rect x="440.193" y="63.018" transform="matrix(-0.9314 0.364 -0.364 -0.9314 884.65 -30.6594)" style="fill:#D6409A;" width="10.042" height="10.042"/>
			
				<rect x="245.627" y="116.636" transform="matrix(-0.9926 -0.1214 0.1214 -0.9926 484.6665 272.852)" style="fill:#FFFFFF;" width="10.042" height="10.042"/>
			
				<rect x="570.694" y="157.298" transform="matrix(-0.9462 0.3237 -0.3237 -0.9462 1172.9769 129.5628)" style="fill:#D6409A;" width="10.042" height="10.042"/>
			
				<rect x="570.694" y="298.119" transform="matrix(-0.9462 0.3237 -0.3237 -0.9462 1218.5566 403.62)" style="fill:#D6409A;" width="10.042" height="10.042"/>
			
				<rect x="578.41" y="209.468" transform="matrix(0.9202 0.3915 -0.3915 0.9202 129.9547 -210.9068)" style="fill:#DC9626;" width="7.507" height="7.508"/>
			
				<rect x="634.159" y="203.704" transform="matrix(-0.2566 0.9665 -0.9665 -0.2566 1002.1282 -355.8522)" style="fill:#DC9626;" width="7.507" height="7.508"/>
			
				<rect x="537.656" y="203.042" transform="matrix(0.9202 0.3915 -0.3915 0.9202 123.4995 -195.0106)" style="fill:#FFFFFF;" width="4.596" height="4.596"/>
			
				<rect x="579.866" y="343.999" transform="matrix(0.9202 0.3915 -0.3915 0.9202 182.0677 -200.2917)" style="fill:#FFFFFF;" width="4.596" height="4.596"/>
			
				<rect x="595.649" y="325.222" transform="matrix(0.9202 0.3915 -0.3915 0.9202 175.9804 -207.9743)" style="fill:#FFFFFF;" width="4.596" height="4.596"/>
			
				<rect x="530.417" y="113.601" transform="matrix(0.9202 0.3915 -0.3915 0.9202 87.9061 -199.32)" style="fill:#DC9626;" width="4.596" height="4.596"/>
			
				<rect x="253.944" y="177.47" transform="matrix(0.9202 0.3915 -0.3915 0.9202 90.8387 -85.9728)" style="fill:#DC9626;" width="4.596" height="4.596"/>
			
				<rect x="256.958" y="151.877" transform="matrix(0.9202 0.3915 -0.3915 0.9202 81.0641 -89.1995)" style="fill:#D6409A;" width="4.596" height="4.596"/>
			
				<rect x="426.868" y="99.755" transform="matrix(-0.2566 0.9665 -0.9665 -0.2566 640.6469 -286.1981)" style="fill:#DC9626;" width="7.034" height="7.034"/>
			
				<rect x="495.252" y="113.86" transform="matrix(0.9202 0.3915 -0.3915 0.9202 85.204 -185.5363)" style="fill:#FFFFFF;" width="4.596" height="4.596"/>
			
				<rect x="529.135" y="157.77" transform="matrix(0.9202 0.3915 -0.3915 0.9202 105.0975 -195.2922)" style="fill:#D6409A;" width="4.596" height="4.596"/>
			
				<rect x="322.511" y="77.892" transform="matrix(0.364 0.9314 -0.9314 0.364 285.5304 -252.3296)" style="fill:#D6409A;" width="10.042" height="10.042"/>
			
				<rect x="374.357" y="70.53" transform="matrix(0.3516 -0.9361 0.9361 0.3516 175.6138 402.1257)" style="fill:#DC9626;" width="7.508" height="7.507"/>
			
				<rect x="369.752" y="114.494" transform="matrix(0.3516 -0.9361 0.9361 0.3516 131.897 424.0187)" style="fill:#FFFFFF;" width="4.596" height="4.596"/>
			
				<rect x="280.704" y="125.57" transform="matrix(0.3516 -0.9361 0.9361 0.3516 63.7867 347.834)" style="fill:#DC9626;" width="4.596" height="4.596"/>
			
				<rect x="324.888" y="124.953" transform="matrix(0.3516 -0.9361 0.9361 0.3516 93.0123 388.7957)" style="fill:#D6409A;" width="4.596" height="4.596"/>
			
				<rect x="624.046" y="400.478" transform="matrix(0.743 0.6693 -0.6693 0.743 433.0609 -316.814)" style="fill:#DC9626;" width="10.042" height="10.042"/>
			
				<rect x="589.912" y="372.709" transform="matrix(0.4374 -0.8993 0.8993 0.4374 -4.9674 747.5199)" style="fill:#FFFFFF;" width="10.042" height="10.042"/>
			
				<rect x="263.62" y="406.23" transform="matrix(-0.6693 0.743 -0.743 -0.6693 750.6472 485.6077)" style="fill:#DC9626;" width="7.263" height="7.263"/>
			
				<rect x="271.234" y="359.797" transform="matrix(-0.6693 0.743 -0.743 -0.6693 725.642 401.2032)" style="fill:#FFFFFF;" width="4.596" height="4.596"/>
			
				<rect x="438.7" y="266.415" transform="matrix(-0.6693 0.743 -0.743 -0.6693 935.8062 120.8956)" style="fill:#D6409A;" width="4.596" height="4.596"/>
			
				<rect x="479.258" y="237.462" transform="matrix(-0.6693 0.743 -0.743 -0.6693 989.1916 45.1909)" style="fill:#FFFFFF;" width="10.562" height="10.561"/>
			
				<rect x="533.101" y="291.619" transform="matrix(-0.8307 -0.5568 0.5568 -0.8307 816.4909 836.1584)" style="fill:#DC9626;" width="4.596" height="4.596"/>
			
				<rect x="508.705" y="404.21" transform="matrix(-0.6693 0.743 -0.743 -0.6693 1155.0491 298.9095)" style="fill:#DC9626;" width="4.596" height="4.596"/>
			<polygon style="fill:#D6409A;" points="184.968,132.424 175.626,148.604 194.31,148.604 			"/>
			<polygon style="fill:#DC9626;" points="311.347,210.778 301.635,217.165 312.022,222.383 			"/>
			<polygon style="fill:#DC9626;" points="445.417,234.801 448.012,246.131 456.527,238.219 			"/>
			<polygon style="fill:#DC9626;" points="596.47,122.622 587.181,129.61 597.877,134.161 			"/>
			<polygon style="fill:#DC9626;" points="392.792,122.622 383.503,129.61 394.199,134.161 			"/>
			<polygon style="fill:#DC9626;" points="222.689,91.38 220.27,102.75 231.326,99.16 			"/>
			<polygon style="fill:#DC9626;" points="119.186,335.071 137.952,339.063 132.027,320.816 			"/>
			<polygon style="fill:#DC9626;" points="278.496,78.499 272.558,81.927 278.496,85.355 			"/>
		</g>
	</g>
</g>
</svg>
