<svg xmlns="http://www.w3.org/2000/svg" fill-rule="evenodd" stroke-linejoin="round" stroke-miterlimit="2" clip-rule="evenodd" viewBox="0 0 6000 6000" id="investment-return"><path fill="#eee" d="m1819.6 810.164 3 15.378 22.23-44.159-50.51 11.616 11.43 4.836-28.89 19.732-98.11-77.577a9.008 9.008 0 0 0-12.7 1.549l-35.45 45.796-24.14-6.106a9.014 9.014 0 0 0-9.06 2.885l-39 45.739c-3.22 3.778-2.77 9.462 1.01 12.683 3.78 3.222 9.47 2.77 12.69-1.008l35.37-41.483 24.42 6.18a9.019 9.019 0 0 0 9.33-3.215l33.5-43.268 96.17 76.044a9.003 9.003 0 0 0 10.66.372l38.05-25.994Z" transform="rotate(-17.071 -3771.615 34588.21) scale(6.69256)"></path><path fill="#eee" d="M1379.96 1064.88c-31.17-11.69-110.78-65.932-71.8-104.077 17.5-17.122 45.58-2.142 62.65-20.169 22.43-23.682 10.88-57.219 54.67-73.093 33.03-11.973 42.97 15.175 69.97 17.128 23.95 1.73 37.49-23.467 59.08-27.624 15.64-3.012 25.87 14.338 41.13 11.305 36.25-7.203 45.65-73.227 104.37-90.761 114.65-34.236 213.18 57.39 171.06 127.254-57.38 95.167-177.42 39.998-189.69 49.78-7.18 5.72 2.6 14.862.54 23.164-3.17 12.796-24.29 20.692-31.51 31.773-10.08 15.46-6.08 39.64-5.54 56.91l-264.93-1.59Z" transform="matrix(7.3655 0 0 8.9458 -8792.898 -5227.48)"></path><path fill="#eee" d="M1331.51 792.514c0-4.514-2.49-8.173-5.56-8.173h-11.19c-3.07 0-5.56 3.659-5.56 8.173v49.827c0 4.514 2.49 8.172 5.56 8.172h11.19c3.07 0 5.56-3.658 5.56-8.172v-49.827Z" transform="matrix(9.31058 0 0 5.52295 -8633.336 -384.47)"></path><path fill="#eee" d="M1331.51 790.406c0-1.608-.59-3.151-1.63-4.288-1.04-1.138-2.45-1.777-3.93-1.777h-11.19c-1.47 0-2.89.639-3.93 1.777-1.04 1.137-1.63 2.68-1.63 4.288v54.042c0 1.609.59 3.152 1.63 4.289 1.04 1.137 2.46 1.776 3.93 1.776h11.19c1.48 0 2.89-.639 3.93-1.776s1.63-2.68 1.63-4.289v-54.042Z" transform="matrix(9.31058 0 0 7.44213 -8359.145 -2016.764)"></path><path fill="#eee" d="M1331.51 787.705c0-.892-.59-1.747-1.63-2.378s-2.45-.986-3.93-.986h-11.19c-1.47 0-2.89.355-3.93.986s-1.63 1.486-1.63 2.378v59.444c0 .893.59 1.748 1.63 2.379s2.46.985 3.93.985h11.19c1.48 0 2.89-.354 3.93-.985s1.63-1.486 1.63-2.379v-59.444Z" transform="matrix(9.31058 0 0 13.41755 -8084.942 -7098.959)"></path><path fill="#eee" d="M1331.51 789.651c0-1.408-.59-2.759-1.63-3.754a5.677 5.677 0 0 0-3.93-1.556h-11.19c-1.47 0-2.89.56-3.93 1.556-1.04.995-1.63 2.346-1.63 3.754v55.552c0 1.409.59 2.759 1.63 3.755a5.694 5.694 0 0 0 3.93 1.555h11.19c1.48 0 2.89-.559 3.93-1.555 1.04-.996 1.63-2.346 1.63-3.755v-55.552Z" transform="matrix(9.31058 0 0 8.50024 -7810.739 -2916.712)"></path><path fill="#eee" d="M1331.51 788.878c0-1.204-.59-2.357-1.63-3.208s-2.45-1.329-3.93-1.329h-11.19c-1.47 0-2.89.478-3.93 1.329s-1.63 2.004-1.63 3.208v57.099c0 1.203.59 2.357 1.63 3.208s2.46 1.328 3.93 1.328h11.19c1.48 0 2.89-.477 3.93-1.328 1.04-.851 1.63-2.005 1.63-3.208v-57.099Z" transform="matrix(9.31058 0 0 9.95024 -7536.536 -4149.946)"></path><g transform="rotate(-2.6 -83063.832 203926.38) scale(7.65612)"><path fill="#6993a4" d="M1382.08 1063.78c-3.27-22.6-3.64-54.7-9.77-76.744-3.79-13.65-8.78-27.377-15.12-40.056-7.55-15.106-17.51-29.044-30.66-39.787-4.44-3.626-10.99-10.182-17.03-6.298-4.9 3.15-6.84 9.212-8.12 14.57-2.78 11.678-3.71 23.863-4.13 35.832-1.71 49.193 41.01 114.283 84.83 112.483Z"></path><clipPath id="a"><path d="M1382.08 1063.78c-3.27-22.6-3.64-54.7-9.77-76.744-3.79-13.65-8.78-27.377-15.12-40.056-7.55-15.106-17.51-29.044-30.66-39.787-4.44-3.626-10.99-10.182-17.03-6.298-4.9 3.15-6.84 9.212-8.12 14.57-2.78 11.678-3.71 23.863-4.13 35.832-1.71 49.193 41.01 114.283 84.83 112.483Z"></path></clipPath><g clip-path="url(#a)"><path fill="#4b7686" d="M1289.39 1007.89c1.52 5.24 13.19-16.328 16.4-12.059 12.12 16.079 31.45 28.979 52.57 24.179 3.85-.88 7.43-2.44 10.42-5.06 6.4-5.61 10.16-14.9 20.64-12.82 1.61.32 3.2.87 4.62 1.7 1.69.99 3.13 2.32 4.42 3.79 2.15 2.44 3.97 5.2 5.37 8.14 9.6 20.19 3.17 54.31-23.02 56.94-3.35.34-6.74.12-10.03-.59-34.38-7.43-64.82-33.96-81.39-64.22Z" transform="rotate(6.941 1406.681 946.192)"></path></g></g><path fill="#fff" d="M1322.73 961.245c-4.29-1.65-10.48-5.61-14.45-9.737a1.008 1.008 0 0 0-1.42-.026.992.992 0 0 0-.02 1.414c4.68 4.861 12.28 9.466 16.77 10.755 2.45 6.549 5.34 12.883 8.78 18.727 4.19 7.115 9.4 13.625 14.72 20.022-10.09-2.2-25.03-7.787-33.2-13.085a.998.998 0 1 0-1.08 1.678c8.87 5.758 25.57 11.857 35.8 13.757.15.03.29.03.43-.01 2.63 3.16 5.26 6.3 7.78 9.49 3.52 4.45 6.88 9.04 10.09 13.75-9.38-.07-23.91-2.49-32.35-6.01a1 1 0 0 0-1.31.53c-.21.51.03 1.1.54 1.31 9.06 3.78 24.96 6.33 34.46 6.16 4.19 6.27 8.11 12.72 11.79 19.25a1.003 1.003 0 0 0 1.75-.98c-5.04-8.95-10.54-17.74-16.54-26.12.02-.06.03-.12.03-.18 1.32-12.77-.12-29.997-1.39-42.709a1 1 0 0 0-1.99.199c1.19 11.918 2.54 27.84 1.58 40.24-1.66-2.26-3.35-4.49-5.09-6.68-8.19-10.36-17.57-20.206-24.29-31.626-.36-.604-.71-1.214-1.05-1.828 2.9-11.069 5.76-21.7 6.83-33.186a1.006 1.006 0 0 0-.91-1.088.992.992 0 0 0-1.08.904c-.99 10.658-3.55 20.572-6.23 30.795-6.85-13.097-11.21-28.189-14.36-42.449a.998.998 0 1 0-1.95.431c1.91 8.671 4.28 17.644 7.36 26.302Z" transform="rotate(4.341 59739.07 -113749.725) scale(7.65612)"></path><g transform="rotate(-32.385 354.948 19219.857) scale(6.8072)"><path fill="#6993a4" d="M1382.08 1063.78c-3.27-22.6-3.64-54.7-9.77-76.744-3.79-13.65-8.78-27.377-15.12-40.056-7.55-15.106-17.51-29.044-30.66-39.787-4.44-3.626-10.99-10.182-17.03-6.298-4.9 3.15-6.84 9.212-8.12 14.57-2.78 11.678-3.71 23.863-4.13 35.832-1.71 49.193 41.01 114.283 84.83 112.483Z"></path><clipPath id="b"><path d="M1382.08 1063.78c-3.27-22.6-3.64-54.7-9.77-76.744-3.79-13.65-8.78-27.377-15.12-40.056-7.55-15.106-17.51-29.044-30.66-39.787-4.44-3.626-10.99-10.182-17.03-6.298-4.9 3.15-6.84 9.212-8.12 14.57-2.78 11.678-3.71 23.863-4.13 35.832-1.71 49.193 41.01 114.283 84.83 112.483Z"></path></clipPath><g clip-path="url(#b)"><path fill="#4b7686" d="M1289.39 1007.89c1.52 5.24 13.19-16.328 16.4-12.059 12.12 16.079 31.45 28.979 52.57 24.179 3.85-.88 7.43-2.44 10.42-5.06 6.4-5.61 10.16-14.9 20.64-12.82 1.61.32 3.2.87 4.62 1.7 1.69.99 3.13 2.32 4.42 3.79 2.15 2.44 3.97 5.2 5.37 8.14 9.6 20.19 3.17 54.31-23.02 56.94-3.35.34-6.74.12-10.03-.59-34.38-7.43-64.82-33.96-81.39-64.22Z" transform="rotate(6.941 1406.681 946.192)"></path></g></g><path fill="#fff" d="M1322.73 961.245c-4.29-1.65-10.48-5.61-14.45-9.737a1.008 1.008 0 0 0-1.42-.026.992.992 0 0 0-.02 1.414c4.68 4.861 12.28 9.466 16.77 10.755 2.45 6.549 5.34 12.883 8.78 18.727 4.19 7.115 9.4 13.625 14.72 20.022-10.09-2.2-25.03-7.787-33.2-13.085a.998.998 0 1 0-1.08 1.678c8.87 5.758 25.57 11.857 35.8 13.757.15.03.29.03.43-.01 2.63 3.16 5.26 6.3 7.78 9.49 3.52 4.45 6.88 9.04 10.09 13.75-9.38-.07-23.91-2.49-32.35-6.01a1 1 0 0 0-1.31.53c-.21.51.03 1.1.54 1.31 9.06 3.78 24.96 6.33 34.46 6.16 4.19 6.27 8.11 12.72 11.79 19.25a1.003 1.003 0 0 0 1.75-.98c-5.04-8.95-10.54-17.74-16.54-26.12.02-.06.03-.12.03-.18 1.32-12.77-.12-29.997-1.39-42.709a1 1 0 0 0-1.99.199c1.19 11.918 2.54 27.84 1.58 40.24-1.66-2.26-3.35-4.49-5.09-6.68-8.19-10.36-17.57-20.206-24.29-31.626-.36-.604-.71-1.214-1.05-1.828 2.9-11.069 5.76-21.7 6.83-33.186a1.006 1.006 0 0 0-.91-1.088.992.992 0 0 0-1.08.904c-.99 10.658-3.55 20.572-6.23 30.795-6.85-13.097-11.21-28.189-14.36-42.449a.998.998 0 1 0-1.95.431c1.91 8.671 4.28 17.644 7.36 26.302Z" transform="rotate(-25.444 -1099.56 23300.106) scale(6.8072)"></path><path fill="#023341" d="m1684.12 972.549-26.68-44.289h53.37l-26.69 44.289Z" transform="translate(-9503.194 -4735.123) scale(8.30084)"></path><path fill="#4b7686" d="M1712.8 924.953h-57.35l-24.69-40.982h106.73l-24.69 40.982Z" transform="translate(-9503.194 -4735.123) scale(8.30084)"></path><path fill="#6993a4" d="M1739.48 880.664h-110.71l-24.69-40.983h160.09l-24.69 40.983Z" transform="translate(-9503.194 -4735.123) scale(8.30084)"></path><path fill="#a6d2e4" d="M1766.16 836.375h-164.07l-24.58-40.798h213.23l-24.58 40.798Z" transform="translate(-9503.194 -4735.123) scale(8.30084)"></path><g transform="translate(-9056.615 -3852.12) scale(7.65612)"><g transform="matrix(1.61454 0 0 .80125 -836.046 233.838)"><path fill="#f25c05" d="M1445.12 821.351c-9.36-21.6-61.94-18.778-70.56 3.062-25.13 63.629-14.13 213.717-14.13 213.717l107.58 1.76c-14.1-35.75-7.31-182.626-22.89-218.539Z"></path><clipPath id="c"><path d="M1445.12 821.351c-9.36-21.6-61.94-18.778-70.56 3.062-25.13 63.629-14.13 213.717-14.13 213.717l107.58 1.76c-14.1-35.75-7.31-182.626-22.89-218.539Z"></path></clipPath><g clip-path="url(#c)"><path fill="#d23f00" d="M1518.47 953.011c-15.98 40.98 26.85 52.499-17.48 96.559-10.38 10.32-4.79 18.48 6.3 29.93 16.44 16.97 47.97 1.01 58.59-15.35 7.88-12.15-47.9-97.037-47.41-111.139Z" transform="matrix(.61157 -.19738 .09796 1.23234 415.405 24.795)"></path></g></g><path fill="#023341" d="M1763.7 937.204c0-2.098-2.44-3.798-5.44-3.798-3 0-5.44 1.7-5.44 3.798v124.646c0 2.09 2.44 3.79 5.44 3.79 3 0 5.44-1.7 5.44-3.79V937.204Z" transform="matrix(.61416 .3325 -.56665 1.04665 1153.37 -788.434)"></path><path fill="#fad8ba" d="m1635.94 885.06-45.62 58.585-101.17-56.746s-31.91 43.467 13.67 108.479c15.81 22.542 60.35 33.052 87.95 20.772 56.84-25.286 68.58-96.441 71.09-115.687 0 0 3.96-10.812 4.81-14.306 7.18-29.391-3.81-29.279-3.81-29.279s-13.61 27.875-13.84 11.356c-.03-2.626-3.69-4.05-6.46.075-3.52 5.232-6.62 16.751-6.62 16.751Z"></path><clipPath id="d"><path d="m1635.94 885.06-45.62 58.585-101.17-56.746s-31.91 43.467 13.67 108.479c15.81 22.542 60.35 33.052 87.95 20.772 56.84-25.286 68.58-96.441 71.09-115.687 0 0 3.96-10.812 4.81-14.306 7.18-29.391-3.81-29.279-3.81-29.279s-13.61 27.875-13.84 11.356c-.03-2.626-3.69-4.05-6.46.075-3.52 5.232-6.62 16.751-6.62 16.751Z"></path></clipPath><g clip-path="url(#d)"><path fill="#d7b699" d="M1684.08 847.977c3.33 1.066-4.13 4.861-5.86 7.937-2.18 3.891-2.04 5.357-1.25 7.724 2.58 7.73 5.2 15.973-3.87 23.837-2.09 1.806-10.55 4.666-10.55 4.666s3.66 2.667 4.43 3.354c2.27 2.025 3.26 5.23 3.25 8.194-.03 8.28-4.13 17.498-7.58 24.846-9.61 20.505-23.99 38.239-43.29 50.179-8.52 5.264-17.92 9.254-27.69 11.446a449.87 449.87 0 0 1-8.34 1.792c-1.19.243-3.01.545-3.64 1.774-1.45 2.871 4.19 7.184 5.78 8.764 7.36 7.31 13.95 17.12 23.86 20.98 22.38 8.72 41.46-13.69 53.62-29.322a252.213 252.213 0 0 0 15.21-21.854c3.88-6.254 7.32-12.761 10.61-19.347 2.78-5.582 5.42-11.246 7.77-17.029 11.1-27.386 18.94-70.751-12.46-87.941Z" transform="translate(-14.814)"></path><path fill="#f25c05" d="M1557.26 905.509c.19 2.483 2.49 6 3.17 8.535 1.78 6.664 2.64 13.772 2.07 20.659-1.06 12.922-10.08 26.195-4.68 39.214 7.1 17.132 32.67 13.343 32.95 34.533.03 2.94-.32 5.86-1.18 8.67-6.68 21.91-35.94 27.64-55.6 24.76-37.7-5.53-65.98-36.24-76.28-71.773-8.05-27.767-7.97-60.697 4.48-87.17 7.44-15.822 24.01-36.04 44-29.653 9.17 2.926 44.87 45.214 51.07 52.225Z"></path></g><g transform="matrix(1 0 0 1.01312 2.328 -22.874)"><path fill="#fad8ba" d="M1452.17 868.038h-24.68c2.64 9.967-3.16 18.047-6.5 24.708 6.97 13.364 25.94 7.772 30.99-1.53-4.78-9.556-4.15-15.621.19-23.178Z"></path><clipPath id="e"><path d="M1452.17 868.038h-24.68c2.64 9.967-3.16 18.047-6.5 24.708 6.97 13.364 25.94 7.772 30.99-1.53-4.78-9.556-4.15-15.621.19-23.178Z"></path></clipPath><g clip-path="url(#e)"><path fill="#d7b699" d="M1451.32 848.04c.52 1.182-3.32 7.779-2.66 8.887 1.61 2.694 3.32 5.313 5.22 7.814 1.81 2.392 3.8 4.785 6.07 6.772 2.15 1.886 4.74 3.432 7.3 4.712 1.06.53 2.42 1.191 3.64.879 1.59-.407 2.23-2.736 2.63-4.073 1.32-4.396.9-9.559-.69-13.82-3.2-8.613-12.67-13.321-21.51-11.171Z" transform="matrix(.99891 -.04606 .0514 1.08607 -59.873 5.98)"></path></g></g><path fill="#fad8ba" d="M1442.84 817.929c13.32 0 24.14 11.287 24.14 25.189 0 13.903-1.49 26.516-14.81 26.516s-33.47-12.613-33.47-26.516c0-13.902 10.82-25.189 24.14-25.189Z" transform="matrix(.85403 0 0 1 214.361 .91)"></path><path fill="#03222f" d="M1423.32 861.661c4.66 2.047 7.58.482 11.01.935 2.73.362 5.34.338 8.06-.118 3.68-.617 11.74-3.366 11.2-8.519-.33-3.257-2.24-6.005-2.24-9.421 0-1.277.24-3.34 1.66-3.841 2.84-1 2.17 5.001 2.54 6.295.25.845.88 2.233 1.98 1.661 1.19-.623 1.26-2.246 1.27-3.408.05-2.946-1.28-5.66-.88-8.64 3.13.498 6.87.378 9.63-1.339 7.64-4.751 6.07-16.84-.09-21.996-12.79-10.707-35.99-4.922-43.86 9.18-4.06 7.277-3.59 16.481-2 24.376-2.03.174-3.41 2.328-4.32 3.9-2.73 4.694 2.86 9.543 6.04 10.935Z"></path></g><path fill="#023341" d="M1575.69 1167.66h201.434v14.442H1575.69z" transform="matrix(2.45687 0 0 7.65612 352.536 -4726.329)"></path><g transform="matrix(7.65612 0 0 9.115 -8533.05 -6932.279)"><path fill="#023341" d="M1728.42 1222.78h-59.74l14.94-34.17h29.86l14.94 34.17Z"></path><clipPath id="f"><path d="M1728.42 1222.78h-59.74l14.94-34.17h29.86l14.94 34.17Z"></path></clipPath><g clip-path="url(#f)"><path fill="#03222f" d="M1780.71 1005.03c2.65 3.65 4.69 7.87 6.59 11.95 1.46 3.11 2.92 6.26 3.73 9.6.41 1.7.63 3.41.48 5.17-.98 11.16-16.37 13.52-25.09 11.49-4.46-1.04-8.8-4.11-13.51-3.59-5.92.66-5.56 11.44-2.98 15.15 4.8 6.91 15.09 5.19 22.83 6.25 15.21 2.08 35.84 3.93 46.29-8.76 4.21-5.13 3.38-14.5 1.96-21.11-.77-3.61-38.5-22.96-40.3-26.15Z" transform="matrix(1 0 0 .83995 -83.199 337.921)"></path></g></g><path fill="#6993a4" d="M1575.69 1167.66h201.434v14.442H1575.69z" transform="matrix(8.61872 1.6981 -1.11767 5.67276 -8660.296 -5622.577)"></path><path fill="#a6d2e4" d="M1575.69 1167.66h201.434v14.442H1575.69z" transform="matrix(8.28844 1.63303 -.55884 2.83638 -8793.063 -2208.131)"></path><path fill="#f29f05" fill-rule="nonzero" d="M1698.69 575.454c0-4.787 1.56-8.673 4.66-11.656 3.11-2.983 7.19-4.475 12.22-4.475 5.11 0 9.22 1.474 12.33 4.421 3.11 2.948 4.66 6.941 4.66 11.978v3.859c0 4.823-1.55 8.7-4.66 11.63-3.11 2.929-7.18 4.394-12.22 4.394-5.07 0-9.17-1.474-12.3-4.421-3.13-2.948-4.69-6.923-4.69-11.924v-3.806Zm10.29 4.127c0 2.144.62 3.868 1.85 5.172 1.23 1.304 2.85 1.956 4.85 1.956 2 0 3.59-.661 4.77-1.983 1.18-1.322 1.77-3.091 1.77-5.306v-3.966c0-2.143-.59-3.876-1.77-5.198-1.18-1.322-2.81-1.983-4.88-1.983-1.96 0-3.55.652-4.77 1.956-1.21 1.304-1.82 3.117-1.82 5.44v3.912Zm27.01 39.766c0-4.824 1.57-8.709 4.72-11.657 3.14-2.947 7.21-4.421 12.22-4.421 5.07 0 9.17 1.456 12.3 4.368 3.12 2.912 4.68 6.922 4.68 12.031v3.859c0 4.788-1.53 8.655-4.6 11.603-3.08 2.947-7.17 4.421-12.28 4.421-5.14 0-9.27-1.483-12.38-4.448-3.1-2.965-4.66-6.896-4.66-11.79v-3.966Zm10.29 4.18c0 1.965.64 3.644 1.93 5.038 1.29 1.393 2.89 2.09 4.82 2.09 4.36 0 6.54-2.412 6.54-7.235v-4.073c0-2.144-.61-3.868-1.82-5.172-1.21-1.304-2.82-1.956-4.82-1.956-2.01 0-3.61.652-4.83 1.956-1.21 1.304-1.82 3.082-1.82 5.333v4.019Zm-27.55 9.111-7.55-4.073 38.1-60.989 7.56 4.073-38.11 60.989Z" transform="matrix(6.65389 0 0 8.01734 -7534.223 -1355.237)"></path><g transform="scale(-9.95916 9.95916) rotate(12.499 3196.602 -10268.69)"><circle cx="1873.49" cy="922.267" r="28.654" fill="#f29f05"></circle><clipPath id="g"><circle cx="1873.49" cy="922.267" r="28.654"></circle></clipPath><g clip-path="url(#g)"><path fill="#d98a00" d="M1078.06 1036.13c3.78 18.66 2.57 41.21-14.47 53.1a42.774 42.774 0 0 1-10.56 5.33c-9.42 3.22-20.72 3.17-29.76-1.21-2.66-1.28-5.19-2.91-7.34-4.94-1.35-1.27-2.69-3.39-4.37-4.22-1.67-.83-2.13 1.29-2.03 2.49.36 4.52 3.42 9 6.17 12.4 10.58 13.09 28.05 16.93 43.83 11.83 27.21-8.79 41.45-49.94 18.53-74.78Z" transform="translate(1082.17 116.823) scale(.75569)"></path></g></g><path fill="#fff" fill-rule="nonzero" d="M1754.55 918.17c0-2.929-.81-5.261-2.44-6.993-1.62-1.733-4.38-3.332-8.28-4.797-3.89-1.465-7.25-2.921-10.07-4.368-2.83-1.447-5.25-3.108-7.27-4.984a20.055 20.055 0 0 1-4.71-6.619c-1.13-2.536-1.69-5.555-1.69-9.057 0-6.038 1.93-10.986 5.79-14.845 3.86-3.859 8.98-6.109 15.38-6.753v-11.468h8.57v11.629c6.33.893 11.28 3.528 14.85 7.905 3.57 4.377 5.36 10.049 5.36 17.016h-15.49c0-4.288-.89-7.494-2.65-9.62-1.77-2.126-4.14-3.189-7.1-3.189-2.93 0-5.2.831-6.81 2.492-1.61 1.662-2.41 3.957-2.41 6.887 0 2.715.78 4.895 2.36 6.538 1.57 1.644 4.49 3.323 8.76 5.038 4.27 1.715 7.78 3.332 10.53 4.85 2.75 1.518 5.07 3.233 6.97 5.145a19.971 19.971 0 0 1 4.34 6.538c1 2.448 1.5 5.297 1.5 8.548 0 6.074-1.9 11.005-5.68 14.792-3.79 3.787-9.01 6.02-15.65 6.699v10.665h-8.52v-10.612c-7.33-.786-13-3.385-17.02-7.797-4.02-4.413-6.03-10.281-6.03-17.605h15.49c0 4.251 1.01 7.511 3.03 9.78 2.02 2.269 4.92 3.403 8.71 3.403 3.14 0 5.62-.83 7.45-2.492 1.82-1.661 2.73-3.903 2.73-6.726Z" transform="rotate(-42.499 6296.897 4915.535) scale(3.59509)"></path><path fill="#03222f" d="M1358.95 1066.85h457.854v8.317H1358.95z" transform="matrix(7.65612 0 0 2.76774 -9045.253 1357.523)"></path><path fill="#03222f" d="M1358.95 1066.85h457.854v8.317H1358.95z" transform="matrix(.8203 0 0 2.94141 -248.325 1175.132)"></path></svg>