<?xml version="1.0" encoding="utf-8"?>
<!-- Generator: Adobe Illustrator 27.5.0, SVG Export Plug-In . SVG Version: 6.00 Build 0)  -->
<svg version="1.1" xmlns="http://www.w3.org/2000/svg" xmlns:xlink="http://www.w3.org/1999/xlink" x="0px" y="0px"
	 viewBox="0 0 500 500" style="enable-background:new 0 0 500 500;" xml:space="preserve">
<g id="Background_Complete">
	<g>
		<rect y="382.398" style="fill:#EBEBEB;" width="500" height="0.25"/>
		<rect x="416.779" y="398.494" style="fill:#EBEBEB;" width="33.122" height="0.25"/>
		<rect x="322.527" y="401.208" style="fill:#EBEBEB;" width="8.693" height="0.25"/>
		<rect x="396.586" y="389.208" style="fill:#EBEBEB;" width="19.192" height="0.25"/>
		<rect x="52.459" y="390.888" style="fill:#EBEBEB;" width="43.193" height="0.25"/>
		<rect x="104.556" y="390.888" style="fill:#EBEBEB;" width="6.333" height="0.25"/>
		<rect x="131.471" y="395.111" style="fill:#EBEBEB;" width="93.676" height="0.25"/>
		<path style="fill:#EBEBEB;" d="M237.014,337.8H43.915c-3.147,0-5.708-2.561-5.708-5.708V60.66c0-3.147,2.561-5.708,5.708-5.708
			h193.099c3.146,0,5.707,2.561,5.707,5.708v271.432C242.721,335.239,240.16,337.8,237.014,337.8z M43.915,55.203
			c-3.01,0-5.458,2.448-5.458,5.458v271.432c0,3.01,2.448,5.458,5.458,5.458h193.099c3.009,0,5.457-2.448,5.457-5.458V60.66
			c0-3.009-2.448-5.458-5.457-5.458H43.915z"/>
		<path style="fill:#EBEBEB;" d="M453.31,337.8H260.212c-3.147,0-5.707-2.561-5.707-5.708V60.66c0-3.147,2.561-5.708,5.707-5.708
			H453.31c3.148,0,5.708,2.561,5.708,5.708v271.432C459.019,335.239,456.458,337.8,453.31,337.8z M260.212,55.203
			c-3.009,0-5.457,2.448-5.457,5.458v271.432c0,3.01,2.448,5.458,5.457,5.458H453.31c3.01,0,5.458-2.448,5.458-5.458V60.66
			c0-3.009-2.448-5.458-5.458-5.458H260.212z"/>
	</g>
	<g>
		<g>
			<rect x="66.788" y="153.098" style="fill:#E0E0E0;" width="130.438" height="6.702"/>
			<rect x="72.791" y="128.394" style="fill:#EBEBEB;" width="5.746" height="24.704"/>
			<rect x="100.578" y="128.394" style="fill:#EBEBEB;" width="5.747" height="24.704"/>
			
				<rect x="134.262" y="128.086" transform="matrix(0.9855 -0.1698 0.1698 0.9855 -21.8596 25.3314)" style="fill:#EBEBEB;" width="5.747" height="24.704"/>
			<rect x="79.912" y="131.65" style="fill:#EBEBEB;" width="5.747" height="21.448"/>
			<rect x="93.12" y="131.65" style="fill:#EBEBEB;" width="5.747" height="21.448"/>
			<rect x="126.46" y="131.65" style="fill:#EBEBEB;" width="5.747" height="21.448"/>
			
				<rect x="110.52" y="131.282" transform="matrix(0.9762 -0.2169 0.2169 0.9762 -28.1009 27.9748)" style="fill:#EBEBEB;" width="5.747" height="21.448"/>
			<rect x="87.754" y="127.168" style="fill:#EBEBEB;" width="2.873" height="25.93"/>
			<rect x="121.935" y="127.168" style="fill:#EBEBEB;" width="2.873" height="25.93"/>
			<rect x="156.71" y="133.546" style="fill:#EBEBEB;" width="28" height="19.331"/>
		</g>
		<g>
			
				<rect x="66.788" y="203.13" transform="matrix(-1 -1.224647e-16 1.224647e-16 -1 264.0135 412.9612)" style="fill:#E0E0E0;" width="130.438" height="6.702"/>
			
				<rect x="185.476" y="178.426" transform="matrix(-1 -1.224647e-16 1.224647e-16 -1 376.6978 381.5555)" style="fill:#EBEBEB;" width="5.747" height="24.704"/>
			
				<rect x="157.689" y="178.426" transform="matrix(-1 -1.224647e-16 1.224647e-16 -1 321.1245 381.5555)" style="fill:#EBEBEB;" width="5.747" height="24.704"/>
			
				<rect x="124.005" y="178.117" transform="matrix(-0.9855 -0.1698 0.1698 -0.9855 219.5627 399.7204)" style="fill:#EBEBEB;" width="5.746" height="24.704"/>
			
				<rect x="178.355" y="181.681" transform="matrix(-1 -1.224647e-16 1.224647e-16 -1 362.4568 384.811)" style="fill:#EBEBEB;" width="5.746" height="21.448"/>
			
				<rect x="165.147" y="181.681" transform="matrix(-1 -1.224647e-16 1.224647e-16 -1 336.0401 384.811)" style="fill:#EBEBEB;" width="5.747" height="21.448"/>
			
				<rect x="131.807" y="181.681" transform="matrix(-1 -1.224647e-16 1.224647e-16 -1 269.3611 384.811)" style="fill:#EBEBEB;" width="5.747" height="21.448"/>
			
				<rect x="147.746" y="181.313" transform="matrix(-0.9762 -0.2169 0.2169 -0.9762 256.0023 412.1721)" style="fill:#EBEBEB;" width="5.747" height="21.449"/>
			
				<rect x="173.386" y="177.199" transform="matrix(-1 -1.224647e-16 1.224647e-16 -1 349.6454 380.329)" style="fill:#EBEBEB;" width="2.873" height="25.93"/>
			
				<rect x="139.206" y="177.199" transform="matrix(-1 -1.224647e-16 1.224647e-16 -1 281.2846 380.329)" style="fill:#EBEBEB;" width="2.873" height="25.93"/>
			
				<rect x="79.304" y="183.577" transform="matrix(-1 -1.224647e-16 1.224647e-16 -1 186.6074 386.4853)" style="fill:#EBEBEB;" width="28" height="19.331"/>
		</g>
		<g>
			<path style="fill:#E0E0E0;" d="M429.978,102.211H270.658c-1.172,0-2.122-0.95-2.122-2.122v-2.268c0-1.172,0.95-2.122,2.122-2.122
				h159.321c1.172,0,2.122,0.95,2.122,2.122v2.268C432.1,101.261,431.15,102.211,429.978,102.211z"/>
			<rect x="278.252" y="100.879" style="fill:#E6E6E6;" width="144.132" height="127.896"/>
			<rect x="281.861" y="104.385" style="fill:#F0F0F0;" width="136.729" height="120.953"/>
			<polygon style="fill:#FFFFFF;" points="313.95,104.385 281.861,225.075 281.861,168.363 298.804,104.385 			"/>
			<polygon style="fill:#FFFFFF;" points="325.315,104.385 292.945,225.338 287.778,225.338 320.149,104.385 			"/>
			<polygon style="fill:#FFFFFF;" points="418.591,180.707 418.591,200.035 412.041,225.338 406.874,225.338 			"/>
			<rect x="327.247" y="102.211" style="fill:#E6E6E6;" width="2.304" height="125.828"/>
			<rect x="371.883" y="102.211" style="fill:#E6E6E6;" width="2.303" height="125.828"/>
			<g>
				<path style="fill:#E0E0E0;" d="M398.894,97.78c0,0,3.314,43.271,22.385,65.324c0,0-13.889,55.686-13.879,75.104l25.813-4.764
					l-9.304-70.017l4.45-65.647H398.894z"/>
				<path style="fill:#E0E0E0;" d="M301.742,97.78c0,0-3.315,43.271-22.385,65.324c0,0,13.889,55.686,13.879,75.104l-25.813-4.764
					l9.304-70.017l-4.45-65.647H301.742z"/>
			</g>
		</g>
		<g>
			
				<ellipse transform="matrix(0.9732 -0.2298 0.2298 0.9732 -15.6524 32.5626)" style="fill:#E0E0E0;" cx="132.007" cy="83.497" rx="22.176" ry="22.176"/>
			
				<ellipse transform="matrix(0.9871 -0.1602 0.1602 0.9871 -11.6702 22.2233)" style="fill:#F0F0F0;" cx="132.007" cy="83.497" rx="18.855" ry="18.855"/>
			
				<polyline style="fill:#F0F0F0;stroke:#E0E0E0;stroke-width:2;stroke-linecap:round;stroke-linejoin:round;stroke-miterlimit:10;" points="
				132.896,70.562 132.896,83.743 141.631,78.8 			"/>
		</g>
	</g>
</g>
<g id="Background_Simple" style="display:none;">
	<g style="display:inline;">
		<path style="fill:#407BFF;" d="M79.518,143.525c1.259-3.244,2.642-6.429,4.15-9.542c20.441-42.201,69.461-60.066,113.978-52.491
			c49.926,8.496,85.351,44.18,95.886,93.123c8.34,38.747,32.077,42.733,43.115,25.488c11.038-17.244,38.422-33.606,65.105-15.028
			c41.632,28.987,17.015,89.377-9.474,119.701c-44.153,50.546-110.354,75.636-176.286,60.99
			c-54.789-12.171-107.199-47.85-131.551-99.379C67.064,229.62,64.477,182.282,79.518,143.525z"/>
		<path style="opacity:0.9;fill:#FFFFFF;" d="M79.518,143.525c1.259-3.244,2.642-6.429,4.15-9.542
			c20.441-42.201,69.461-60.066,113.978-52.491c49.926,8.496,85.351,44.18,95.886,93.123c8.34,38.747,32.077,42.733,43.115,25.488
			c11.038-17.244,38.422-33.606,65.105-15.028c41.632,28.987,17.015,89.377-9.474,119.701
			c-44.153,50.546-110.354,75.636-176.286,60.99c-54.789-12.171-107.199-47.85-131.551-99.379
			C67.064,229.62,64.477,182.282,79.518,143.525z"/>
	</g>
</g>
<g id="Shadow_1_">
	<ellipse id="_x3C_Path_x3E__359_" style="fill:#F5F5F5;" cx="250" cy="416.238" rx="193.889" ry="11.323"/>
</g>
<g id="Plant">
	<g>
		<g>
			<path style="fill:#407BFF;" d="M81.163,384.849c-0.152-1.024-3.652-25.172,3.359-33.509c1.552-1.845,3.51-2.81,5.821-2.867
				c14.153-0.332,16.089,11.036,16.106,11.152l-1.669,0.257c-0.065-0.407-1.743-10.027-14.396-9.721
				c-1.831,0.044-3.326,0.786-4.57,2.265c-6.527,7.761-3.018,31.93-2.981,32.173L81.163,384.849z"/>
		</g>
		<g>
			<path style="fill:#407BFF;" d="M80.307,383.748l-1.688-0.053c0.007-0.222,0.561-22.25-10.293-26.801
				c-10.637-4.456-15.422,4.706-15.62,5.099l-1.509-0.759c0.055-0.11,5.67-10.976,17.782-5.897
				C80.901,360.336,80.336,382.795,80.307,383.748z"/>
		</g>
		<g>
			<path style="fill:#407BFF;" d="M80.355,385.479c0-0.351-0.101-35.19-6.894-45.38c-6.522-9.782-17.043-5.177-17.487-4.975
				l-0.698-1.538c0.122-0.055,12.263-5.415,19.59,5.576c7.075,10.613,7.177,44.862,7.178,46.315L80.355,385.479z"/>
		</g>
		<path style="fill:#407BFF;" d="M92.368,349.31c0,0-6.179,2.278-4.342,7.656c1.837,5.378,21.377,14.23,21.377,14.23
			s8.184-7.501,0.668-19.7C102.556,339.296,92.535,345.461,92.368,349.31z"/>
		<path style="fill:#407BFF;" d="M73.155,338.264c0,0,4.387-0.471,4.034-3.143c-0.353-2.672-17.054-9.55-26.908,1.572
			c0,0,6.309,10.838,15.43,10.98C74.832,347.814,73.155,338.264,73.155,338.264z"/>
		<path style="fill:#407BFF;" d="M68.652,356.116c0,0,3.028-2.445-0.24-3.638c-3.268-1.193-19.301-0.854-19.468,15.028
			c0,0,18.673,3.103,20.985-2.946C72.241,358.509,68.652,356.116,68.652,356.116z"/>
		<path style="opacity:0.2;fill:#FFFFFF;enable-background:new    ;" d="M92.368,349.31c0,0-6.179,2.278-4.342,7.656
			c1.837,5.378,21.377,14.23,21.377,14.23s8.184-7.501,0.668-19.7C102.556,339.296,92.535,345.461,92.368,349.31z"/>
		<path style="opacity:0.2;fill:#FFFFFF;enable-background:new    ;" d="M73.155,338.264c0,0,4.387-0.471,4.034-3.143
			c-0.353-2.672-17.054-9.55-26.908,1.572c0,0,6.309,10.838,15.43,10.98C74.832,347.814,73.155,338.264,73.155,338.264z"/>
		<path style="opacity:0.2;fill:#FFFFFF;enable-background:new    ;" d="M68.652,356.116c0,0,3.028-2.445-0.24-3.638
			c-3.268-1.193-19.301-0.854-19.468,15.028c0,0,18.673,3.103,20.985-2.946C72.241,358.509,68.652,356.116,68.652,356.116z"/>
		<polygon style="fill:#407BFF;" points="95.689,417.204 66.711,417.204 63.585,385.477 98.815,385.477 		"/>
		<polygon style="opacity:0.5;fill:#FFFFFF;enable-background:new    ;" points="95.689,417.204 66.711,417.204 63.585,385.477 
			98.815,385.477 		"/>
		<rect x="62.038" y="381.977" style="fill:#407BFF;" width="38.324" height="7.001"/>
		<rect x="62.038" y="381.977" style="opacity:0.2;fill:#FFFFFF;enable-background:new    ;" width="38.324" height="7.001"/>
	</g>
</g>
<g id="Chair">
	<g>
		<g>
			<path style="fill:#407BFF;" d="M392.559,261.03h-98.463c-4.879,0-8.833,3.955-8.833,8.833l-12.008,76.462h116.129l12.008-76.462
				C401.392,264.984,397.438,261.03,392.559,261.03z"/>
			<path style="opacity:0.4;fill:#FFFFFF;enable-background:new    ;" d="M392.559,261.03h-98.463c-4.879,0-8.833,3.955-8.833,8.833
				l-12.008,76.462h116.129l12.008-76.462C401.392,264.984,397.438,261.03,392.559,261.03z"/>
			<path style="opacity:0.2;enable-background:new    ;" d="M371.718,347.457h17.667l12.008-77.594c0-4.879-3.955-8.833-8.833-8.833
				h0c-4.879,0-8.833,3.955-8.833,8.833L371.718,347.457z"/>
		</g>
		<g>
			<path style="fill:#407BFF;" d="M269.58,310.6l-41.865-0.001c-0.148-0.006-0.294-0.023-0.444-0.023
				c-5.952,0-10.778,4.825-10.778,10.778v95.849h11.222h10.333h41.667v-95.849C279.715,315.558,275.316,310.844,269.58,310.6z"/>
			<path style="opacity:0.5;fill:#FFFFFF;enable-background:new    ;" d="M269.58,310.6l-41.865-0.001
				c-0.148-0.006-0.294-0.023-0.444-0.023c-5.952,0-10.778,4.825-10.778,10.778v95.849h11.222h10.333h41.667v-95.849
				C279.715,315.558,275.316,310.844,269.58,310.6z"/>
			<path style="opacity:0.6;fill:#FFFFFF;enable-background:new    ;" d="M227.271,310.577L227.271,310.577
				c-5.952,0-10.778,4.825-10.778,10.778v95.85h21.555v-95.85C238.048,315.402,233.223,310.577,227.271,310.577z"/>
		</g>
		<g>
			<rect x="245.086" y="337.704" style="fill:#407BFF;" width="82.407" height="79.5"/>
			<rect x="245.086" y="337.704" style="opacity:0.4;fill:#FFFFFF;enable-background:new    ;" width="82.407" height="79.5"/>
		</g>
		<g>
			<path style="fill:#407BFF;" d="M345.055,353.704h-93.953c-6.272,0-11.356-5.084-11.356-11.356v0
				c0-6.272,5.084-11.356,11.356-11.356h93.953V353.704z"/>
			<path style="opacity:0.6;fill:#FFFFFF;enable-background:new    ;" d="M345.055,353.704h-93.953
				c-6.272,0-11.356-5.084-11.356-11.356v0c0-6.272,5.084-11.356,11.356-11.356h93.953V353.704z"/>
		</g>
		<g>
			<path style="fill:#407BFF;" d="M380.58,310.6l-41.865-0.001c-0.148-0.006-0.294-0.023-0.444-0.023
				c-5.952,0-10.778,4.825-10.778,10.778v95.849h11.222h10.333h41.667v-95.849C390.715,315.558,386.316,310.844,380.58,310.6z"/>
			<path style="opacity:0.5;fill:#FFFFFF;enable-background:new    ;" d="M380.58,310.6l-41.865-0.001
				c-0.148-0.006-0.294-0.023-0.444-0.023c-5.952,0-10.778,4.825-10.778,10.778v95.849h11.222h10.333h41.667v-95.849
				C390.715,315.558,386.316,310.844,380.58,310.6z"/>
			<path style="opacity:0.6;fill:#FFFFFF;enable-background:new    ;" d="M338.271,310.577L338.271,310.577
				c-5.952,0-10.778,4.825-10.778,10.778v95.85h21.555v-95.85C349.048,315.402,344.223,310.577,338.271,310.577z"/>
		</g>
	</g>
</g>
<g id="Table">
	<g>
		<rect x="364.275" y="314.229" style="fill:#407BFF;" width="74.3" height="102.975"/>
		<rect x="415.778" y="314.229" style="opacity:0.2;enable-background:new    ;" width="22.796" height="102.975"/>
		<rect x="367.967" y="317.908" style="opacity:0.2;fill:#FFFFFF;" width="42.725" height="16.066"/>
		<rect x="367.967" y="337.908" style="opacity:0.2;fill:#FFFFFF;" width="42.725" height="16.066"/>
		<rect x="367.967" y="357.908" style="opacity:0.2;fill:#FFFFFF;" width="42.725" height="42.725"/>
		<circle style="opacity:0.2;enable-background:new    ;" cx="388.241" cy="321.008" r="1.685"/>
		<circle style="opacity:0.2;enable-background:new    ;" cx="388.241" cy="340.3" r="1.685"/>
		<path style="opacity:0.2;enable-background:new    ;" d="M371.718,379.27c0,0.931-0.754,1.685-1.685,1.685
			c-0.931,0-1.685-0.755-1.685-1.685c0-0.931,0.754-1.685,1.685-1.685C370.964,377.585,371.718,378.34,371.718,379.27z"/>
	</g>
	<g>
		<rect x="407.223" y="250.165" style="fill:#263238;" width="4.804" height="64.064"/>
		<g>
			<polygon style="fill:#407BFF;" points="383.975,272.179 435.275,272.179 431.123,235.879 388.127,235.879 			"/>
		</g>
		<g style="opacity:0.6;enable-background:new    ;">
			<polygon style="fill:#FFFFFF;" points="383.975,272.179 435.275,272.179 431.123,235.879 388.127,235.879 			"/>
		</g>
		<polygon style="opacity:0.2;fill:#FFFFFF;" points="407.223,286.791 407.223,314.229 412.027,314.229 412.027,283.791 		"/>
		<polygon style="fill:#407BFF;" points="418.032,311.412 401.218,311.412 398.218,314.229 421.032,314.229 		"/>
		<polygon style="opacity:0.2;fill:#FFFFFF;" points="418.032,311.412 401.218,311.412 398.218,314.229 421.032,314.229 		"/>
	</g>
</g>
<g id="Character_1">
	<g>
		<path style="fill:#263238;" d="M138.987,162.179c-1.248-0.747-2.751-1.122-4.377-0.813c-4.28,0.812-5.301,5.032-4.726,8.11
			c0.392,2.096,2.155,4.782,4.853,5.457c3.369,0.843,6.341-2.274,7.211-4.616C143.022,167.421,142.039,164.006,138.987,162.179z"/>
		<path style="fill:#B97964;" d="M214.448,208.165l16.912-4.747c0,0,0.02-0.969,2.629-2.863c2.61-1.894,9.671-3.342,9.671-3.342
			s3.237,9.368,2.189,9.632c-1.048,0.265-10.542,3.43-11.07,2.375l-17.967,5.095L214.448,208.165z"/>
		<g>
			<path style="fill:#407BFF;" d="M162.926,188.622c9.876,3.191,25.242,20.598,28.241,21.653c2.998,1.055,31.728-5.16,31.728-5.16
				l4.026,7.39c0,0-26.357,9.536-35.754,8.796c-9.397-0.74-21.639-14.657-30.419-16.666L162.926,188.622z"/>
			<path style="opacity:0.5;fill:#FFFFFF;enable-background:new    ;" d="M226.92,212.505c0,0-26.36,9.54-35.75,8.8
				c-6.07-0.48-13.32-6.45-20.05-11.16c-3.71-2.58-7.26-4.79-10.37-5.51l1.14-8.38l1.04-7.63c9.87,3.19,25.24,20.59,28.24,21.65
				c2.99,1.05,31.72-5.16,31.72-5.16L226.92,212.505z"/>
			<path style="opacity:0.2;enable-background:new    ;" d="M171.12,210.145c-3.71-2.58-7.26-4.79-10.37-5.51l1.14-8.38
				C164.72,199.005,169.08,203.995,171.12,210.145z"/>
		</g>
		<polygon style="fill:#E4897B;" points="177.465,403.349 170.804,404.525 168.072,395.443 165.58,387.107 173.26,384.425 
			175.49,394.443 		"/>
		<path style="fill:#263238;" d="M169.301,404.35c-0.112-0.737,9.012-1.755,9.012-1.755s6.547,4.666,12.163,4.982
			c5.616,0.317,3.174,4.084-2.852,5.148c-6.026,1.064-10.625,1.876-14.907,2.632C168.435,416.114,170.467,411.994,169.301,404.35z"
			/>
		<g>
			<path style="fill:#407BFF;" d="M182.795,404.119c-1.247,0-2.838-0.415-3.269-0.535c-0.029-0.008-0.056-0.021-0.079-0.038l0,0l0,0
				c-0.024-0.018-0.045-0.04-0.062-0.066l0,0c0-0.001,0-0.001,0-0.001c-0.011-0.018-0.02-0.037-0.026-0.058c0,0,0,0,0-0.001h-0.001
				c-0.01-0.036-0.012-0.073-0.006-0.108c0.018-0.104,0.404-2.337,1.536-3.061c0.36-0.231,0.753-0.287,1.173-0.175
				c0.445,0.122,0.69,0.343,0.727,0.654c0.057,0.479-0.503,1.068-1.167,1.59c0.749-0.208,1.534-0.325,2.062-0.137
				c0.28,0.102,0.479,0.278,0.59,0.525c0.23,0.512,0.101,0.827-0.049,1.001C183.965,404.012,183.424,404.119,182.795,404.119z
				 M180.325,403.287c1.43,0.329,3.169,0.534,3.533,0.108c0.031-0.037,0.128-0.149-0.025-0.487c-0.057-0.126-0.159-0.214-0.314-0.27
				C182.805,402.379,181.296,402.882,180.325,403.287z M181.656,400.502c-0.178,0-0.345,0.052-0.507,0.155
				c-0.618,0.394-1.014,1.477-1.206,2.213c1.247-0.744,2.414-1.674,2.366-2.084c-0.015-0.128-0.241-0.208-0.375-0.244
				C181.838,400.516,181.746,400.502,181.656,400.502z"/>
		</g>
		<polygon style="opacity:0.2;enable-background:new    ;" points="175.526,394.649 168.105,395.626 165.596,387.199 
			173.268,384.471 		"/>
		<polygon style="fill:#E4897B;" points="132.996,406.204 126.232,406.204 125.121,396.785 124.116,388.143 132.146,386.837 
			132.6,397.09 		"/>
		<path style="fill:#263238;" d="M124.783,405.77c0.018-0.746,9.179-0.161,9.179-0.161s5.636,5.733,11.112,7.021
			c5.475,1.288,2.416,4.574-3.704,4.574c-6.119,0-10.79,0-15.138,0C121.884,417.204,124.602,413.5,124.783,405.77z"/>
		<g>
			<path style="fill:#407BFF;" d="M138.783,407.954c-1.28,0-3.315-0.932-3.797-1.161c-0.032-0.015-0.06-0.036-0.081-0.063l0,0
				h-0.001c-0.013-0.016-0.023-0.033-0.033-0.051c-0.026-0.057-0.032-0.123-0.009-0.186c0.032-0.091,0.802-2.229,2.044-2.746
				c0.394-0.164,0.794-0.152,1.186,0.032c0.417,0.198,0.62,0.457,0.602,0.771c-0.027,0.481-0.681,0.965-1.425,1.362
				c0.775-0.076,1.568-0.055,2.055,0.225c0.258,0.148,0.423,0.357,0.489,0.62c0.138,0.543-0.044,0.831-0.222,0.977
				C139.4,407.89,139.117,407.954,138.783,407.954z M135.824,406.639c1.35,0.571,3.028,1.077,3.46,0.722
				c0.038-0.031,0.152-0.125,0.061-0.484c-0.034-0.134-0.12-0.238-0.262-0.32C138.422,406.177,136.852,406.411,135.824,406.639z
				 M137.463,404.116c-0.123,0-0.246,0.026-0.371,0.078c-0.677,0.281-1.255,1.277-1.572,1.97c1.357-0.516,2.669-1.229,2.692-1.641
				c0.007-0.128-0.201-0.247-0.327-0.306C137.743,404.15,137.603,404.116,137.463,404.116z"/>
		</g>
		<polygon style="opacity:0.2;enable-background:new    ;" points="132.6,397.299 125.121,396.97 124.116,388.236 132.146,386.883 
					"/>
		<g>
			<path style="fill:#407BFF;" d="M176.153,389.364l-10.95,1.93c-11.05-27.53-18.91-50.51-24.46-69.58
				c-2.99-10.29-5.32-19.44-7.11-27.56l0.5,29.97v68.08h-11.12c-27.05-129-7.88-158.48-7.88-158.48l32.36-5.53
				c1.23,4.83,2.16,12.66,2.71,18.11l1.46,10.7l12.65,65.32L176.153,389.364z"/>
			<path style="opacity:0.5;fill:#FFFFFF;enable-background:new    ;" d="M176.153,389.364l-10.95,1.93
				c-11.05-27.53-18.91-50.51-24.46-69.58c-2.99-10.29-5.32-19.44-7.11-27.56l0.5,29.97v68.08h-11.12
				c-27.05-129-7.88-158.48-7.88-158.48l32.36-5.53c1.23,4.83,2.16,12.66,2.71,18.11l1.46,10.7l12.65,65.32L176.153,389.364z"/>
		</g>
		<polygon style="fill:#407BFF;" points="163.486,389.941 177.069,385.438 176.885,391.215 165.652,394.798 		"/>
		<polygon style="fill:#407BFF;" points="121.562,390.569 135.721,388.496 134.535,394.154 122.85,395.729 		"/>
		<path style="opacity:0.2;enable-background:new    ;" d="M140.743,321.714c-2.99-10.29-5.32-19.44-7.11-27.56
			c0,0,0.18-15.78,2.09-28.74C135.723,265.414,140.463,302.484,140.743,321.714z"/>
		<g>
			<path style="fill:#407BFF;" d="M152.82,253.005l-13.825,4.671l-2.564-8.401l-2.797,7.747l-25.09-5.837
				c2.149-15.408,10.74-27.69,12.088-32.354c1.862-6.439,3.314-18.765,2.047-26.733c-0.003-0.019-0.006-0.039-0.009-0.058
				c-0.518-3.396,1.932-6.555,5.357-6.82c2.428-0.188,4.863-0.283,7.307-0.287c4.831-0.058,9.666,0.228,14.465,0.851
				c6.164,0.97,13.127,2.839,13.127,2.839s0.961,0.411,0.52,7.036c-0.406,5.793-1.517,23.782-13.352,39.012L152.82,253.005z"/>
			<path style="opacity:0.6;fill:#FFFFFF;enable-background:new    ;" d="M152.82,253.005l-13.825,4.671l-2.564-8.401l-2.797,7.747
				l-25.09-5.837c2.149-15.408,10.74-27.69,12.088-32.354c1.862-6.439,3.314-18.765,2.047-26.733
				c-0.003-0.019-0.006-0.039-0.009-0.058c-0.518-3.396,1.932-6.555,5.357-6.82c2.428-0.188,4.863-0.283,7.307-0.287
				c4.831-0.058,9.666,0.228,14.465,0.851c6.164,0.97,13.127,2.839,13.127,2.839s0.961,0.411,0.52,7.036
				c-0.406,5.793-1.517,23.782-13.352,39.012L152.82,253.005z"/>
		</g>
		<g>
			<path style="fill:#407BFF;" d="M138.746,197.212c0,0,5.525,4.791,7.131,17.102l6.228-17.21l4.282,1.302
				c0,0-3.295-15.604-14.039-15.897c-10.744-0.294-9.898,15.901-9.898,15.901L138.746,197.212z"/>
			<path style="opacity:0.5;fill:#FFFFFF;enable-background:new    ;" d="M138.746,197.212c0,0,5.525,4.791,7.131,17.102
				l6.228-17.21l4.282,1.302c0,0-3.295-15.604-14.039-15.897c-10.744-0.294-9.898,15.901-9.898,15.901L138.746,197.212z"/>
		</g>
		<path style="fill:#B97964;" d="M154.272,179.657c0,0-3.921,2.538-4.598,4.21c-0.04,0.09-0.07,0.199-0.1,0.328
			c-0.249,0.965-0.398,2.886-0.398,2.886c3.054,6.447-2.748,17.554-2.748,17.554c-3.429-10.154-9.831-18.3-9.831-18.3
			c6.289-2.468,7.493-14.519,7.493-14.519l3.045,2.349L154.272,179.657z"/>
		<path style="opacity:0.2;enable-background:new    ;" d="M154.272,179.657c0,0-3.921,2.538-4.598,4.21
			c-0.04,0.09-0.07,0.199-0.1,0.328c-5.712-4.369-4.986-10.897-4.986-10.897l2.547,0.866L154.272,179.657z"/>
		<g>
			
				<path style="fill:none;stroke:#263238;stroke-width:0.4885;stroke-linecap:round;stroke-linejoin:round;stroke-miterlimit:10;" d="
				M158.623,151.394c0,0,7.929-2.22,11.768,4.177c3.839,6.398,0.769,11.246-1.897,13.558"/>
			<path style="fill:#263238;" d="M161.784,151.044c0,0,6.46,0.197,8.245,5.656c1.786,5.459,0.459,11.585-9.13,18.192
				c-4.69,3.231-16.339-3.078-16.339-3.078l-0.929,2.817c-1.714-1.229-3.142-2.646-4.215-3.907
				c-3.768-4.425-2.796-19.069,7.666-21.932C158.008,145.803,161.784,151.044,161.784,151.044z"/>
			<path style="fill:#B97964;" d="M155.622,152.867c8.212,1.118,10.256,5.875,9.704,14.419
				c-0.689,10.678-4.057,17.871-14.017,14.214C137.784,176.532,141.985,151.009,155.622,152.867z"/>
			<path style="fill:#A24E3F;" d="M160.081,166.103c0,0,0.846,2.3,1.926,3.731c0,0-0.855,1.021-2.291,0.634L160.081,166.103z"/>
			<g>
				<path style="fill:#263238;" d="M155.146,164.747c-0.076,0.677-0.504,1.184-0.955,1.133c-0.451-0.051-0.755-0.64-0.679-1.317
					c0.076-0.677,0.503-1.184,0.955-1.133C154.918,163.481,155.222,164.07,155.146,164.747z"/>
				<path style="fill:#263238;" d="M154.275,163.442l1.537-0.412C155.812,163.03,154.94,164.186,154.275,163.442z"/>
			</g>
			<g>
				<path style="fill:#263238;" d="M163.574,165.553c-0.076,0.677-0.503,1.184-0.955,1.133c-0.451-0.051-0.755-0.64-0.679-1.317
					c0.076-0.677,0.503-1.184,0.955-1.133C163.346,164.286,163.65,164.876,163.574,165.553z"/>
				<path style="fill:#263238;" d="M162.703,164.247l1.537-0.412C164.24,163.835,163.368,164.991,162.703,164.247z"/>
			</g>
			
				<path style="fill:none;stroke:#263238;stroke-width:0.708;stroke-linecap:round;stroke-linejoin:round;stroke-miterlimit:10;" d="
				M155.836,159.066c0,0-2.267-0.614-3.73,0.756"/>
			
				<path style="fill:none;stroke:#263238;stroke-width:0.708;stroke-linecap:round;stroke-linejoin:round;stroke-miterlimit:10;" d="
				M161.852,159.532c0,0,1.523-0.339,3.181,1.121"/>
			<path style="fill:#263238;" d="M144.762,165.484c0,0,4.758-6.224,4.886-11.511c0,0,17.178-4.431,15.731,12.195
				c0,0,3.588-14.45-10.484-16.699c-14.049-2.246-17.315,17.132-10.863,24.278C144.033,173.747,141.812,169.38,144.762,165.484z"/>
			<path style="fill:#B97964;" d="M145.867,167.4c0.125-1.33-0.934-3.753-3.43-3.82c-2.582-0.069-4.507,4.99,1.652,7.108
				C144.973,170.992,145.606,170.174,145.867,167.4z"/>
			<g>
				<path style="fill:#263238;" d="M159.274,172.922c-0.434,1.048-0.827,2.996-0.827,2.996c-0.183-0.004-0.366-0.008-0.548-0.021
					c-2.479-0.114-3.591-0.986-4.073-1.918c-0.261-0.511-0.328-1.046-0.325-1.48c-0.002-0.502,0.111-0.86,0.111-0.86
					c1.278,0.846,3.581,1.13,4.817,1.23C158.947,172.917,159.274,172.922,159.274,172.922z"/>
				<path style="fill:#FFFFFF;" d="M158.429,172.87l-0.267,0.877c-2.335-0.113-3.963-0.506-4.662-1.248
					c-0.002-0.502,0.111-0.86,0.111-0.86C154.89,172.485,157.193,172.769,158.429,172.87z"/>
				<path style="fill:#DE5753;" d="M157.899,175.897c-2.479-0.114-3.591-0.986-4.073-1.918c0.843,0.071,1.852,0.251,2.728,0.672
					C157.225,174.97,157.634,175.434,157.899,175.897z"/>
			</g>
		</g>
		<g>
			<path style="fill:#407BFF;" d="M137.403,160.652l0.597-12.781l-2.252-3.531c0,0,8.755-3.56,18.223-1.319l7.813,8.022
				C161.784,151.044,146.707,147.294,137.403,160.652z"/>
			<path style="opacity:0.6;fill:#FFFFFF;enable-background:new    ;" d="M161.78,151.045c0,0-8.52-2.12-16.7,2.51
				c-2.71,1.52-5.37,3.78-7.68,7.1l0.6-12.78l-2.25-3.53c0,0,8.75-3.56,18.22-1.32L161.78,151.045z"/>
			<path style="opacity:0.1;enable-background:new    ;" d="M145.08,153.555c-2.71,1.52-5.37,3.78-7.68,7.1l0.6-12.78l-2.25-3.53
				L145.08,153.555z"/>
		</g>
		<path style="fill:#B97964;" d="M175.957,243.185l11.087,2.535c0,0,3.956,0.164,8.11,1.382c4.154,1.218,8.658,2.994,7.988,4.084
			c-0.67,1.09-7.863,6.862-10.164,6.491c-2.301-0.371-8.769-4.017-8.044-5.797l-10.747-2.604L175.957,243.185z"/>
		<g>
			<path style="fill:#407BFF;" d="M125.704,185.902c3.932-1.156,11.584,36.007,17.227,42.291
				c5.643,6.284,39.636,15.551,39.636,15.551l-1.721,7.44c0,0-41.678-5.074-47.213-12.97c-5.534-7.896-13.249-29.186-14.238-39.805
				C118.407,187.791,123.382,186.585,125.704,185.902z"/>
			<path style="opacity:0.5;fill:#FFFFFF;enable-background:new    ;" d="M125.704,185.902c3.932-1.156,11.584,36.007,17.227,42.291
				c5.643,6.284,39.636,15.551,39.636,15.551l-1.721,7.44c0,0-41.678-5.074-47.213-12.97c-5.534-7.896-13.249-29.186-14.238-39.805
				C118.407,187.791,123.382,186.585,125.704,185.902z"/>
		</g>
		<polygon style="fill:#407BFF;" points="161.362,217.298 150.376,216.555 151.159,210.427 162.146,211.171 		"/>
		<polygon style="opacity:0.5;fill:#FFFFFF;enable-background:new    ;" points="160.777,216.819 151.323,216.179 151.997,210.906 
			161.451,211.546 		"/>
		<polygon style="fill:#263238;" points="156.978,208.758 155.923,211.725 157.689,211.725 157.689,208.758 		"/>
	</g>
</g>
<g id="Character_2">
	<g id="_x3C_Group_x3E__69_">
		<path style="fill:#E4897B;" d="M190.235,251.872l-10.24,1.926c0,0-10.705-2.334-12.567-1.926s-6.681,9.861-6.681,9.861
			s16.456,3.589,18.55,2.886c2.094-0.703,3.839-3.427,3.839-3.427l8.03-1.487L190.235,251.872z"/>
		<g>
			<path style="fill:#407BFF;" d="M211.139,203.398c-4.843,7.272,2.19,36.762,2.63,38.633c0.44,1.87-28.835,9.794-28.835,9.794
				l4.22,12.902c0,0,36.491-4.204,40.531-8.559c4.04-4.355-0.504-40.109-0.504-40.109l-18.041-12.658l0,0L211.139,203.398z"/>
			<path style="opacity:0.4;enable-background:new    ;" d="M229.69,256.171c-3.45,3.71-30.49,7.32-38.38,8.3
				c-1.37,0.17-2.16,0.26-2.16,0.26l-4.22-12.91c0,0,0.72-0.19,1.92-0.53c6.51-1.8,27.29-7.68,26.92-9.26
				c-0.44-1.87-7.47-31.36-2.63-38.63l3.13,1.32l10.36,7.88l4.55,3.46c0,0,1.77,13.89,2.12,25.41v0.01
				C231.51,248.441,231.21,254.531,229.69,256.171z"/>
			<path style="opacity:0.1;enable-background:new    ;" d="M191.31,264.471c-1.37,0.17-2.16,0.26-2.16,0.26l-4.22-12.91
				c0,0,0.72-0.19,1.92-0.53L191.31,264.471z"/>
			<path style="opacity:0.2;enable-background:new    ;" d="M231.3,241.471c-5.98-9.61-6.59-20.14-6.67-28.87l4.55,3.46
				C229.18,216.061,230.95,229.951,231.3,241.471z"/>
		</g>
		<path style="fill:none;" d="M198.945,263.054h-36.198c-4.346,0-7.968,3.397-8.245,7.735l-1.683,27.261h56.053l-1.683-27.266
			C206.913,266.452,203.292,263.054,198.945,263.054z"/>
		<path style="fill:#407BFF;" d="M145.465,417.176l7.045-114.126h56.671l7.046,114.126h5.009l-9.057-146.705
			c-0.444-6.963-6.257-12.417-13.234-12.417h-36.198c-6.977,0-12.79,5.454-13.235,12.422l-9.056,146.7H145.465z M154.502,270.79
			c0.277-4.338,3.898-7.735,8.245-7.735h36.198c4.346,0,7.968,3.397,8.244,7.73l1.683,27.266H152.82L154.502,270.79z"/>
		<polygon style="fill:#B97964;" points="250.104,409.606 242.28,411.893 237.667,394.962 245.49,392.674 		"/>
		<path style="fill:#263238;" d="M241.43,408.261h9.542c0.322,0.002,0.6,0.225,0.67,0.54l1.549,6.994
			c0.133,0.626-0.268,1.241-0.894,1.374c-0.084,0.018-0.169,0.026-0.255,0.025c-3.088-0.05-5.336-0.24-9.213-0.24
			c-2.388,0-9.592,0.25-12.889,0.25c-3.297,0-3.727-3.257-2.378-3.557c6.055-1.319,10.611-3.148,12.55-4.886
			C240.47,408.431,240.943,408.252,241.43,408.261z"/>
		<polygon style="opacity:0.2;enable-background:new    ;" points="245.49,392.674 237.667,394.962 240.053,403.693 
			247.876,401.406 		"/>
		<path style="fill:#263238;" d="M275.534,247.566c0,0,3.347,15.147,2.645,32.748c-0.702,17.601-40.5,39.466-41.256,45.62
			c-0.756,6.154,12.251,70.46,12.251,70.46l-13.738,4.872c0,0-27.132-58.217-27.45-72.467c-0.318-14.25,29.68-48.485,37.863-57.931
			c3.177-3.667,0.051-18.433,0.051-18.433L275.534,247.566z"/>
		<path style="opacity:0.3;fill:#FFFFFF;enable-background:new    ;" d="M278.18,280.311c-0.25,6.37-5.62,13.29-12.41,19.83
			c-10.82,10.42-25.24,19.86-28.28,24.48c-0.33,0.49-0.52,0.93-0.57,1.31c-0.75,6.16,12.25,70.46,12.25,70.46l-13.73,4.87
			c0,0-27.13-58.21-27.45-72.46s29.68-48.49,37.86-57.93c3.18-3.67,0.05-18.44,0.05-18.44l29.63-4.87
			C275.53,247.561,278.88,262.711,278.18,280.311z"/>
		<g>
			<polygon style="fill:#407BFF;" points="234.588,403.674 251.313,398.003 249.925,393.338 232.47,398.924 			"/>
			<polygon style="opacity:0.6;fill:#FFFFFF;enable-background:new    ;" points="234.588,403.674 251.313,398.003 249.925,393.338 
				232.47,398.924 			"/>
		</g>
		<path style="opacity:0.2;enable-background:new    ;" d="M265.77,300.141c-10.82,10.42-25.24,19.86-28.28,24.48
			c0.58-20.71,25.58-42.75,25.58-42.75L265.77,300.141z"/>
		<polygon style="fill:#B97964;" points="287.971,409.606 280.147,411.893 275.534,394.962 283.358,392.674 		"/>
		<path style="fill:#263238;" d="M279.297,408.261h9.542c0.322,0.002,0.599,0.225,0.669,0.54l1.549,6.994
			c0.132,0.626-0.268,1.241-0.894,1.374c-0.084,0.018-0.169,0.026-0.255,0.025c-3.087-0.05-5.336-0.24-9.213-0.24
			c-2.388,0-9.592,0.25-12.89,0.25s-3.727-3.257-2.378-3.557c6.055-1.319,10.611-3.148,12.55-4.886
			C278.338,408.431,278.81,408.252,279.297,408.261z"/>
		<polygon style="opacity:0.2;enable-background:new    ;" points="283.358,392.674 275.534,394.962 277.92,403.693 
			285.744,401.406 		"/>
		<path style="fill:#263238;" d="M291.083,244.005c0,0,7.009,14.514,6.307,32.116c-0.702,17.601-21.844,43.659-22.6,49.813
			c-0.756,6.154,12.251,70.46,12.251,70.46l-13.738,4.872c0,0-27.132-58.217-27.45-72.467c-0.318-14.25,17.22-46.929,17.22-46.929
			l-3.654-32.398L291.083,244.005z"/>
		<path style="opacity:0.3;fill:#FFFFFF;enable-background:new    ;" d="M291.083,244.005c0,0,7.009,14.514,6.307,32.116
			c-0.702,17.601-21.844,43.659-22.6,49.813c-0.756,6.154,12.251,70.46,12.251,70.46l-13.738,4.872c0,0-27.132-58.217-27.45-72.467
			c-0.318-14.25,17.22-46.929,17.22-46.929l-3.654-32.398L291.083,244.005z"/>
		<g>
			<polygon style="fill:#407BFF;" points="272.455,403.674 289.181,398.003 287.793,393.338 270.337,398.924 			"/>
			<polygon style="opacity:0.6;fill:#FFFFFF;enable-background:new    ;" points="272.455,403.674 289.181,398.003 287.793,393.338 
				270.337,398.924 			"/>
		</g>
		<g>
			<path style="fill:#407BFF;" d="M297.44,264.711c0,0-47.715,7.197-52.457,3.37c-6.989-5.64-14.729-52.818-33.844-64.683
				c0,0,2.221-3.925,7.102-8.518c4.541-4.286,11.393-9.153,20.9-11.967c5.266-1.559,11.35-2.478,18.314-2.313
				C257.455,180.6,294.912,207.187,297.44,264.711z"/>
			<path style="opacity:0.3;enable-background:new    ;" d="M297.44,264.711c0,0-47.72,7.2-52.46,3.37
				c-0.44-0.35-0.88-0.87-1.32-1.53c-6.68-9.87-14.6-52.03-32.52-63.15c0,0,2.22-3.93,7.1-8.52c0.26-0.24,0.52-0.49,0.8-0.74
				c4.53-4.1,11.13-8.57,20.1-11.23c0.39-0.12,0.79-0.23,1.19-0.33c4.99-1.36,10.68-2.14,17.12-1.98c0,0,8.35,5.93,17.43,18.24
				c4.63,6.28,9.46,14.23,13.47,23.9c4.33,10.46,7.7,22.94,8.81,37.51C297.28,261.721,297.37,263.201,297.44,264.711z"/>
			<path style="opacity:0.1;enable-background:new    ;" d="M240.33,182.581c-0.91,4.56-3.08,14-6.8,22.55
				c0,0-9.79-3.62-14.49-10.99c4.53-4.1,11.13-8.57,20.1-11.23C239.53,182.791,239.93,182.681,240.33,182.581z"/>
			<path style="opacity:0.1;enable-background:new    ;" d="M297.44,264.711c0,0-47.72,7.2-52.46,3.37
				c-0.44-0.35-0.88-0.87-1.32-1.53c9.7,0.32,29.87-0.03,53.5-6.3C297.28,261.721,297.37,263.201,297.44,264.711z"/>
			<path style="opacity:0.2;enable-background:new    ;" d="M288.35,222.741c-16.73-4.41-25.43-23.23-25.43-23.23l11.96-0.67
				C279.51,205.121,284.34,213.071,288.35,222.741z"/>
		</g>
		<path style="fill:#E4897B;" d="M237.99,183.611c-2.9,10.58-7.11,12.4-10.41,11.78c-2.9-0.54-5.11-2.96-5.11-2.96
			s0.52-0.84,0.46-2.06c-0.04-1.1-0.54-2.52-2.29-3.92c-0.62-0.5-1.32-0.92-2.01-1.33l0.21-2.72l1.01-12.91
			c1.46,2.17,3.6,5.24,6.11,7.98c0.75,0.82,1.54,1.62,2.35,2.35C231.35,182.571,234.73,184.421,237.99,183.611z"/>
		<path style="opacity:0.2;enable-background:new    ;" d="M227.58,195.391c-2.9-0.54-5.11-2.96-5.11-2.96s0.52-0.84,0.46-2.06
			c-0.04-1.1-0.54-2.52-2.29-3.92c-0.62-0.5-1.32-0.92-2.01-1.33l0.21-2.72l9.47-2.58C228.31,179.821,230.69,189.261,227.58,195.391
			z"/>
		<g>
			<path style="fill:#263238;" d="M203.923,168.934c0,0-2.835-0.302-3.297,3.377c-0.462,3.678,0.789,3.747,0.789,3.747
				s-0.959,3.087,0.244,3.953c1.203,0.867,2.263,4.549,2.263,4.549l2.798-5.143L203.923,168.934z"/>
			<path style="opacity:0.6;fill:#FFFFFF;" d="M203.923,168.934c0,0-2.835-0.302-3.297,3.377c-0.462,3.678,0.789,3.747,0.789,3.747
				s-0.959,3.087,0.244,3.953c1.203,0.867,2.263,4.549,2.263,4.549l2.798-5.143L203.923,168.934z"/>
			<path style="fill:#E4897B;" d="M225.78,187.832c-0.192,0.398-0.419,0.804-0.665,1.203c-2.768,4.525-7.638,5.943-11.999,4.839
				c-2.808-0.713-5.403-2.479-7.098-5.134c-0.234-0.344-0.438-0.71-0.636-1.094c-0.376-0.761-0.738-1.591-1.068-2.474
				c-2.679-7.17-5.462-16.963,3.205-22.18c5.463-3.288,14.626-3.701,17.899,1.788c4.088,6.857,1.74,13.451,1.74,13.451
				C227.646,181.05,228.139,183.089,225.78,187.832z"/>
			<path style="fill:#263238;" d="M229.374,171.506c0,0,1.451-0.066,0.857-2.016c-0.593-1.95-3.073-3.192-3.073-3.192
				s1.952-1.319-0.619-2.572c-1.247-0.607-2.817-0.698-4.263-0.26c-0.869-0.725-8.503-6.857-13.699-3.207
				c-0.113,0.08-0.14,0.235-0.061,0.348c0.08,0.113,0.236,0.141,0.348,0.061c4.523-3.178,11.355,1.812,12.857,2.995
				c-0.131,0.054-0.259,0.114-0.386,0.177c-1.556-0.702-13.042-5.631-16.91,0.164c-0.077,0.115-0.045,0.27,0.069,0.347
				c0.114,0.076,0.27,0.046,0.347-0.069c3.39-5.078,13.577-1.139,15.946-0.132c-0.254,0.162-0.5,0.34-0.729,0.544
				c-2.378-0.656-9.918-2.43-14.438,0.031c-1.602,0.873-2.656,2.2-3.133,3.945c-0.036,0.133,0.042,0.27,0.175,0.307
				c0.022,0.006,0.044,0.009,0.066,0.009c0.11,0,0.211-0.073,0.241-0.184c0.44-1.609,1.412-2.832,2.89-3.638
				c4.132-2.252,11.178-0.74,13.784-0.06c-0.408,0.45-0.754,0.98-1.01,1.593c-1.377,3.298,0.849,4.548,2.3,6.211
				c1.426,1.635,0.777,4.396,0.754,4.489c-0.824,2.314-3.054,4.2-3.054,4.2s-1.063-0.593-2.896,0
				c-1.833,0.594-2.824,2.835-2.824,2.835c-4.393-0.462-5.101,3.128-5.101,3.128c-2.901-1.883-4.458-5.436-4.458-5.436
				c-0.436,3.956,1.029,8.176,2.414,9.89c1.384,1.714,2.11,0,2.11,0s0.329,3.363,2.206,4.615c1.877,1.253,2.541-0.264,2.541-0.264
				s0.989,2.11,4.549,3.033c3.561,0.923,4.681-4.22,4.681-4.22c3.89,2.967,3.56-4.088,3.56-4.088s1.912,0.527,1.728-2.933
				c-0.144-2.694-2.546-7.917-3.606-10.105c1.58-0.253,4.021,3.362,4.021,3.362C234.385,181.956,229.374,171.506,229.374,171.506z"
				/>
			<path style="opacity:0.6;fill:#FFFFFF;" d="M229.374,171.506c0,0,1.451-0.066,0.857-2.016c-0.593-1.95-3.073-3.192-3.073-3.192
				s1.952-1.319-0.619-2.572c-1.247-0.607-2.817-0.698-4.263-0.26c-0.869-0.725-8.503-6.857-13.699-3.207
				c-0.113,0.08-0.14,0.235-0.061,0.348c0.08,0.113,0.236,0.141,0.348,0.061c4.523-3.178,11.355,1.812,12.857,2.995
				c-0.131,0.054-0.259,0.114-0.386,0.177c-1.556-0.702-13.042-5.631-16.91,0.164c-0.077,0.115-0.045,0.27,0.069,0.347
				c0.114,0.076,0.27,0.046,0.347-0.069c3.39-5.078,13.577-1.139,15.946-0.132c-0.254,0.162-0.5,0.34-0.729,0.544
				c-2.378-0.656-9.918-2.43-14.438,0.031c-1.602,0.873-2.656,2.2-3.133,3.945c-0.036,0.133,0.042,0.27,0.175,0.307
				c0.022,0.006,0.044,0.009,0.066,0.009c0.11,0,0.211-0.073,0.241-0.184c0.44-1.609,1.412-2.832,2.89-3.638
				c4.132-2.252,11.178-0.74,13.784-0.06c-0.408,0.45-0.754,0.98-1.01,1.593c-1.377,3.298,0.849,4.548,2.3,6.211
				c1.426,1.635,0.777,4.396,0.754,4.489c-0.824,2.314-3.054,4.2-3.054,4.2s-1.063-0.593-2.896,0
				c-1.833,0.594-2.824,2.835-2.824,2.835c-4.393-0.462-5.101,3.128-5.101,3.128c-2.901-1.883-4.458-5.436-4.458-5.436
				c-0.436,3.956,1.029,8.176,2.414,9.89c1.384,1.714,2.11,0,2.11,0s0.329,3.363,2.206,4.615c1.877,1.253,2.541-0.264,2.541-0.264
				s0.989,2.11,4.549,3.033c3.561,0.923,4.681-4.22,4.681-4.22c3.89,2.967,3.56-4.088,3.56-4.088s1.912,0.527,1.728-2.933
				c-0.144-2.694-2.546-7.917-3.606-10.105c1.58-0.253,4.021,3.362,4.021,3.362C234.385,181.956,229.374,171.506,229.374,171.506z"
				/>
			<path style="fill:#263238;" d="M213.702,175.877c0.2,0.654-0.07,1.294-0.516,1.396c-0.446,0.102-0.919-0.367-1.077-1.034
				c-0.158-0.667,0.081-1.297,0.516-1.396C213.06,174.744,213.54,175.199,213.702,175.877z"/>
			<path style="fill:#263238;" d="M206.115,177.628c0.2,0.655-0.081,1.297-0.516,1.396c-0.436,0.099-0.919-0.367-1.077-1.034
				c-0.158-0.667,0.081-1.297,0.516-1.396C205.473,176.495,205.966,176.992,206.115,177.628z"/>
			<path style="fill:#DE5753;" d="M208.602,177.402c-0.325,2.237-0.958,4.418-1.881,6.482c1.087,0.452,2.319,0.4,3.365-0.142
				L208.602,177.402z"/>
			<path style="fill:#263238;" d="M215.489,172.877c-0.141,0.054-0.3,0.029-0.418-0.066c-0.773-0.678-1.821-0.951-2.827-0.738
				c-0.212,0.065-0.437-0.053-0.503-0.266c-0.065-0.212,0.054-0.437,0.266-0.503c0,0,0.001,0,0.002-0.001
				c1.265-0.303,2.598,0.027,3.576,0.884c0.174,0.137,0.205,0.39,0.067,0.564c-0.002,0.002-0.004,0.005-0.006,0.007
				C215.6,172.807,215.547,172.846,215.489,172.877z"/>
			<path style="fill:#263238;" d="M202.251,175.764c-0.067,0.047-0.147,0.071-0.228,0.07c-0.217-0.046-0.356-0.26-0.309-0.477
				c0.001-0.003,0.001-0.006,0.002-0.009c0.262-1.278,1.13-2.348,2.326-2.869c0.208-0.077,0.439,0.03,0.516,0.239
				c0,0,0,0.001,0,0.001c0.071,0.209-0.035,0.436-0.24,0.517l0,0c-0.932,0.438-1.602,1.292-1.807,2.302
				C202.462,175.647,202.367,175.73,202.251,175.764z"/>
			<path style="opacity:0.6;fill:#FFFFFF;" d="M215.489,172.877c-0.141,0.054-0.3,0.029-0.418-0.066
				c-0.773-0.678-1.821-0.951-2.827-0.738c-0.212,0.065-0.437-0.053-0.503-0.266c-0.065-0.212,0.054-0.437,0.266-0.503
				c0,0,0.001,0,0.002-0.001c1.265-0.303,2.598,0.027,3.576,0.884c0.174,0.137,0.205,0.39,0.067,0.564
				c-0.002,0.002-0.004,0.005-0.006,0.007C215.6,172.807,215.547,172.846,215.489,172.877z"/>
			<path style="opacity:0.6;fill:#FFFFFF;" d="M202.251,175.764c-0.067,0.047-0.147,0.071-0.228,0.07
				c-0.217-0.046-0.356-0.26-0.309-0.477c0.001-0.003,0.001-0.006,0.002-0.009c0.262-1.278,1.13-2.348,2.326-2.869
				c0.208-0.077,0.439,0.03,0.516,0.239c0,0,0,0.001,0,0.001c0.071,0.209-0.035,0.436-0.24,0.517l0,0
				c-0.932,0.438-1.602,1.292-1.807,2.302C202.462,175.647,202.367,175.73,202.251,175.764z"/>
			<path style="opacity:0.2;enable-background:new    ;" d="M208.67,188.715c0,0,0.725,0.725,1.714-0.396
				c0,0,1.385,2.176,2.835-2.637c0,0,3.879,0.776,4.945,0c0.725-0.527,0-1.493,0-1.493s1.583-0.155,1.978-1.342
				c0,0,1.253,4.711-6,3.824C214.143,186.671,211.807,191.747,208.67,188.715z"/>
			<path style="fill:#E4897B;" d="M230.84,176.612c-0.484,2.076-1.771,3.875-3.58,5.003c-2.405,1.477-4.38-0.491-4.366-3.167
				c0.035-2.378,1.299-6.084,4.036-6.451C229.669,171.631,231.402,174.056,230.84,176.612z"/>
			
				<path style="opacity:0.2;fill:none;stroke:#000000;stroke-width:0.5;stroke-linecap:round;stroke-linejoin:round;stroke-miterlimit:10;enable-background:new    ;" d="
				M212.06,177.041c0,0,0.385,1.916,2.685,1.322"/>
			
				<path style="opacity:0.2;fill:none;stroke:#000000;stroke-width:0.5;stroke-linecap:round;stroke-linejoin:round;stroke-miterlimit:10;enable-background:new    ;" d="
				M206.47,178.477c0,0-0.047,2.279-1.627,2.104"/>
			
				<path style="opacity:0.2;fill:none;stroke:#000000;stroke-width:0.5;stroke-linecap:round;stroke-linejoin:round;stroke-miterlimit:10;enable-background:new    ;" d="
				M203.623,171.195c0,0,3.59-2.139,7.517-1.705"/>
			
				<path style="opacity:0.2;fill:none;stroke:#000000;stroke-width:0.5;stroke-linecap:round;stroke-linejoin:round;stroke-miterlimit:10;enable-background:new    ;" d="
				M203.623,169.989c0,0,2.997-3.099,7.517-1.78"/>
			
				<path style="opacity:0.2;fill:none;stroke:#000000;stroke-width:0.5;stroke-linecap:round;stroke-linejoin:round;stroke-miterlimit:10;enable-background:new    ;" d="
				M204.58,167.882c0,0,2.574-2.311,6.86-1.058"/>
		</g>
		<path style="fill:#E4897B;" d="M300.48,236.501l-5.04,5.53c0,0-3.535,2.138-3.745,3.356c-0.211,1.218,4.393,17.054,4.393,17.054
			s6.276-4.818,6.078-6.272c-0.198-1.454-3.165-8.607-3.165-8.607l5.51-5.128L300.48,236.501z"/>
		<g>
			<path style="fill:#407BFF;" d="M257.455,180.6c0,0,43.919,3.003,60.139,21.745c16.22,18.742-15.429,45.215-15.429,45.215
				l-5.712-9.709c0,0,12.833-12.976,8.086-21.793c-4.747-8.817-29.004-8.049-29.004-8.049S251.91,198.266,257.455,180.6z"/>
			<path style="opacity:0.4;enable-background:new    ;" d="M304.51,245.441c-1.44,1.36-2.35,2.12-2.35,2.12l-5.71-9.71
				c0,0,0.49-0.49,1.24-1.35c3.09-3.54,10.68-13.33,6.85-20.44c-4.75-8.82-29.01-8.05-29.01-8.05s-23.62-9.74-18.08-27.41
				c0,0,43.92,3,60.14,21.74C331.06,217.911,311.52,238.801,304.51,245.441z"/>
			<path style="opacity:0.1;enable-background:new    ;" d="M304.51,245.441c-1.44,1.36-2.35,2.12-2.35,2.12l-5.71-9.71
				c0,0,0.49-0.49,1.24-1.35L304.51,245.441z"/>
		</g>
		<g>
			<g>
				<g>
					<path style="fill:#407BFF;" d="M210.143,282.418h-57.55c-1.381,0-2.5-1.119-2.5-2.5c0-1.381,1.119-2.5,2.5-2.5h57.55
						c1.381,0,2.5,1.119,2.5,2.5C212.643,281.298,211.524,282.418,210.143,282.418z"/>
				</g>
				<g style="opacity:0.2;">
					<path style="fill:#FFFFFF;" d="M210.143,282.418h-57.55c-1.381,0-2.5-1.119-2.5-2.5c0-1.381,1.119-2.5,2.5-2.5h57.55
						c1.381,0,2.5,1.119,2.5,2.5C212.643,281.298,211.524,282.418,210.143,282.418z"/>
				</g>
			</g>
			<g>
				<g>
					<path style="fill:#407BFF;" d="M205.144,358.374h-57.55c-1.381,0-2.5-1.119-2.5-2.5s1.119-2.5,2.5-2.5h57.55
						c1.381,0,2.5,1.119,2.5,2.5S206.525,358.374,205.144,358.374z"/>
				</g>
				<g style="opacity:0.2;">
					<path style="fill:#FFFFFF;" d="M205.144,358.374h-57.55c-1.381,0-2.5-1.119-2.5-2.5s1.119-2.5,2.5-2.5h57.55
						c1.381,0,2.5,1.119,2.5,2.5S206.525,358.374,205.144,358.374z"/>
				</g>
			</g>
			<path style="fill:none;" d="M257.945,263.054h-36.198c-4.346,0-7.968,3.397-8.245,7.735l-1.683,27.261h56.053l-1.683-27.266
				C265.913,266.452,262.292,263.054,257.945,263.054z"/>
			<path style="fill:#407BFF;" d="M204.465,417.176l7.045-114.126h56.671l7.046,114.126h5.009l-9.057-146.705
				c-0.444-6.963-6.257-12.417-13.234-12.417h-36.198c-6.977,0-12.79,5.454-13.235,12.422l-9.056,146.7H204.465z M213.502,270.79
				c0.277-4.338,3.898-7.735,8.245-7.735h36.198c4.346,0,7.968,3.397,8.244,7.73l1.683,27.266H211.82L213.502,270.79z"/>
			<path style="opacity:0.2;fill:#FFFFFF;" d="M204.465,417.176l7.045-114.126h56.671l7.046,114.126h5.009l-9.057-146.705
				c-0.444-6.963-6.257-12.417-13.234-12.417h-36.198c-6.977,0-12.79,5.454-13.235,12.422l-9.056,146.7H204.465z M213.502,270.79
				c0.277-4.338,3.898-7.735,8.245-7.735h36.198c4.346,0,7.968,3.397,8.244,7.73l1.683,27.266H211.82L213.502,270.79z"/>
		</g>
	</g>
</g>
</svg>
